<svg width="265" height="265" viewBox="0 0 265 265" fill="none" xmlns="http://www.w3.org/2000/svg">
<mask id="mask0_330_2" style="mask-type:alpha" maskUnits="userSpaceOnUse" x="0" y="0" width="265" height="265">
<rect width="265" height="265" fill="#FF0101"/>
</mask>
<g mask="url(#mask0_330_2)">
<g filter="url(#filter0_d_330_2)">
<path d="M172.695 131.082C190.998 132.374 231.685 143.415 248.018 177.24L224.337 186.186C219.821 179.686 208.505 166.109 199.368 163.804C196.684 175.423 184.847 201.104 158.966 210.882L147.283 188.026C159.876 180.743 182.589 159.159 172.695 131.082ZM73.2984 142.092C82.1744 154.268 107.385 176.861 137.219 169.832C137.186 186.636 128.216 223.38 92.6053 235.923L81.0858 213.385C87.8256 209.703 101.762 200.271 103.586 192.007C90.732 188.657 61.8749 175.799 49.284 151.164L73.2984 142.092ZM127.827 95.3942C127.86 78.5904 136.829 41.8471 172.44 29.3032L183.96 51.8424C177.22 55.5247 163.284 64.9553 161.46 73.2195C174.314 76.5695 203.17 89.4284 215.761 114.062L191.747 123.134C182.871 110.959 157.66 88.3658 127.827 95.3942ZM40.6965 79.048C45.2126 85.5481 56.5297 99.1245 65.6666 101.43C68.3501 89.8111 80.187 64.1293 106.069 54.3517L117.751 77.2082C105.158 84.4906 82.4455 106.075 92.3392 134.152C74.0372 132.86 33.3499 121.819 17.0164 87.9938L40.6965 79.048Z" fill="url(#paint0_linear_330_2)"/>
</g>
</g>
<defs>
<filter id="filter0_d_330_2" x="-3.1834" y="29.3047" width="251.201" height="231.817" filterUnits="userSpaceOnUse" color-interpolation-filters="sRGB">
<feFlood flood-opacity="0" result="BackgroundImageFix"/>
<feColorMatrix in="SourceAlpha" type="matrix" values="0 0 0 0 0 0 0 0 0 0 0 0 0 0 0 0 0 0 127 0" result="hardAlpha"/>
<feOffset dx="-15" dy="20"/>
<feGaussianBlur stdDeviation="2.6"/>
<feComposite in2="hardAlpha" operator="out"/>
<feColorMatrix type="matrix" values="0 0 0 0 0 0 0 0 0 0 0 0 0 0 0 0 0 0 0.25 0"/>
<feBlend mode="normal" in2="BackgroundImageFix" result="effect1_dropShadow_330_2"/>
<feBlend mode="normal" in="SourceGraphic" in2="effect1_dropShadow_330_2" result="shape"/>
</filter>
<linearGradient id="paint0_linear_330_2" x1="173.88" y1="29.5265" x2="49.3911" y2="237.386" gradientUnits="userSpaceOnUse">
<stop stop-color="#FFFDC5"/>
<stop offset="0.480769" stop-color="#FF993E"/>
<stop offset="1" stop-color="#FF8212"/>
</linearGradient>
</defs>
</svg>
