<?xml version="1.0" encoding="UTF-8"?>
<svg version="1.1" xmlns="http://www.w3.org/2000/svg" width="1014" height="406">
<path d="M0 0 C1.66578066 1.33444009 3.33214193 2.66815729 5 4 C10.20801075 0.16924059 10.20801075 0.16924059 15.23046875 -3.8984375 C29.34148389 -15.85852738 47.6729007 -23.48899173 66 -26 C66.74507812 -26.10957031 67.49015625 -26.21914062 68.2578125 -26.33203125 C97.40779412 -29.93970224 127.54682528 -22.95100812 150.9375 -4.9375 C152.97897825 -3.31475522 154.98976109 -1.66194376 157 0 C157.74894531 0.59554687 158.49789063 1.19109375 159.26953125 1.8046875 C180.76758835 19.52892393 192.97567364 47.63782014 195.80818915 74.78604817 C196.36456776 81.20797613 196.28616509 87.6548779 196.2746582 94.09545898 C196.27901929 95.73837004 196.28420701 97.38127907 196.29014587 99.02418518 C196.30338675 103.43281577 196.30413219 107.84135988 196.30158257 112.25000644 C196.30050416 115.94565093 196.30541747 119.64127854 196.310188 123.33691937 C196.32122817 132.05462284 196.32174954 140.77228318 196.31567383 149.48999023 C196.30961723 158.46178598 196.32200028 167.43342557 196.3432439 176.4051947 C196.36087766 184.13893739 196.36685907 191.8726304 196.36360615 199.60639244 C196.36179844 204.21249124 196.36437967 208.81847821 196.37832069 213.42455864 C196.39092603 217.74954915 196.38892951 222.07429554 196.37590981 226.39928246 C196.37355163 227.98066034 196.37625137 229.56205559 196.38453293 231.14341354 C196.47502358 249.77209147 196.47502358 249.77209147 190.6875 257.3125 C183.93380522 264.06619478 176.86756152 266.21395758 167.54696655 266.24884033 C166.77156525 266.24164978 165.99616394 266.23445923 165.19726562 266.22705078 C164.35729034 266.22734283 163.51731506 266.22763489 162.65188599 266.22793579 C159.90323186 266.22655363 157.15485618 266.21104539 154.40625 266.1953125 C152.48954415 266.1915784 150.57283638 266.18873331 148.65612793 266.18673706 C143.63214774 266.17913183 138.60828474 266.15951027 133.58435059 266.1373291 C128.44947901 266.11680343 123.31458835 266.10772101 118.1796875 266.09765625 C108.11974042 266.07626127 98.05987999 266.04216315 88 266 C87.99853344 265.10970313 87.99706688 264.21940626 87.99555588 263.3021307 C87.95849811 241.6354382 87.89949699 219.96890226 87.81609726 198.30233669 C87.77629437 187.82452069 87.74390821 177.34677993 87.72900391 166.86889648 C87.71599389 157.73596266 87.6890458 148.6031943 87.64538693 139.47035366 C87.62275755 134.63492058 87.60709021 129.79969171 87.60811615 124.96420097 C87.60886189 120.41114612 87.59094584 115.85854293 87.55883217 111.30560493 C87.55032647 109.63634425 87.54858781 107.96703294 87.55419731 106.29776001 C87.56084897 104.01381273 87.54289111 101.73129764 87.51898193 99.44749451 C87.51529476 98.17081122 87.51160759 96.89412794 87.50780869 95.57875729 C86.8292259 90.79647777 85.12401877 86.64190744 81.17578125 83.58984375 C74.49664289 81.2514452 69.51957416 82.82680861 63 85 C61.83046584 87.42383077 61.83046584 87.42383077 61 90 C60.67 90.66 60.34 91.32 60 92 C59.89330829 94.28018858 59.853277 96.56356756 59.84178162 98.84622192 C59.83684364 99.55846888 59.83190566 100.27071584 59.82681805 101.00454605 C59.81139966 103.40293062 59.80307073 105.80128833 59.79467773 108.19970703 C59.78510262 109.91426837 59.77509276 111.62882734 59.76467896 113.34338379 C59.73758411 118.00839065 59.71659939 122.67340768 59.69667697 127.33844995 C59.67484561 132.20985433 59.64744301 137.08122721 59.62062073 141.9526062 C59.57065522 151.18192346 59.52573073 160.41125817 59.48259836 169.64060962 C59.42403935 182.10894009 59.3577318 194.57722917 59.29184818 207.04552269 C59.18821316 226.69698726 59.09496413 246.34848719 59 266 C23.36 266 -12.28 266 -49 266 C-49.02578125 253.52058594 -49.0515625 241.04117187 -49.078125 228.18359375 C-49.10328622 220.28579151 -49.12945011 212.38801378 -49.16015625 204.49023438 C-49.20872571 191.94979004 -49.25315777 179.40942722 -49.27099609 166.86889648 C-49.28400611 157.73596266 -49.3109542 148.6031943 -49.35461307 139.47035366 C-49.37724245 134.63492058 -49.39290979 129.79969171 -49.39188385 124.96420097 C-49.39113811 120.41114612 -49.40905416 115.85854293 -49.44116783 111.30560493 C-49.44967353 109.63634425 -49.45141219 107.96703294 -49.44580269 106.29776001 C-49.43915103 104.01381273 -49.45710889 101.73129764 -49.48101807 99.44749451 C-49.48470524 98.17081122 -49.48839241 96.89412794 -49.49219131 95.57875729 C-50.1707741 90.79647777 -51.87598123 86.64190744 -55.82421875 83.58984375 C-62.50335711 81.2514452 -67.48042584 82.82680861 -74 85 C-75.18391223 87.37625345 -75.18391223 87.37625345 -76 90 C-76.495 91.485 -76.495 91.485 -77 93 C-77.0928536 95.04495016 -77.12464869 97.09285069 -77.12457275 99.13990784 C-77.12713577 100.42535995 -77.12969879 101.71081207 -77.13233948 103.03521729 C-77.13026945 104.46301277 -77.1281467 105.89080818 -77.12597656 107.31860352 C-77.12737135 108.82004347 -77.12927068 110.32148302 -77.13163757 111.82292175 C-77.1361364 115.05918761 -77.1379907 118.29544077 -77.13809967 121.53170967 C-77.13924032 126.65528193 -77.15208227 131.77878217 -77.16766357 136.90232849 C-77.17023643 137.76735869 -77.17280928 138.63238888 -77.1754601 139.52363211 C-77.18072689 141.2927609 -77.18601237 143.06188964 -77.19131613 144.83101833 C-77.22640234 156.75885717 -77.25298207 168.68660722 -77.25048828 180.61450195 C-77.24889666 188.65979285 -77.26500835 196.70483859 -77.30119491 204.75005096 C-77.31961098 209.00490099 -77.32903637 213.25934197 -77.31671906 217.5142231 C-77.30522904 221.52241803 -77.31710926 225.5298828 -77.34635353 229.53798103 C-77.35295988 231.00280948 -77.35118634 232.4677055 -77.34005547 233.93250656 C-77.27279823 243.59089994 -78.18599254 251.22615203 -84.52165604 258.82505131 C-93.98148397 267.98166352 -107.63120693 266.39795617 -119.7890625 266.29296875 C-121.70290798 266.28736505 -123.61675779 266.28309861 -125.53060913 266.28010559 C-130.53818903 266.26871775 -135.54550286 266.23930347 -140.55297852 266.20599365 C-145.67460533 266.17516132 -150.79627564 266.16157226 -155.91796875 266.14648438 C-165.94542862 266.11442736 -175.97269208 266.06330528 -186 266 C-186.07029331 241.68562578 -186.1230873 217.37126694 -186.15543652 193.05681133 C-186.1708606 181.76545997 -186.1918642 170.47417199 -186.22631836 159.18286133 C-186.25635794 149.33354373 -186.27560734 139.48427207 -186.28226548 129.63490993 C-186.28615323 124.42684887 -186.29519545 119.21891917 -186.31719017 114.0109005 C-186.33778615 109.09352509 -186.3437879 104.17633321 -186.33932304 99.25891876 C-186.34013804 97.46888794 -186.34596439 95.67884997 -186.35761642 93.88885689 C-186.45163518 78.67977044 -185.46277895 63.05873319 -180.25 48.625 C-179.99250977 47.88862305 -179.73501953 47.15224609 -179.46972656 46.39355469 C-169.17301134 17.97560955 -147.23410664 -4.41780021 -120.1328125 -17.2109375 C-79.46694359 -35.44579931 -33.96909694 -27.81870335 0 0 Z " fill="#F47F00" transform="translate(818,137)"/>
<path d="M0 0 C11.59630792 -0.09281592 23.19252697 -0.16382398 34.78913116 -0.20724869 C40.17433321 -0.2280939 45.55928049 -0.25635573 50.94433594 -0.30175781 C56.1444498 -0.34532461 61.34431911 -0.36916016 66.54460144 -0.37950897 C68.52528226 -0.38688088 70.5059502 -0.40127651 72.48652649 -0.42292023 C75.26800107 -0.45209818 78.04847431 -0.45594999 80.83007812 -0.45410156 C81.64288239 -0.46848267 82.45568665 -0.48286377 83.29312134 -0.49768066 C90.27688999 -0.44769656 95.24420306 1.82099777 100.6875 6.125 C106.56131474 13.42758048 108.74684938 20.24460733 108.62145996 29.52096558 C108.62784878 30.53220305 108.6342376 31.54344052 108.64082003 32.58532155 C108.65599049 35.94905713 108.63565989 39.31159977 108.61523438 42.67529297 C108.61873815 45.09749235 108.62439962 47.51968943 108.63204956 49.94187927 C108.64480135 55.82551243 108.63438431 61.70883046 108.61293632 67.59241287 C108.58881841 74.46345779 108.59064768 81.33442503 108.59324223 88.20550288 C108.5969283 100.48375307 108.57615093 112.76184119 108.54199219 125.04003906 C108.50897609 136.91215112 108.49472225 148.78409293 108.50097656 160.65625 C108.50885923 175.6931075 108.49932939 190.72985922 108.47613403 205.76670047 C108.46928862 210.53689529 108.46856083 215.307068 108.47001648 220.07726669 C108.4716232 226.52718769 108.45647526 232.97695019 108.43078995 239.42682076 C108.42369609 241.77920244 108.42151128 244.13160551 108.42490768 246.48399544 C108.47125736 286.19343548 98.78021688 322.68783465 72 353 C71.57605957 353.48952148 71.15211914 353.97904297 70.71533203 354.48339844 C46.04807841 382.90887083 11.60662633 399.50537755 -25.5625 403.75 C-27.37343568 403.86230609 -29.18652104 403.94173562 -31 404 C-31.63599121 404.02578125 -32.27198242 404.0515625 -32.92724609 404.078125 C-71.24430938 405.47242341 -109.88292644 393.94857975 -138.34765625 367.55126953 C-138.89292969 367.03935059 -139.43820312 366.52743164 -140 366 C-140.60972656 365.43265137 -141.21945312 364.86530273 -141.84765625 364.28076172 C-150.76047161 355.91036769 -158.37869412 347.27503167 -165 337 C-165.38349609 336.4234668 -165.76699219 335.84693359 -166.16210938 335.25292969 C-186.87847952 303.97016974 -193.3831242 264.03270118 -186.51123047 227.39404297 C-181.73707406 203.98403743 -172.42742361 181.45954303 -157 163 C-156.49533203 162.39140137 -155.99066406 161.78280273 -155.47070312 161.15576172 C-153.8049978 159.15582599 -152.12514201 157.16895189 -150.4375 155.1875 C-149.91953857 154.57680664 -149.40157715 153.96611328 -148.86791992 153.33691406 C-125.24315941 126.15752778 -88.55863612 109.7352797 -53 107 C-48.99880829 106.86603848 -45.00310682 106.85995073 -41 106.875 C-39.97132813 106.87113281 -38.94265625 106.86726563 -37.8828125 106.86328125 C-21.11538615 106.88461385 -21.11538615 106.88461385 -19 109 C-18.9043839 110.45481495 -18.87811649 111.91425486 -18.87974548 113.37220764 C-18.87768349 114.78784752 -18.87768349 114.78784752 -18.87557983 116.23208618 C-18.87917511 117.27577362 -18.88277039 118.31946106 -18.88647461 119.39477539 C-18.88632858 120.48732132 -18.88618256 121.57986725 -18.8860321 122.70552063 C-18.88673178 126.33625233 -18.89452671 129.96693346 -18.90234375 133.59765625 C-18.90420774 136.10729443 -18.90563173 138.61693298 -18.90663147 141.12657166 C-18.91006652 147.06934593 -18.91795727 153.01210384 -18.92798096 158.95486969 C-18.94023747 166.38201925 -18.94562208 173.80917105 -18.95117188 181.23632812 C-18.96191189 194.49089473 -18.97879918 207.74544621 -19 221 C-19.73605469 220.72285156 -20.47210938 220.44570312 -21.23046875 220.16015625 C-22.20628906 219.79792969 -23.18210937 219.43570313 -24.1875 219.0625 C-25.15042969 218.70285156 -26.11335937 218.34320313 -27.10546875 217.97265625 C-36.92216331 214.67392893 -46.41119067 215.30214531 -56 219 C-56.69996094 219.26683594 -57.39992188 219.53367188 -58.12109375 219.80859375 C-67.87486262 224.08656255 -73.89846768 232.42527536 -78 242 C-81.47070742 252.10823544 -80.47107427 263.20665028 -76.0859375 272.86328125 C-70.55161851 283.75275064 -61.65592033 290.44802656 -50.25 294.25 C-38.18745772 296.84156182 -27.02537827 294.4906165 -16.6875 287.875 C-9.1076064 282.19617296 -3.48930614 273.74662042 -1.43957615 264.46125603 C-0.84180472 259.75435832 -0.84642716 255.1102133 -0.84178162 250.36990356 C-0.83684364 249.29896985 -0.83190566 248.22803613 -0.82681805 247.12464988 C-0.81146076 243.53638923 -0.80308717 239.94814644 -0.79467773 236.35986328 C-0.78509783 233.7875808 -0.77508768 231.21529989 -0.76467896 228.64302063 C-0.74294936 223.10518256 -0.72479206 217.56734207 -0.70907402 212.0294838 C-0.6863433 204.0227112 -0.65820495 196.01596475 -0.62875474 188.00921439 C-0.58111805 175.01819876 -0.53784326 162.02717242 -0.49731445 149.03613281 C-0.45793955 136.41796027 -0.41650856 123.79979724 -0.37231445 111.18164062 C-0.36959018 110.40361112 -0.36686591 109.62558162 -0.36405908 108.82397546 C-0.35037928 104.92075655 -0.33665907 101.01753778 -0.32291877 97.11431909 C-0.20901563 64.74289903 -0.10219267 32.37145922 0 0 Z " fill="#F47F00" transform="translate(505,0)"/>
<path d="M0 0 C0.7264975 0.00215515 1.452995 0.0043103 2.20150757 0.00653076 C13.31216444 0.05935069 24.01212097 0.53827514 34.8125 3.3125 C35.98280762 3.60253906 35.98280762 3.60253906 37.17675781 3.8984375 C74.6633515 13.43566275 105.9354347 36.89659086 126.8125 69.3125 C127.48925781 70.35019531 128.16601562 71.38789063 128.86328125 72.45703125 C146.29530981 100.71160525 149.3021974 132.44146024 149.21547651 164.84174705 C149.20776703 168.63358394 149.21495468 172.42540139 149.21963501 176.21723938 C149.22505295 182.56698597 149.21799857 188.91662695 149.20361328 195.26635742 C149.18721662 202.58811178 149.19264175 209.90961635 149.2090925 217.23136491 C149.22272876 223.55625845 149.22461892 229.88107711 149.21677649 236.2059806 C149.21212163 239.96748283 149.21141598 243.72886767 149.22138596 247.49036217 C149.23170434 251.67300526 149.21738356 255.85521934 149.20068359 260.0378418 C149.20675629 261.26963165 149.21282898 262.50142151 149.21908569 263.77053833 C149.15178667 272.8770977 147.87582001 279.88623343 141.5546875 286.7734375 C134.76553731 292.77102758 127.08560299 293.46597221 118.3503418 293.42602539 C117.091036 293.42624443 117.091036 293.42624443 115.80628967 293.4264679 C113.04140608 293.42577326 110.27659052 293.41800188 107.51171875 293.41015625 C105.59072405 293.40829048 103.66972887 293.40686732 101.74873352 293.40586853 C96.70009033 293.40205591 91.65147604 293.39223633 86.60284424 293.38116455 C81.44812409 293.37092345 76.29339927 293.36636513 71.13867188 293.36132812 C61.02993524 293.35061294 50.92122003 293.33355158 40.8125 293.3125 C40.81103344 292.54626973 40.80956688 291.78003946 40.80805588 290.9905901 C40.77091895 272.30101336 40.71181334 253.61162248 40.62859726 234.92219257 C40.58887716 225.88391658 40.55644909 216.84572677 40.54150391 207.80737305 C40.52845081 199.92469181 40.5013934 192.04220076 40.45788693 184.15962666 C40.43535394 179.99022028 40.41958438 175.82104776 40.42061615 171.65157509 C40.42136763 167.71733971 40.40322362 163.78361968 40.37133217 159.84951782 C40.36289808 158.41498864 40.36103846 156.9804012 40.36669731 155.54585838 C40.41441476 141.57526163 38.11420621 129.87937127 28.22265625 119.671875 C19.07995811 111.15303156 9.10372298 108.80860982 -3.00390625 109.0390625 C-12.87003975 109.4919048 -21.24435365 113.32937392 -28.1875 120.3125 C-35.70577631 129.16442767 -39.39860889 138.65627327 -39.1875 150.3125 C-37.93321497 162.01471245 -34.00964892 171.701547 -24.75 179.25 C-13.84304502 187.01143384 -3.41011059 188.56683057 9.8125 187.3125 C12.79103914 186.51380508 15.31403788 185.56173106 18.0625 184.1875 C19.8125 183.3125 19.8125 183.3125 21.8125 183.3125 C21.8125 220.2725 21.8125 257.2325 21.8125 295.3125 C14.91146275 296.69270745 8.07125592 296.5560067 1.0625 296.5625 C0.31607239 296.56350708 -0.43035522 296.56451416 -1.19940186 296.56555176 C-12.17224812 296.55550688 -22.50856063 296.03205426 -33.1875 293.3125 C-34.43402344 293.0340625 -35.68054688 292.755625 -36.96484375 292.46875 C-73.16053609 283.80270188 -105.5619723 259.2360998 -125.3125 228 C-138.51539549 205.79997009 -147.3584355 181.37396226 -148.1875 155.3125 C-148.22746094 154.26707031 -148.26742187 153.22164062 -148.30859375 152.14453125 C-148.88692336 122.58168249 -141.1888417 93.26626522 -125.1875 68.3125 C-124.83526367 67.75965332 -124.48302734 67.20680664 -124.12011719 66.63720703 C-114.96971722 52.48790201 -103.00113974 39.01143854 -89.1875 29.3125 C-88.15367188 28.55195313 -87.11984375 27.79140625 -86.0546875 27.0078125 C-60.62397131 8.7922727 -31.13686755 -0.16665744 0 0 Z " fill="#F47F00" transform="translate(148.1875,109.6875)"/>
<path d="M0 0 C0.66 1.32 1.32 2.64 2 4 C9.26 4 16.52 4 24 4 C24 4.33 24 4.66 24 5 C4.86 5 -14.28 5 -34 5 C-34 4.67 -34 4.34 -34 4 C-30.7 4 -27.4 4 -24 4 C-24 3.34 -24 2.68 -24 2 C-23.01 2 -22.02 2 -21 2 C-21 2.66 -21 3.32 -21 4 C-20.01 4 -19.02 4 -18 4 C-17.67 3.01 -17.34 2.02 -17 1 C-15.80375 1.185625 -14.6075 1.37125 -13.375 1.5625 C-8.55868426 2.16773614 -4.60231707 1.53410569 0 0 Z " fill="#EE7100" transform="translate(967,398)"/>
<path d="M0 0 C0.2475 0.639375 0.495 1.27875 0.75 1.9375 C1.96621634 4.49019039 1.96621634 4.49019039 6 5 C-7.2 5 -20.4 5 -34 5 C-34 4.67 -34 4.34 -34 4 C-30.7 4 -27.4 4 -24 4 C-24 3.34 -24 2.68 -24 2 C-23.01 2 -22.02 2 -21 2 C-21 2.66 -21 3.32 -21 4 C-20.01 4 -19.02 4 -18 4 C-17.67 3.01 -17.34 2.02 -17 1 C-15.80375 1.185625 -14.6075 1.37125 -13.375 1.5625 C-8.55868426 2.16773614 -4.60231707 1.53410569 0 0 Z " fill="#F07400" transform="translate(711,398)"/>
<path d="M0 0 C0.33 0.66 0.66 1.32 1 2 C1.99 1.979375 2.98 1.95875 4 1.9375 C8.06568074 1.92918572 11.97662176 2.43531533 16 3 C16.495 4.485 16.495 4.485 17 6 C5.78 6 -5.44 6 -17 6 C-17 5.67 -17 5.34 -17 5 C-13.04 5 -9.08 5 -5 5 C-4.67 4.34 -4.34 3.68 -4 3 C-3.01 3.33 -2.02 3.66 -1 4 C-0.67 2.68 -0.34 1.36 0 0 Z " fill="#ED7100" transform="translate(787,397)"/>
<path d="M0 0 C3.68266103 0.59950296 7.34543185 1.24758891 11 2 C11 2.66 11 3.32 11 4 C15.62 4 20.24 4 25 4 C25 4.33 25 4.66 25 5 C13.45 5 1.9 5 -10 5 C-9.67 4.01 -9.34 3.02 -9 2 C-8.01 1.67 -7.02 1.34 -6 1 C-5.34 1.33 -4.68 1.66 -4 2 C-4 2.66 -4 3.32 -4 4 C-3.01 4 -2.02 4 -1 4 C-0.67 2.68 -0.34 1.36 0 0 Z " fill="#ED7000" transform="translate(199,398)"/>
<path d="M0 0 C2.83046711 0.30631082 5.52567668 0.5625 8.375 0.5625 C8.375 1.2225 8.375 1.8825 8.375 2.5625 C9.695 2.8925 11.015 3.2225 12.375 3.5625 C4.125 3.5625 -4.125 3.5625 -12.625 3.5625 C-10.625 0.5625 -10.625 0.5625 -8.3515625 -0.15234375 C-5.45389375 -0.45539507 -2.89325684 -0.32280138 0 0 Z " fill="#E97100" transform="translate(241.625,399.4375)"/>
<path d="M0 0 C2.23915424 0.73602403 2.23915424 0.73602403 5.0625 -0.5 C6.3825 -0.5 7.7025 -0.5 9.0625 -0.5 C9.0625 0.49 9.0625 1.48 9.0625 2.5 C10.7125 2.5 12.3625 2.5 14.0625 2.5 C14.0625 2.83 14.0625 3.16 14.0625 3.5 C7.7925 3.5 1.5225 3.5 -4.9375 3.5 C-4.6075 2.51 -4.2775 1.52 -3.9375 0.5 C-1.9375 -0.5 -1.9375 -0.5 0 0 Z " fill="#EF7100" transform="translate(259.9375,399.5)"/>
<path d="M0 0 C1.61932881 0.22150182 3.23797238 0.4495609 4.85205078 0.70654297 C8.86004587 1.25412311 12.89941736 1.3751821 16.9375 1.5625 C17.81212891 1.60568359 18.68675781 1.64886719 19.58789062 1.69335938 C21.72511995 1.79846901 23.86254238 1.89963985 26 2 C26 2.33 26 2.66 26 3 C14.78 3 3.56 3 -8 3 C-8 2.67 -8 2.34 -8 2 C-6.865625 1.855625 -5.73125 1.71125 -4.5625 1.5625 C-1.19222799 1.38828522 -1.19222799 1.38828522 0 0 Z " fill="#E66A00" transform="translate(816,400)"/>
<path d="M0 0 C0 0.66 0 1.32 0 2 C1.32 2.33 2.64 2.66 4 3 C-3.92 3 -11.84 3 -20 3 C-20 2.67 -20 2.34 -20 2 C-16.37 2 -12.74 2 -9 2 C-9 1.34 -9 0.68 -9 0 C-5.67465243 -1.10844919 -3.37817425 -0.84454356 0 0 Z " fill="#EE7400" transform="translate(665,400)"/>
<path d="M0 0 C0 0.66 0 1.32 0 2 C1.32 2.33 2.64 2.66 4 3 C-2.27 3 -8.54 3 -15 3 C-15 2.67 -15 2.34 -15 2 C-13.02 2 -11.04 2 -9 2 C-9 1.34 -9 0.68 -9 0 C-5.67465243 -1.10844919 -3.37817425 -0.84454356 0 0 Z " fill="#EE7400" transform="translate(921,400)"/>
<path d="M0 0 C0.66 0.66 1.32 1.32 2 2 C1.67 2.33 1.34 2.66 1 3 C1.66 3.66 2.32 4.32 3 5 C-0.63 5 -4.26 5 -8 5 C-7.67 3.68 -7.34 2.36 -7 1 C-6.401875 1.20625 -5.80375 1.4125 -5.1875 1.625 C-2.71549154 2.30671915 -2.71549154 2.30671915 0 0 Z " fill="#ED7200" transform="translate(641,398)"/>
<path d="M0 0 C0.99 0 1.98 0 3 0 C3 0.66 3 1.32 3 2 C4.65 2 6.3 2 8 2 C8 2.33 8 2.66 8 3 C2.06 3 -3.88 3 -10 3 C-10 2.67 -10 2.34 -10 2 C-6.7 2 -3.4 2 0 2 C0 1.34 0 0.68 0 0 Z " fill="#E66B00" transform="translate(943,400)"/>
<path d="M0 0 C0.99 0 1.98 0 3 0 C3 0.66 3 1.32 3 2 C4.65 2 6.3 2 8 2 C8 2.33 8 2.66 8 3 C2.06 3 -3.88 3 -10 3 C-10 2.67 -10 2.34 -10 2 C-6.7 2 -3.4 2 0 2 C0 1.34 0 0.68 0 0 Z " fill="#E66B00" transform="translate(687,400)"/>
<path d="M0 0 C0.99 0 1.98 0 3 0 C3 0.66 3 1.32 3 2 C3.66 2.33 4.32 2.66 5 3 C-0.28 3 -5.56 3 -11 3 C-11 2.67 -11 2.34 -11 2 C-7.37 2 -3.74 2 0 2 C0 1.34 0 0.68 0 0 Z " fill="#E46B00" transform="translate(656,400)"/>
<path d="M0 0 C1.32 0.66 2.64 1.32 4 2 C4 2.66 4 3.32 4 4 C0.37 4 -3.26 4 -7 4 C-7 3.67 -7 3.34 -7 3 C-5.5459375 2.5359375 -5.5459375 2.5359375 -4.0625 2.0625 C-1.15934208 1.30476658 -1.15934208 1.30476658 0 0 Z " fill="#E67100" transform="translate(871,399)"/>
<path d="M0 0 C0.99 0.33 1.98 0.66 3 1 C3.33 1.99 3.66 2.98 4 4 C1.69 4 -0.62 4 -3 4 C-2.67 3.01 -2.34 2.02 -2 1 C-1.34 0.67 -0.68 0.34 0 0 Z " fill="#E67100" transform="translate(192,399)"/>
<path d="M0 0 C0.99 0 1.98 0 3 0 C3 0.66 3 1.32 3 2 C3.66 2.33 4.32 2.66 5 3 C1.37 3 -2.26 3 -6 3 C-6 2.67 -6 2.34 -6 2 C-4.02 2 -2.04 2 0 2 C0 1.34 0 0.68 0 0 Z " fill="#E06B00" transform="translate(912,400)"/>
</svg>
