<svg width="265" height="265" viewBox="0 0 265 265" fill="none" xmlns="http://www.w3.org/2000/svg">
<mask id="mask0_330_14" style="mask-type:alpha" maskUnits="userSpaceOnUse" x="0" y="0" width="265" height="265">
<rect width="265" height="265" fill="#FF0101"/>
</mask>
<g mask="url(#mask0_330_14)">
<g filter="url(#filter0_d_330_14)">
<path d="M217.742 115.095C226.442 111.808 236.982 116.596 238.425 125.48C245.25 167.503 222.451 208.481 179.13 224.847C135.808 241.213 85.2786 227.936 53.8899 195.193C47.2536 188.271 50.28 178.358 58.9799 175.072L70.658 170.66C77.3734 168.123 85.3324 170.505 91.0754 175.285C109.857 190.917 136.769 196.566 160.159 187.73C183.548 178.894 196.909 158.031 196.218 135.565C196.007 128.695 199.349 122.043 206.064 119.506L217.742 115.095ZM85.0799 40.8365C128.745 24.341 179.732 37.9602 211.062 71.2728C217.588 78.2123 214.532 88.0404 205.882 91.3082L194.312 95.6792C187.517 98.2463 179.461 95.7771 173.706 90.8819C154.902 74.8844 127.68 69.0287 104.051 77.9549C80.4229 86.8813 67.0285 108.081 68.0171 130.809C68.3196 137.764 64.9865 144.535 58.1912 147.103L46.6209 151.474C37.971 154.741 27.4834 150.03 25.9518 141.203C18.5991 98.8325 41.4148 57.3322 85.0799 40.8365Z" fill="url(#paint0_linear_330_14)"/>
</g>
</g>
<defs>
<filter id="filter0_d_330_14" x="4.39033" y="33.8281" width="235.228" height="223.227" filterUnits="userSpaceOnUse" color-interpolation-filters="sRGB">
<feFlood flood-opacity="0" result="BackgroundImageFix"/>
<feColorMatrix in="SourceAlpha" type="matrix" values="0 0 0 0 0 0 0 0 0 0 0 0 0 0 0 0 0 0 127 0" result="hardAlpha"/>
<feOffset dx="-15" dy="20"/>
<feGaussianBlur stdDeviation="2.6"/>
<feComposite in2="hardAlpha" operator="out"/>
<feColorMatrix type="matrix" values="0 0 0 0 0 0 0 0 0 0 0 0 0 0 0 0 0 0 0.25 0"/>
<feBlend mode="normal" in2="BackgroundImageFix" result="effect1_dropShadow_330_14"/>
<feBlend mode="normal" in="SourceGraphic" in2="effect1_dropShadow_330_14" result="shape"/>
</filter>
<linearGradient id="paint0_linear_330_14" x1="179.913" y1="5.99625" x2="25.0475" y2="255.615" gradientUnits="userSpaceOnUse">
<stop stop-color="#FFFDC5"/>
<stop offset="0.480769" stop-color="#FF993E"/>
<stop offset="1" stop-color="#FF8212"/>
</linearGradient>
</defs>
</svg>
