<svg width="344" height="336" viewBox="0 0 344 336" fill="none" xmlns="http://www.w3.org/2000/svg">
<path d="M0 0V57.6L28.8 28.8V0H0Z" fill="white"/>
<path d="M344.001 14.0002H22.0002V336.003H344.001V14.0002Z" fill="#222222"/>
<path d="M46.0001 0V57.6L74.8001 28.8V0H46.0001Z" fill="white"/>
<path d="M95.9879 175.236C95.9879 181.349 91.0976 186.239 84.9847 186.239C78.8718 186.239 73.9815 181.349 73.9815 175.236C73.9815 169.123 78.8718 164.232 84.9847 164.232H95.9879V175.236ZM108.214 130H95.9879V152.251C91.8312 152.251 87.6744 152.251 84.9847 152.251C72.2699 152.251 62.0002 162.521 62.0002 175.236C62.0002 187.95 72.2699 198.22 84.9847 198.22C97.6995 198.22 107.969 187.95 107.969 175.236C107.969 168.878 107.969 152.251 107.969 152.251L108.214 130Z" fill="white"/>
<path d="M229.732 186.242C235.845 186.242 240.736 181.351 240.736 175.239C240.736 169.126 235.845 164.235 229.732 164.235C223.619 164.235 218.729 169.126 218.729 175.239C218.974 181.351 223.864 186.242 229.732 186.242ZM206.992 175.239C206.992 162.524 217.262 152.254 229.977 152.254C242.692 152.254 252.961 162.524 252.961 175.239C252.961 187.953 242.692 198.223 229.977 198.223C217.262 198.223 206.992 187.953 206.992 175.239Z" fill="white"/>
<path d="M291.358 175.239C291.358 169.37 286.468 164.48 280.6 164.48C274.731 164.48 269.841 169.37 269.841 175.239C269.841 178.173 269.841 197.245 269.841 197.245C263.728 197.245 257.86 197.245 257.86 197.245C257.86 197.245 257.86 181.596 257.86 175.239C257.86 162.524 268.129 152.254 280.844 152.254C293.559 152.254 303.829 162.524 303.829 175.239C303.829 181.596 303.829 197.245 303.829 197.245C303.829 197.245 297.96 197.245 291.847 197.245C291.358 197.245 291.358 178.173 291.358 175.239Z" fill="white"/>
<path d="M178.87 167.411C177.159 166.188 177.648 164.232 180.582 163.499C184.25 162.521 190.607 163.254 195.987 165.699L201.61 157.875C199.165 155.919 193.786 153.229 185.961 152.74C185.961 152.74 172.758 151.028 167.378 161.054C167.378 161.054 162.732 170.345 172.024 176.214C177.648 179.637 187.429 181.104 190.607 182.571C193.052 184.038 192.319 186.728 188.651 187.461C182.294 188.928 173.98 185.261 171.29 183.304L165.422 191.373C169.334 194.308 174.225 196.997 182.049 198.22C182.049 198.22 194.519 200.421 201.366 191.863C202.588 190.395 208.212 179.881 196.965 173.768C191.096 170.59 181.805 169.123 178.87 167.411Z" fill="white"/>
<path d="M122.64 206.046C123.129 206.291 128.752 210.203 134.132 210.203C147.336 210.447 148.069 196.754 148.069 193.576C145.624 196.265 140.489 197.977 137.311 197.977C124.596 197.977 114.571 188.196 114.571 175.482C114.571 169.124 114.571 153.231 114.571 153.231C114.571 153.231 120.439 153.231 126.552 153.231C126.552 153.231 126.552 172.792 126.552 175.482C126.552 181.35 131.442 186.24 137.311 186.24C143.179 186.24 148.069 181.35 148.069 175.482C148.069 173.036 148.069 153.231 148.069 153.231C154.182 153.231 160.05 153.231 160.05 153.231V175.482C160.05 195.287 161.029 215.582 141.712 220.228C127.285 223.651 117.016 214.604 116.282 214.115L122.64 206.046Z" fill="white"/>
</svg>
