<svg width="344" height="336" viewBox="0 0 344 336" fill="none" xmlns="http://www.w3.org/2000/svg">
<path d="M22.008 14.0002H344.008V336H22.008V14.0002Z" fill="#8193A1"/>
<path d="M0 0V57.6L28.8 28.8V0H0Z" fill="white"/>
<path d="M46.0001 0V57.6L74.8001 28.8V0H46.0001Z" fill="white"/>
<path d="M92.6533 168.884C92.6367 173.722 91.2663 180.523 79.544 183.966L75.9846 185.01V198.353L82.9779 196.299C97.466 192.045 105.454 182.261 105.454 168.759V117.516L92.6533 121.276V168.884Z" fill="white"/>
<path d="M154.448 162.537C168.552 158.393 176.314 148.876 176.314 135.725C176.314 123.902 166.94 118.137 158.124 118.137C148.859 118.137 129.149 125.097 129.149 146.01V177.644C129.149 189.467 138.523 195.232 147.338 195.232C156.613 195.232 176.314 188.28 176.314 167.367V163.791L164.124 167.367C164.124 179.908 151.39 183.041 147.388 183.041C143.962 183.041 141.339 181.512 141.339 177.644V166.397L154.448 162.546V162.537ZM141.339 146.002C141.339 133.461 154.072 130.327 158.074 130.327C161.5 130.327 164.132 131.84 164.132 135.717C164.132 140.546 162.762 147.364 151.023 150.823L141.348 153.672V146.002H141.339Z" fill="white"/>
<path d="M212.16 144.478C212.16 139.648 213.538 132.847 225.269 129.405L228.82 128.352V115L221.827 117.047C207.339 121.317 199.36 131.101 199.36 144.603V195.855L212.16 192.095V144.478Z" fill="white"/>
<path d="M273.804 118.137C264.539 118.137 244.828 125.097 244.828 146.01V149.595L257.018 146.01C257.018 133.469 269.753 130.336 273.755 130.336C277.18 130.336 279.795 131.848 279.795 135.725V146.971L266.694 150.823C252.59 154.967 244.837 164.484 244.837 177.627C244.837 189.45 254.203 195.215 263.026 195.215C272.291 195.215 292.002 188.263 292.002 167.35V135.725C292.002 123.902 282.627 118.137 273.813 118.137H273.804ZM279.786 167.358C279.786 179.9 267.061 183.033 263.059 183.033C259.633 183.033 257.018 181.504 257.018 177.635C257.018 172.806 258.38 165.988 270.129 162.537L279.786 159.688V167.358Z" fill="white"/>
<path d="M84.823 225.026V222.469L94.8158 222.453V230.54C93.2784 231.669 91.6994 232.52 90.07 233.089C88.4407 233.657 86.7697 233.941 85.0485 233.941C82.7341 233.941 80.6286 233.481 78.7319 232.563C76.8353 231.643 75.4065 230.323 74.4457 228.585C73.4765 226.856 73.0002 224.917 73.0002 222.779C73.0002 220.639 73.4765 218.676 74.4373 216.838C75.3982 214.999 76.7768 213.637 78.5815 212.743C80.3863 211.85 82.4584 211.406 84.8062 211.406C86.5107 211.406 88.0564 211.666 89.435 212.176C90.8136 212.685 91.8915 213.395 92.6768 214.306C93.4622 215.217 94.0555 216.403 94.4648 217.873L91.6492 218.584C91.2983 217.473 90.8554 216.604 90.3291 215.968C89.8026 215.334 89.0507 214.824 88.0731 214.448C87.0955 214.064 86.0177 213.88 84.823 213.88C83.3942 213.88 82.1659 214.081 81.1216 214.481C80.0771 214.882 79.2416 215.409 78.6066 216.061C77.9716 216.712 77.4703 217.431 77.1194 218.216C76.5178 219.561 76.217 221.024 76.217 222.603C76.217 224.541 76.5763 226.171 77.3032 227.474C78.0301 228.786 79.0829 229.755 80.4615 230.39C81.8484 231.025 83.3106 231.343 84.873 231.343C86.2266 231.343 87.5467 231.1 88.8335 230.624C90.1202 230.148 91.0977 229.63 91.7577 229.087V225.026H84.823Z" fill="white"/>
<path d="M98.9846 233.572V211.789H101.884V233.572H98.9846Z" fill="white"/>
<path d="M105.297 225.676C105.297 222.752 106.174 220.588 107.937 219.184C109.408 218.015 111.196 217.43 113.31 217.43C115.658 217.43 117.579 218.14 119.067 219.56C120.554 220.981 121.306 222.944 121.306 225.451C121.306 227.481 120.972 229.077 120.32 230.247C119.66 231.408 118.699 232.319 117.437 232.962C116.176 233.605 114.805 233.931 113.31 233.931C110.92 233.931 108.982 233.221 107.511 231.809C106.032 230.389 105.297 228.35 105.297 225.685V225.676ZM108.272 225.676C108.272 227.699 108.748 229.211 109.7 230.213C110.653 231.216 111.856 231.726 113.301 231.726C114.747 231.726 115.933 231.224 116.886 230.213C117.838 229.202 118.315 227.665 118.315 225.593C118.315 223.638 117.838 222.159 116.878 221.156C115.917 220.153 114.722 219.644 113.301 219.644C111.881 219.644 110.653 220.145 109.7 221.148C108.748 222.151 108.272 223.662 108.272 225.685V225.676Z" fill="white"/>
<path d="M127.362 233.572H124.672V211.789H127.571V219.559C128.791 218.139 130.354 217.437 132.25 217.437C133.303 217.437 134.297 217.629 135.233 218.022C136.169 218.415 136.946 218.966 137.547 219.668C138.158 220.378 138.625 221.231 138.968 222.233C139.31 223.236 139.486 224.305 139.486 225.442C139.486 228.149 138.759 230.237 137.314 231.717C135.868 233.196 134.13 233.931 132.1 233.931C130.07 233.931 128.499 233.154 127.354 231.599V233.58L127.362 233.572ZM127.329 225.559C127.329 227.456 127.605 228.817 128.165 229.661C129.075 231.04 130.312 231.725 131.866 231.725C133.128 231.725 134.222 231.215 135.15 230.204C136.069 229.185 136.537 227.673 136.537 225.667C136.537 223.662 136.094 222.083 135.208 221.105C134.322 220.128 133.253 219.635 132 219.635C130.746 219.635 129.644 220.145 128.716 221.156C127.797 222.175 127.329 223.637 127.329 225.559Z" fill="white"/>
<path d="M154.163 231.622C153.094 232.466 152.058 233.059 151.063 233.401C150.069 233.744 149.008 233.92 147.872 233.92C145.991 233.92 144.554 233.494 143.543 232.65C142.533 231.806 142.031 230.72 142.031 229.399C142.031 228.622 142.224 227.921 142.599 227.285C142.984 226.642 143.477 226.133 144.095 225.748C144.713 225.364 145.407 225.072 146.175 224.871C146.744 224.729 147.605 224.595 148.749 224.47C151.089 224.211 152.81 223.902 153.913 223.551C153.921 223.183 153.929 222.949 153.929 222.849C153.929 221.762 153.653 220.994 153.11 220.543C152.367 219.941 151.272 219.64 149.81 219.64C148.448 219.64 147.446 219.857 146.794 220.3C146.142 220.744 145.666 221.52 145.357 222.64L142.524 222.281C142.783 221.161 143.201 220.259 143.794 219.565C144.387 218.88 145.24 218.345 146.351 217.978C147.462 217.61 148.757 217.418 150.228 217.418C151.698 217.418 152.868 217.576 153.779 217.894C154.689 218.212 155.358 218.612 155.793 219.089C156.219 219.574 156.52 220.175 156.695 220.911C156.795 221.37 156.837 222.189 156.837 223.375V226.943C156.837 229.433 156.895 231.004 157.021 231.664C157.146 232.324 157.389 232.951 157.756 233.56H154.731C154.431 233.009 154.239 232.357 154.155 231.614L154.163 231.622ZM153.921 225.648C152.868 226.041 151.297 226.383 149.192 226.659C148.005 226.818 147.161 226.993 146.668 227.194C146.175 227.394 145.791 227.679 145.524 228.063C145.256 228.447 145.122 228.865 145.122 229.333C145.122 230.043 145.415 230.644 146 231.112C146.585 231.589 147.437 231.822 148.565 231.822C149.693 231.822 150.671 231.597 151.54 231.146C152.408 230.695 153.044 230.076 153.453 229.299C153.762 228.697 153.921 227.803 153.921 226.625V225.648Z" fill="white"/>
<path d="M161.274 233.572V211.789H164.173V233.572H161.274Z" fill="white"/>
<path d="M178.086 233.572V211.789H182.782L188.363 227.213C188.881 228.65 189.257 229.728 189.491 230.438C189.759 229.644 190.176 228.483 190.744 226.946L196.392 211.789H200.595V233.572H197.587V215.34L190.736 233.572H187.92L181.102 215.022V233.572H178.086Z" fill="white"/>
<path d="M216.414 231.623C215.344 232.466 214.308 233.06 213.314 233.402C212.319 233.745 211.258 233.92 210.122 233.92C208.242 233.92 206.805 233.494 205.794 232.65C204.783 231.806 204.281 230.72 204.281 229.4C204.281 228.622 204.474 227.921 204.85 227.286C205.234 226.643 205.727 226.133 206.345 225.749C206.964 225.364 207.657 225.072 208.426 224.871C208.994 224.729 209.855 224.595 210.999 224.47C213.339 224.211 215.06 223.902 216.163 223.551C216.172 223.183 216.18 222.95 216.18 222.849C216.18 221.763 215.904 220.995 215.361 220.543C214.617 219.941 213.522 219.641 212.061 219.641C210.698 219.641 209.696 219.858 209.044 220.301C208.393 220.744 207.916 221.52 207.607 222.64L204.775 222.281C205.034 221.162 205.451 220.259 206.044 219.565C206.638 218.88 207.49 218.345 208.601 217.978C209.721 217.61 211.008 217.418 212.478 217.418C213.949 217.418 215.118 217.577 216.029 217.895C216.94 218.212 217.609 218.613 218.043 219.089C218.469 219.574 218.77 220.176 218.945 220.911C219.046 221.37 219.087 222.189 219.087 223.375V226.943C219.087 229.433 219.146 231.004 219.271 231.664C219.396 232.324 219.639 232.951 220.007 233.561H216.982C216.681 233.009 216.489 232.358 216.405 231.614L216.414 231.623ZM216.172 225.648C215.118 226.041 213.54 226.383 211.442 226.659C210.256 226.818 209.412 226.993 208.919 227.194C208.426 227.394 208.042 227.679 207.775 228.063C207.507 228.447 207.373 228.865 207.373 229.333C207.373 230.043 207.666 230.645 208.25 231.113C208.835 231.589 209.687 231.823 210.816 231.823C211.943 231.823 212.921 231.597 213.79 231.146C214.659 230.695 215.294 230.077 215.704 229.299C216.013 228.698 216.172 227.804 216.172 226.626V225.648Z" fill="white"/>
<path d="M223.555 233.572V217.789H226.162V220.178C226.831 219.059 227.44 218.324 228.001 217.965C228.56 217.605 229.187 217.43 229.855 217.43C230.833 217.43 231.827 217.714 232.83 218.291L231.836 220.772C231.125 220.388 230.423 220.196 229.713 220.196C229.079 220.196 228.511 220.37 228.009 220.722C227.508 221.073 227.148 221.557 226.931 222.184C226.605 223.136 226.447 224.172 226.447 225.309V233.572H223.547H223.555Z" fill="white"/>
<path d="M234.578 211.789H237.477V224.213L244.329 217.796H248.08L241.547 223.654L248.741 233.58H245.172L239.524 225.508L237.477 227.322V233.58H234.578V211.789Z" fill="white"/>
<path d="M262.721 228.484L265.712 228.826C265.244 230.439 264.368 231.692 263.088 232.587C261.811 233.48 260.181 233.923 258.201 233.923C255.703 233.923 253.722 233.213 252.26 231.792C250.798 230.372 250.063 228.376 250.063 225.81C250.063 223.245 250.806 221.098 252.285 219.627C253.764 218.165 255.686 217.43 258.042 217.43C260.398 217.43 262.194 218.148 263.64 219.585C265.085 221.022 265.813 223.045 265.813 225.651C265.813 225.81 265.813 226.044 265.796 226.362H253.054C253.163 228.1 253.689 229.42 254.65 230.347C255.602 231.266 256.798 231.726 258.218 231.726C259.278 231.726 260.189 231.467 260.933 230.957C261.685 230.439 262.278 229.62 262.721 228.492V228.484ZM253.213 224.156H262.755C262.628 222.827 262.262 221.833 261.66 221.164C260.741 220.137 259.537 219.619 258.076 219.619C256.747 219.619 255.628 220.028 254.725 220.855C253.822 221.674 253.313 222.777 253.221 224.156H253.213Z" fill="white"/>
<path d="M275.677 231.174L276.095 233.538C275.277 233.697 274.549 233.772 273.907 233.772C272.854 233.772 272.043 233.622 271.458 233.313C270.881 233.004 270.472 232.603 270.239 232.102C270.005 231.6 269.888 230.547 269.888 228.943V219.86H267.766V217.781H269.888V213.87L272.77 212.266V217.781H275.677V219.86H272.77V229.093C272.77 229.854 272.821 230.347 272.921 230.564C273.02 230.781 273.188 230.957 273.421 231.082C273.655 231.208 273.982 231.274 274.407 231.274C274.734 231.274 275.151 231.241 275.677 231.174Z" fill="white"/>
<path d="M277.352 228.86L280.219 228.442C280.377 229.503 280.828 230.314 281.563 230.882C282.299 231.45 283.326 231.726 284.646 231.726C285.967 231.726 286.962 231.475 287.604 230.973C288.248 230.473 288.573 229.887 288.573 229.211C288.573 228.609 288.29 228.133 287.721 227.782C287.322 227.548 286.334 227.239 284.765 226.88C282.642 226.387 281.172 225.952 280.345 225.593C279.525 225.233 278.898 224.733 278.481 224.089C278.054 223.454 277.846 222.744 277.846 221.975C277.846 221.273 278.022 220.621 278.372 220.019C278.722 219.418 279.192 218.925 279.792 218.524C280.244 218.215 280.854 217.956 281.631 217.747C282.407 217.538 283.242 217.43 284.129 217.43C285.465 217.43 286.644 217.605 287.663 217.965C288.683 218.324 289.426 218.8 289.911 219.41C290.395 220.019 290.728 220.83 290.906 221.858L288.073 222.217C287.947 221.407 287.571 220.772 286.953 220.312C286.334 219.853 285.465 219.627 284.337 219.627C283.009 219.627 282.056 219.827 281.489 220.237C280.919 220.646 280.637 221.123 280.637 221.666C280.637 222.017 280.753 222.326 280.987 222.601C281.221 222.886 281.597 223.128 282.098 223.312C282.39 223.412 283.242 223.638 284.655 223.997C286.703 224.498 288.132 224.916 288.942 225.242C289.752 225.568 290.387 226.036 290.847 226.645C291.305 227.264 291.541 228.024 291.541 228.935C291.541 229.846 291.256 230.665 290.696 231.45C290.135 232.236 289.318 232.845 288.256 233.28C287.195 233.714 285.993 233.923 284.655 233.923C282.432 233.923 280.744 233.497 279.583 232.645C278.423 231.792 277.678 230.531 277.352 228.851V228.86Z" fill="white"/>
</svg>
