<svg width="344" height="336" viewBox="0 0 344 336" fill="none" xmlns="http://www.w3.org/2000/svg">
<path d="M22.008 13.7971H344.008V335.797H22.008V13.7971Z" fill="#998656"/>
<path d="M144.747 168.177L143.991 171.203L83.4531 156.079L84.2085 153.053L144.747 168.177Z" fill="white"/>
<path d="M148.254 154.566V169.934H145.135V154.566H148.254Z" fill="white"/>
<path d="M170.611 154.566V169.934H167.492V154.566H170.611Z" fill="white"/>
<path d="M280.983 152.797V171.284H82.2672V152.797H280.983ZM85.3862 168.165H277.864V155.916H85.3862V168.165Z" fill="white"/>
<path d="M279.8 156.081L218.506 171.277L217.754 168.249L279.049 153.053L279.8 156.081Z" fill="white"/>
<path d="M218.116 154.566V169.934H214.997V154.566H218.116Z" fill="white"/>
<path d="M195.759 154.566V169.934H192.64V154.566H195.759Z" fill="white"/>
<path d="M100.436 183.557V174.462H99.1776C98.9686 175.258 98.7586 175.887 97.7948 175.887C96.5794 175.887 94.6103 174.503 91.2552 174.503C83.2944 174.503 81.9948 180.204 81.9948 182.76C81.9948 184.688 81.9948 188.294 89.1613 191.73L91.9695 193.071C94.6934 194.371 96.6636 195.376 96.6636 198.185C96.6636 198.73 96.4547 202.878 91.4247 202.878C86.1015 202.878 83.6729 198.143 82.8338 193.91H81.6174V204.261H82.8328C83.0002 203.589 83.2102 202.837 84.0898 202.837C85.3894 202.837 87.2743 204.261 91.2552 204.261C98.9686 204.261 101.652 199.191 101.652 195.503C101.652 190.933 98.4654 188.503 97.04 187.79L90.8778 184.732C87.3564 182.97 86.5611 182.047 86.5611 179.785C86.5611 177.06 88.8671 175.803 91.0452 175.803C95.992 175.803 98.508 180.623 99.2607 183.557H100.436Z" fill="white"/>
<path d="M135.258 202.416C133.037 202.122 131.57 201.956 131.57 199.442V179.157C131.57 176.431 133.455 176.308 135.258 176.182V175.134H121.007V176.182C122.852 176.308 124.78 176.391 124.78 179.157V187.831H114.68V179.157C114.68 176.39 116.608 176.308 118.451 176.182V175.134H104.328V176.182C106.088 176.35 107.891 176.432 107.891 179.157V199.442C107.891 201.915 106.55 202.122 104.328 202.416V203.464H118.451V202.416C116.229 202.166 114.68 201.998 114.68 199.442V189.803H124.78V199.442C124.78 201.998 123.229 202.166 121.007 202.416V203.464H135.258V202.416Z" fill="white"/>
<path d="M165.437 175.132H156.216V176.18C159.821 176.348 160.324 177.772 160.324 180.329V193.111C160.324 195.793 160.24 202.206 152.863 202.206C146.829 202.206 146.829 196.421 146.829 194.032V180.035C146.829 176.348 148.127 176.307 150.892 176.18V175.132H136.728V176.18C139.075 176.43 140.166 176.515 140.166 180.035V194.032C140.166 198.56 141.255 200.027 143.057 201.62C145.782 204.009 149.719 204.261 151.564 204.261C154.078 204.261 157.725 203.463 159.82 201.201C161.58 199.316 162.167 195.584 162.167 193.112V179.743C162.167 176.976 163.132 176.516 165.437 176.181V175.132Z" fill="white"/>
<path d="M166.985 203.463H176.499V202.415C173.396 202.08 172.517 201.283 172.517 198.267V181.502H172.601L191.251 204.218H192.424V179.533C192.424 177.521 192.675 176.557 195.694 176.181V175.133H186.682V176.181C190.079 176.431 190.581 177.814 190.581 180.33V193.029H190.497L175.954 175.132H167.111V176.18C167.654 176.18 168.326 176.306 170.673 179.196V199.062C170.673 201.828 169.499 202.12 166.985 202.415V203.463Z" fill="white"/>
<path d="M226.87 202.416C223.769 202.207 222.763 202.122 222.763 198.561V176.473C225.655 176.641 229.972 176.85 230.809 183.556H232.025L231.943 175.132H206.795L206.671 183.556H207.887C208.722 176.85 213.04 176.641 215.973 176.473V198.561C215.973 202.081 214.966 202.166 211.908 202.416V203.464H226.871L226.87 202.416Z" fill="white"/>
<path fill-rule="evenodd" clip-rule="evenodd" d="M233.1 193.574L237.041 183.39L241.272 193.574H233.1ZM254.056 202.418C252.043 202.502 251.373 201.077 249.485 196.592L240.141 174.547H238.969L229.664 197.516C228.407 200.656 227.82 202.083 225.556 202.418V203.466H234.065V202.418C232.64 202.333 230.626 202.209 230.626 200.615C230.626 199.944 231.298 198.227 232.471 195.209H241.9C242.486 196.552 243.827 199.652 243.827 200.783C243.827 202.167 243.075 202.209 240.475 202.418V203.466H254.056V202.418Z" fill="white"/>
<path d="M282.617 202.417C281.779 202.376 281.193 202.292 280.564 201.537L267.78 185.694C274.822 178.486 276.835 176.432 281.235 176.182V175.134H269.122V176.182C272.137 176.35 272.684 176.6 272.684 177.565C272.684 178.361 272.307 178.738 271.176 179.871L262.083 189.006V180.037C262.083 176.432 263.505 176.35 265.812 176.182V175.134H251.645V176.182C253.573 176.308 255.292 176.391 255.292 179.157V199.442C255.292 201.998 253.951 202.166 251.645 202.416V203.464H265.769V202.416C263.548 202.122 262.083 201.956 262.083 199.442V191.227L263.214 190.179L270.841 199.691C271.513 200.49 271.845 200.992 271.845 201.535C271.845 202.207 271.092 202.332 268.535 202.416V203.464H282.617V202.417Z" fill="white"/>
<path d="M0 0V57.6L28.8 28.8V0H0Z" fill="white"/>
<path d="M46.0001 0V57.6L74.8001 28.8V0H46.0001Z" fill="white"/>
</svg>
