<svg width="344" height="336" viewBox="0 0 344 336" fill="none" xmlns="http://www.w3.org/2000/svg">
<path d="M344.001 14.0002H22.0002V336.003H344.001V14.0002Z" fill="#FFE850"/>
<path d="M68.9338 315.499C52.4641 315.499 41.2971 307.064 41.2971 291.4V290.797H50.3376V291.197C50.3376 301.439 57.7668 307.469 69.0124 307.469C75.0377 307.469 86.4854 304.857 86.4854 295.213C86.4854 276.539 43.5067 289.793 43.5067 263.082C43.5067 249.625 56.0409 243.6 68.492 243.6C83.1527 243.6 93.1135 252.032 93.1135 265.692V266.295H84.0775V265.692C84.0775 256.855 77.85 251.632 67.8055 251.632C60.7762 251.632 52.542 254.644 52.542 262.682C52.542 280.155 95.5208 267.899 95.5208 294.813C95.5208 309.071 82.1854 315.499 68.9338 315.499ZM157.51 313.492C156.709 311.483 156.138 304.654 156.138 301.444V264.486C156.138 249.825 147.139 243.6 131.47 243.6C117.012 243.6 104.358 250.028 104.358 265.895V266.497H113.399V265.895C113.399 255.648 121.031 251.636 130.472 251.636C141.717 251.636 146.937 255.648 146.937 264.688C146.937 271.714 143.526 272.52 137.096 273.323L133.685 273.728C117.818 275.533 101.547 277.342 101.547 295.414C101.547 307.867 109.984 315.499 124.046 315.499C136.295 315.499 144.125 310.079 147.54 302.645C147.54 302.645 147.54 309.876 148.543 313.491L157.51 313.492ZM146.937 287.181C146.937 292.403 145.132 297.225 141.717 300.841C137.501 305.055 131.471 307.467 124.645 307.467C118.02 307.467 110.587 303.851 110.587 295.216C110.587 284.772 121.832 282.364 133.883 280.954L140.309 280.153C142.122 279.955 145.533 279.348 146.937 278.146L146.937 287.181ZM215.822 245.607H206.155L187.706 303.131L169.059 245.607H158.587L182.688 313.49H192.53L215.822 245.607ZM231.191 227.74C231.191 224.152 228.24 221.411 224.867 221.411C221.492 221.411 218.542 224.152 218.542 227.529C218.542 231.115 221.492 233.853 224.867 233.853C228.24 233.853 231.191 231.115 231.191 227.529V227.74ZM229.685 313.49V245.607H220.244V313.49H229.685ZM248.36 313.49V219.899H238.923V313.49H248.36ZM266.846 313.49V219.899H257.405V313.49H266.846ZM299.896 315.499C313.157 315.499 326.488 309.071 326.488 294.813C326.488 267.899 283.311 280.155 283.311 262.682C283.311 254.644 291.541 251.632 298.769 251.632C308.812 251.632 315.04 256.854 315.04 265.692V266.295H324.076V265.692C324.076 252.033 314.114 243.6 299.256 243.6C286.8 243.6 274.271 249.625 274.271 263.082C274.271 289.793 317.447 276.539 317.447 295.213C317.447 304.857 305.802 307.469 299.781 307.469C288.729 307.469 281.097 301.44 281.097 291.197V290.797H272.057V291.4C272.057 307.064 283.228 315.499 299.896 315.499Z" fill="#CE171E"/>
<path d="M0 0V57.6L28.8 28.8V0H0Z" fill="white"/>
<path d="M46.0001 0V57.6L74.8001 28.8V0H46.0001Z" fill="white"/>
</svg>
