<svg width="431" height="201" viewBox="0 0 431 201" fill="none" xmlns="http://www.w3.org/2000/svg">
<path d="M230.724 199.759H231.973V49.3621H230.724V199.759Z" fill="white"/>
<path d="M317.173 44.6219C320.718 38.7753 336.955 38.7753 354.643 38.7753H403.32L431 0C317.68 28.9303 289.02 55.9453 289.02 78.8947C289.02 91.7302 298.168 102.348 309.072 111.185C343.74 139.947 355.149 147.306 355.149 160.645C355.149 180.067 314.608 196.934 299.924 198.749C315.35 195.187 324.735 187.593 328.853 178.084C333.849 165.383 322.709 155.068 303.941 155.068C285.172 155.068 265.897 165.383 260.868 178.084C255.77 190.685 266.977 201 286.759 201C327.334 201 386.07 163.132 386.07 132.354C386.07 118.006 378.036 107.926 356.398 90.2518C330.608 69.0497 311.333 54.7021 317.173 44.6219Z" fill="white"/>
<path d="M27.4074 53.6958H24.5718V85.4821H27.4074V53.6958Z" fill="white"/>
<path d="M50.1947 85.4821H54.4818V53.6958H51.7138V81.4164L42.3295 53.6958H38.0424V85.4821H40.8104V57.6943L50.1947 85.4821Z" fill="white"/>
<path d="M120.947 56.7198H123.445C127.057 56.7198 128.542 58.7023 128.542 63.8096C128.542 69.0513 127.057 71.3026 123.445 71.3026H120.947V56.7198ZM120.947 74.3938H123.682C129.049 74.3938 131.581 70.7986 131.581 63.8096C131.581 56.7198 129.319 53.6958 123.682 53.6958H118.179V85.4821H120.947V74.3938Z" fill="white"/>
<path d="M85.501 111.691H87.999C91.5097 111.691 93.0287 113.943 93.0287 119.016C93.0287 124.023 91.5097 126.375 87.999 126.375H85.501V111.691ZM85.501 129.6H87.999C93.265 129.6 96.1343 125.871 96.1343 118.781C96.1343 111.691 93.535 108.936 87.999 108.936H82.6317V140.454H85.501V129.6Z" fill="white"/>
<path d="M170.878 71.0674V56.7198H173.41C176.988 56.7198 178.507 58.7023 178.507 63.5408C178.507 68.0433 176.988 71.0674 173.41 71.0674H170.878ZM183.537 85.4821L177.258 73.1506C180.262 71.5714 181.511 67.8081 181.511 63.3056C181.511 56.955 179.013 53.6958 173.41 53.6958H168.11V85.4821H170.878V73.8898H174.389L180.026 85.4821H183.537Z" fill="white"/>
<path d="M28.9306 181.311V166.661H31.4285C35.0405 166.661 36.5595 168.979 36.5595 173.482C36.5595 178.32 35.0405 181.311 31.4285 181.311H28.9306ZM41.5892 195.658L35.3105 183.327C38.0448 181.815 39.5638 178.085 39.5638 173.482C39.5638 167.232 37.0659 163.905 31.4285 163.905H26.1625V195.658H28.9306V184.066H32.4412L38.0448 195.658H41.5892Z" fill="white"/>
<path d="M169.622 181.311V166.661H172.12C175.665 166.661 177.251 168.979 177.251 173.482C177.251 178.32 175.665 181.311 172.12 181.311H169.622ZM182.281 195.658L176.002 183.327C178.736 181.815 180.255 178.085 180.255 173.482C180.255 167.232 177.757 163.905 172.12 163.905H166.854V195.658H169.622V184.066H173.133L178.736 195.658H182.281Z" fill="white"/>
<path d="M206.421 82.3908H196.531V70.2946H204.835V67.5393H196.531V56.7198H206.421V53.6958H193.661V85.4821H206.421V82.3908Z" fill="white"/>
<path d="M113.049 192.668H102.922V180.571H111.564V177.581H102.922V166.661H113.049V163.905H100.154V195.658H113.049V192.668Z" fill="white"/>
<path d="M149.105 82.8925C144.751 82.8925 143.738 79.398 143.738 69.553C143.738 59.708 144.751 56.2135 149.105 56.2135C153.122 56.2135 154.135 59.708 154.135 69.553C154.135 79.398 153.122 82.8925 149.105 82.8925ZM149.105 85.7486C155.958 85.7486 157.207 79.6332 157.207 69.553C157.207 59.4728 155.958 53.4582 149.105 53.4582C141.983 53.4582 140.7 59.4728 140.7 69.553C140.7 79.6332 141.983 85.7486 149.105 85.7486Z" fill="white"/>
<path d="M8.1353 193.169C4.05077 193.169 3.03808 189.675 3.03808 179.83C3.03808 169.985 4.05077 166.39 8.1353 166.39C12.4224 166.39 13.4351 169.985 13.4351 179.83C13.4351 189.675 12.4224 193.169 8.1353 193.169ZM8.1353 195.925C15.2579 195.925 16.5069 189.675 16.5069 179.83C16.5069 169.716 15.2579 163.399 8.1353 163.399C1.28275 163.399 0 169.716 0 179.83C0 189.675 1.28275 195.925 8.1353 195.925Z" fill="white"/>
<path d="M141.979 137.967C137.962 137.967 136.949 134.372 136.949 124.527C136.949 114.749 137.962 111.187 141.979 111.187C146.333 111.187 147.346 114.749 147.346 124.527C147.346 134.372 146.333 137.967 141.979 137.967ZM141.979 140.957C149.101 140.957 150.35 134.607 150.35 124.527C150.35 114.749 149.101 108.432 141.979 108.432C135.092 108.432 133.843 114.749 133.843 124.527C133.843 134.607 135.092 140.957 141.979 140.957Z" fill="white"/>
<path d="M95.8687 74.8979L99.4131 58.4671L103.16 74.8979H95.8687ZM105.523 85.4821H108.291L101.168 53.9646V53.6958H97.8941L90.5014 85.4821H93.5395L95.0585 77.6531H103.666L105.523 85.4821Z" fill="white"/>
<path d="M193.929 184.837L197.541 168.473L201.052 184.837H193.929ZM203.55 195.421H206.419L199.027 164.138V163.903H196.022L188.63 195.421H191.398L193.153 187.827H201.795L203.55 195.421Z" fill="white"/>
<path d="M10.397 123.787L6.65002 121.536C3.54443 119.755 3.27438 118.781 3.27438 115.757C3.27438 113.673 4.28707 111.187 7.62896 111.187C10.667 111.187 12.1523 113.942 12.1523 118.277L15.0216 117.773C15.0216 113.438 13.6714 108.432 7.62896 108.432C2.53173 108.432 0.270052 111.926 0.270052 116.026C0.270052 120.259 1.78909 122.275 4.52336 124.023L8.40535 126.106C11.1734 127.853 12.1523 129.096 12.1523 132.356C12.1523 134.607 11.4097 137.967 7.89901 137.967C4.05077 137.967 2.76803 134.607 2.76803 131.112L5.10987e-07 131.616C5.10987e-07 136.959 2.26168 140.957 7.89901 140.957C12.4224 140.957 15.2579 137.463 15.2579 132.356C15.2579 128.861 14.414 126.106 10.397 123.787Z" fill="white"/>
<path d="M131.818 178.822L128.071 176.739C124.966 174.991 124.695 173.748 124.695 170.993C124.695 168.742 125.539 166.39 129.05 166.39C131.818 166.39 133.573 168.977 133.337 173.244L136.443 172.74C136.443 168.473 134.856 163.634 129.05 163.634C123.953 163.634 121.691 166.894 121.691 170.993C121.691 175.495 123.21 177.243 126.046 179.057L129.826 181.308C132.594 182.82 133.573 184.332 133.573 187.592C133.573 189.675 132.831 193.169 129.05 193.169C125.539 193.169 124.189 189.91 124.189 186.315H123.953L121.185 186.584C121.421 191.926 123.446 195.925 129.05 195.925C133.843 195.925 136.679 192.665 136.679 187.323C136.679 183.828 135.666 181.073 131.818 178.822Z" fill="white"/>
<path d="M119.163 108.667V122.511H109.779V108.667H107.011V140.454H109.779V125.367H119.163V140.454H121.931V108.667H119.163Z" fill="white"/>
<path d="M85.9772 163.903V177.579H76.863V163.903H73.7574V195.421H76.863V180.569H85.9772V195.421H89.0153V163.903H85.9772Z" fill="white"/>
<path d="M37.3036 108.667L31.7 125.367L26.164 108.667H22.8221L30.181 129.096V140.454H33.1853V129.096L40.578 108.667H37.3036Z" fill="white"/>
<path d="M203.314 108.667L197.541 125.367L191.668 108.667H188.63L196.022 129.096V140.454H199.027V129.096L206.419 108.667H203.314Z" fill="white"/>
<path d="M66.4692 108.667L60.0892 130.105L53.9793 108.667H50.1986V140.454H52.9666V114.749L59.1103 135.716H61.1019L67.4819 114.749V140.454H70.2499V108.667H66.4692Z" fill="white"/>
<path d="M158.727 163.905H142.726V166.896H149.342V195.658H152.11V166.896H158.727V163.905Z" fill="white"/>
<path d="M74.2628 72.8123H78.6174V77.1468C78.6174 80.9101 77.3684 82.8925 73.9927 82.8925C69.7394 82.8925 68.4904 79.6332 68.4904 69.553C68.4904 59.4728 69.4694 56.2135 73.7564 56.2135C77.6047 56.2135 78.3473 59.204 78.6174 63.0344L81.6217 62.7992C81.1154 58.4647 80.1364 53.4582 73.7564 53.4582C66.9714 53.4582 65.4524 58.9687 65.4524 69.3178C65.4524 79.398 66.7013 85.7486 73.7564 85.7486C79.1237 85.7486 81.6217 83.1613 81.6217 75.9036V69.7882H74.2628V72.8123Z" fill="white"/>
<path d="M10.397 68.545L6.65002 66.5625C3.54443 64.7817 3.27438 63.5385 3.27438 60.716C3.27438 58.6999 4.28707 56.2135 7.62896 56.2135C10.667 56.2135 12.1523 58.9687 12.1523 63.0344L15.0216 62.7992C15.0216 58.4647 13.6714 53.4582 7.62896 53.4582C2.53173 53.4582 0.270052 56.9527 0.270052 60.716C0.270052 65.2857 1.78909 67.0665 4.52336 68.8138L8.40535 71.065C11.1734 72.8123 12.1523 74.1563 12.1523 77.382C12.1523 79.398 11.4097 82.8925 7.89901 82.8925C4.05077 82.8925 2.76803 79.6332 2.76803 76.1388L5.10987e-07 76.4076C5.10987e-07 81.6493 2.26168 85.7486 7.89901 85.7486C12.4224 85.7486 15.2579 82.3885 15.2579 77.382C15.2579 73.6523 14.414 70.7962 10.397 68.545Z" fill="white"/>
<path d="M61.6033 186.315C61.367 191.153 60.0843 192.934 57.0799 192.934C52.7254 192.934 51.7127 189.675 51.7127 179.83C51.7127 169.985 52.7254 166.39 57.0799 166.39C60.0843 166.39 61.367 168.473 61.6033 173.244L64.6076 172.74C64.1013 166.894 62.1097 163.399 57.0799 163.399C49.9573 163.399 48.7083 169.716 48.7083 179.83C48.7083 189.675 49.9573 195.925 57.0799 195.925C62.1097 195.925 64.1013 192.43 64.6076 186.584L61.6033 186.315Z" fill="white"/>
<path d="M174.151 140.454H178.742V108.936H175.67V136.455L166.353 108.936H161.998V140.454H165.003V112.934L174.151 140.454Z" fill="white"/>
</svg>
