<svg width="474" height="138" viewBox="0 0 474 138" fill="none" xmlns="http://www.w3.org/2000/svg">
<path fill-rule="evenodd" clip-rule="evenodd" d="M0 48.0069L39.9879 98.2444L0 131.245V48.0069Z" fill="white"/>
<path fill-rule="evenodd" clip-rule="evenodd" d="M16.0951 131.247L46.184 106.178L66.9807 131.247H16.0951Z" fill="white"/>
<path fill-rule="evenodd" clip-rule="evenodd" d="M0 21.1257L10.4354 34.2722L53.3416 87.6684L67.2449 76.6421C67.2449 76.6421 55.7027 63.1089 47.9526 48.0072C32.8003 18.4816 43.5278 0.0989461 43.5278 0.0989461H0V21.1257Z" fill="white"/>
<path fill-rule="evenodd" clip-rule="evenodd" d="M59.4668 95.914L73.6263 84.2661C73.6263 84.2661 87.1496 101.995 102.83 106.18C123.379 111.663 132.477 98.2473 132.477 98.2473V131.248H87.3433L97.5205 122.485C97.5205 122.485 92.2107 126.01 79.2245 117.052C71.5598 111.764 59.4668 95.914 59.4668 95.914Z" fill="white"/>
<path fill-rule="evenodd" clip-rule="evenodd" d="M60.7677 0C60.7677 0 56.2506 6.12833 59.4659 21.1229C62.9027 37.1501 76.5707 54.113 76.5389 53.7332C76.5389 53.7332 77.4177 36.8898 87.3424 27.0055C108.497 5.93694 132.476 18.4788 132.476 18.4788V0.0961573L60.7677 0Z" fill="white"/>
<path fill-rule="evenodd" clip-rule="evenodd" d="M132.459 40.6915C132.459 40.6915 119.081 29.2791 107.45 29.2791C92.5708 29.2791 84.4494 42.072 84.4494 51.352C84.4494 64.8689 90.9639 72.3795 97.5027 78.8916C106.899 88.2499 118.331 98.3431 132.459 90.2195C132.459 74.8447 132.459 40.6915 132.459 40.6915Z" fill="white"/>
<path fill-rule="evenodd" clip-rule="evenodd" d="M284.816 1.37625H316.385C316.385 1.37625 344.352 43.5489 358.096 60.9729C371.84 78.3969 386.634 98.2433 386.634 98.2433C386.634 98.2433 386.634 40.6908 386.634 10.8208C386.634 7.04507 376.68 1.37625 376.68 1.37625H413.084C413.084 1.37625 401.139 6.26388 401.139 10.8208C401.139 48.0058 401.139 138 401.139 138C401.139 138 389.677 131.67 376.68 116.628C362.077 99.7283 310.128 31.498 310.128 31.498C310.128 31.498 310.128 95.91 310.128 119.872C310.128 124.398 320.082 131.244 320.082 131.244H284.816C284.816 131.244 294.486 124.343 294.486 119.872C294.486 87.667 294.486 40.6908 294.486 10.8208C294.486 6.80746 284.816 1.37625 284.816 1.37625Z" fill="white"/>
<path fill-rule="evenodd" clip-rule="evenodd" d="M433.483 1.37625H474C474 1.37625 463.12 6.50868 463.12 10.8208C463.12 40.6908 463.12 90.2188 463.12 119.872C463.12 124.584 474 131.244 474 131.244H433.483C433.483 131.244 443.612 124.432 443.612 119.872C443.612 84.2622 443.612 40.6908 443.612 10.8208C443.612 6.67505 433.483 1.37625 433.483 1.37625Z" fill="white"/>
<path fill-rule="evenodd" clip-rule="evenodd" d="M165.611 1.37625C165.611 1.37625 176.116 6.59254 176.116 10.8208C176.116 40.6908 176.116 84.2622 176.116 119.872C176.116 124.508 165.611 131.244 165.611 131.244C165.611 131.244 218.089 131.244 225.637 131.244C229.388 131.244 271.406 124.401 271.406 92.1393C271.406 59.8773 238.767 56.8564 238.767 56.8564C238.767 56.8564 258.651 51.3513 258.651 29.2784C258.651 5.48618 229.388 1.37625 225.637 1.37625C217.84 1.37625 165.611 1.37625 165.611 1.37625ZM197.5 54.7184V14.1178C197.5 14.1178 214.899 14.1178 221.885 14.1178C225.637 14.1178 238.767 18.4802 238.767 34.6653C238.767 48.0058 225.637 54.7184 221.885 54.7184C213.38 54.7184 197.5 54.7184 197.5 54.7184ZM197.5 65.367C197.5 65.367 221.885 65.367 225.637 65.367C229.388 65.367 251.523 71.0929 251.523 90.2188C251.523 109.718 229.388 116.628 225.637 116.628C221.885 116.628 197.5 116.628 197.5 116.628V65.367Z" fill="white"/>
</svg>
