<svg width="442" height="240" viewBox="0 0 442 240" fill="none" xmlns="http://www.w3.org/2000/svg">
<path d="M39.6665 108.727C39.6329 118.489 36.8673 132.213 13.2085 139.159L6.02484 141.267V168.191L20.1392 164.044C49.3797 155.462 65.5009 135.719 65.5009 108.475V5.07491L39.6665 12.6617V108.727Z" fill="white"/>
<path d="M164.382 95.921C192.847 87.5587 208.513 68.3559 208.513 41.8189C208.513 17.9625 189.593 6.32939 171.801 6.32939C153.101 6.32939 113.321 20.3734 113.321 62.5732V126.403C113.321 150.26 132.241 161.893 150.032 161.893C168.75 161.893 208.513 147.866 208.513 105.666V98.4501L183.91 105.666C183.91 130.973 158.21 137.295 150.133 137.295C143.218 137.295 137.923 134.209 137.923 126.403V103.71L164.382 95.9381V95.921ZM137.923 62.5562C137.923 37.2498 163.623 30.9276 171.7 30.9276C178.615 30.9276 183.927 33.9791 183.927 41.802C183.927 51.5467 181.161 65.3043 157.469 72.2839L137.942 78.0332V62.5562H137.923Z" fill="white"/>
<path d="M280.858 59.4807C280.858 49.7356 283.64 36.0121 307.316 29.066L314.482 26.9416V0L300.369 4.1306C271.128 12.7458 255.024 32.4884 255.024 59.7337V163.15L280.858 155.563V59.4807Z" fill="white"/>
<path d="M405.271 6.32939C386.573 6.32939 346.791 20.3735 346.791 62.5727V69.8057L371.393 62.5727C371.393 37.2667 397.095 30.9443 405.172 30.9443C412.085 30.9443 417.363 33.996 417.363 41.8189V64.512L390.922 72.284C362.456 80.6462 346.808 99.8494 346.808 126.37C346.808 150.226 365.712 161.859 383.519 161.859C402.219 161.859 442 147.832 442 105.632V41.8189C442 17.9625 423.079 6.32939 405.289 6.32939H405.271ZM417.345 105.649C417.345 130.956 391.662 137.278 383.585 137.278C376.672 137.278 371.393 134.192 371.393 126.386C371.393 116.642 374.141 102.884 397.854 95.9211L417.345 90.1722V105.649Z" fill="white"/>
<path d="M23.8613 222.011V216.852L44.0294 216.818V233.138C40.9266 235.414 37.7396 237.133 34.4511 238.28C31.1628 239.426 27.7903 240 24.3164 240C19.6454 240 15.396 239.072 11.568 237.218C7.74013 235.363 4.85654 232.7 2.9173 229.193C0.961192 225.703 0 221.791 0 217.476C0 213.159 0.961192 209.197 2.90044 205.489C4.83968 201.779 7.62209 199.031 11.2645 197.227C14.907 195.423 19.0889 194.529 23.8274 194.529C27.2675 194.529 30.3871 195.052 33.1695 196.081C35.952 197.109 38.1273 198.542 39.7122 200.38C41.2975 202.217 42.4949 204.611 43.321 207.578L37.6383 209.012C36.9301 206.769 36.0362 205.016 34.974 203.734C33.9115 202.453 32.3938 201.425 30.4209 200.666C28.4479 199.891 26.2726 199.52 23.8613 199.52C20.9777 199.52 18.4987 199.925 16.3909 200.734C14.283 201.542 12.5967 202.605 11.3151 203.92C10.0335 205.235 9.02173 206.685 8.31345 208.269C7.09934 210.984 6.49227 213.935 6.49227 217.122C6.49227 221.033 7.21738 224.32 8.68446 226.95C10.1515 229.597 12.2763 231.553 15.0587 232.834C17.8579 234.116 20.809 234.757 23.9623 234.757C26.6942 234.757 29.3585 234.267 31.9555 233.307C34.5524 232.345 36.5253 231.3 37.8574 230.204V222.011H23.8613Z" fill="white"/>
<path d="M52.4451 239.254V195.301H58.2966V239.254H52.4451Z" fill="white"/>
<path d="M65.1844 223.325C65.1844 217.424 66.9549 213.058 70.5132 210.225C73.4811 207.864 77.0899 206.685 81.3561 206.685C86.0945 206.685 89.9732 208.118 92.9746 210.984C95.9764 213.85 97.4939 217.811 97.4939 222.87C97.4939 226.966 96.8195 230.187 95.5042 232.547C94.172 234.891 92.2329 236.728 89.6863 238.027C87.1401 239.324 84.3744 239.982 81.3561 239.982C76.5334 239.982 72.621 238.549 69.6531 235.699C66.6683 232.834 65.1844 228.719 65.1844 223.342V223.325ZM71.1876 223.325C71.1876 227.405 72.1489 230.456 74.0711 232.479C75.9938 234.503 78.4221 235.531 81.3392 235.531C84.2565 235.531 86.651 234.52 88.5736 232.479C90.4959 230.439 91.4572 227.337 91.4572 223.157C91.4572 219.211 90.4959 216.227 88.5566 214.204C86.6175 212.18 84.2061 211.152 81.3392 211.152C78.4725 211.152 75.9938 212.163 74.0711 214.187C72.1489 216.21 71.1876 219.261 71.1876 223.342V223.325Z" fill="white"/>
<path d="M109.719 239.254H104.289V195.301H110.14V210.98C112.602 208.114 115.756 206.698 119.584 206.698C121.708 206.698 123.715 207.085 125.604 207.877C127.492 208.671 129.061 209.783 130.275 211.2C131.506 212.632 132.45 214.352 133.141 216.376C133.833 218.398 134.187 220.556 134.187 222.849C134.187 228.312 132.72 232.526 129.803 235.511C126.885 238.496 123.378 239.979 119.28 239.979C115.182 239.979 112.012 238.41 109.702 235.274V239.271L109.719 239.254ZM109.651 223.086C109.651 226.913 110.208 229.66 111.338 231.363C113.176 234.145 115.671 235.528 118.808 235.528C121.354 235.528 123.563 234.499 125.435 232.459C127.29 230.403 128.234 227.351 128.234 223.304C128.234 219.259 127.341 216.072 125.553 214.099C123.766 212.127 121.607 211.132 119.078 211.132C116.548 211.132 114.323 212.161 112.45 214.201C110.595 216.257 109.651 219.208 109.651 223.086Z" fill="white"/>
<path d="M163.808 235.322C161.649 237.025 159.558 238.222 157.551 238.913C155.545 239.604 153.404 239.958 151.11 239.958C147.315 239.958 144.415 239.099 142.374 237.396C140.335 235.693 139.323 233.501 139.323 230.837C139.323 229.27 139.711 227.854 140.469 226.572C141.245 225.273 142.24 224.246 143.489 223.469C144.736 222.694 146.135 222.105 147.686 221.699C148.834 221.414 150.571 221.144 152.88 220.89C157.603 220.368 161.077 219.744 163.302 219.036C163.319 218.294 163.336 217.822 163.336 217.62C163.336 215.427 162.779 213.877 161.683 212.967C160.183 211.752 157.974 211.145 155.022 211.145C152.273 211.145 150.25 211.583 148.935 212.477C147.619 213.371 146.657 214.939 146.035 217.199L140.317 216.474C140.84 214.214 141.683 212.393 142.881 210.994C144.078 209.611 145.798 208.532 148.042 207.791C150.284 207.049 152.897 206.661 155.866 206.661C158.833 206.661 161.194 206.981 163.032 207.621C164.87 208.262 166.219 209.071 167.097 210.033C167.956 211.011 168.564 212.224 168.918 213.709C169.119 214.635 169.205 216.288 169.205 218.682V225.881C169.205 230.904 169.322 234.075 169.576 235.406C169.828 236.738 170.318 238.003 171.059 239.233H164.954C164.348 238.121 163.96 236.805 163.791 235.305L163.808 235.322ZM163.319 223.268C161.194 224.06 158.024 224.751 153.775 225.308C151.38 225.629 149.677 225.981 148.681 226.387C147.686 226.791 146.911 227.365 146.372 228.14C145.832 228.916 145.562 229.758 145.562 230.703C145.562 232.136 146.152 233.349 147.333 234.294C148.513 235.255 150.234 235.727 152.51 235.727C154.787 235.727 156.759 235.272 158.513 234.361C160.267 233.451 161.549 232.203 162.374 230.636C162.999 229.421 163.319 227.617 163.319 225.24V223.268Z" fill="white"/>
<path d="M178.158 239.254V195.301H184.009V239.254H178.158Z" fill="white"/>
<path d="M212.088 239.254V195.301H221.565L232.83 226.423C233.874 229.323 234.634 231.499 235.106 232.932C235.646 231.33 236.488 228.987 237.635 225.885L249.034 195.301H257.517V239.254H251.445V202.466L237.618 239.254H231.935L218.175 201.825V239.254H212.088Z" fill="white"/>
<path d="M289.444 235.323C287.286 237.025 285.195 238.223 283.187 238.914C281.18 239.605 279.039 239.96 276.746 239.96C272.952 239.96 270.051 239.099 268.011 237.396C265.97 235.694 264.958 233.501 264.958 230.838C264.958 229.27 265.347 227.854 266.106 226.573C266.881 225.274 267.876 224.246 269.124 223.471C270.372 222.695 271.772 222.105 273.323 221.701C274.469 221.414 276.206 221.144 278.517 220.89C283.238 220.368 286.712 219.744 288.937 219.036C288.955 218.294 288.972 217.823 288.972 217.62C288.972 215.429 288.415 213.878 287.319 212.967C285.819 211.752 283.609 211.146 280.658 211.146C277.909 211.146 275.885 211.584 274.571 212.479C273.255 213.371 272.294 214.939 271.67 217.199L265.953 216.474C266.477 214.215 267.319 212.393 268.516 210.994C269.714 209.611 271.434 208.532 273.677 207.791C275.936 207.049 278.534 206.661 281.501 206.661C284.47 206.661 286.829 206.982 288.669 207.623C290.506 208.264 291.856 209.073 292.732 210.034C293.593 211.011 294.199 212.225 294.553 213.709C294.756 214.636 294.84 216.288 294.84 218.682V225.882C294.84 230.906 294.959 234.075 295.211 235.407C295.464 236.74 295.953 238.003 296.696 239.235H290.59C289.984 238.121 289.595 236.807 289.427 235.305L289.444 235.323ZM288.955 223.268C286.829 224.061 283.644 224.751 279.41 225.308C277.016 225.629 275.313 225.983 274.318 226.387C273.323 226.791 272.547 227.365 272.008 228.14C271.468 228.916 271.198 229.759 271.198 230.703C271.198 232.137 271.788 233.35 272.968 234.295C274.148 235.255 275.869 235.728 278.146 235.728C280.422 235.728 282.395 235.272 284.149 234.362C285.903 233.451 287.184 232.204 288.011 230.636C288.635 229.422 288.955 227.618 288.955 225.241V223.268Z" fill="white"/>
<path d="M303.856 239.257V207.41H309.118V212.231C310.467 209.972 311.697 208.489 312.828 207.764C313.958 207.039 315.222 206.685 316.571 206.685C318.545 206.685 320.55 207.257 322.574 208.421L320.568 213.428C319.134 212.653 317.717 212.265 316.284 212.265C315.003 212.265 313.857 212.618 312.845 213.328C311.833 214.036 311.108 215.013 310.669 216.278C310.012 218.199 309.692 220.29 309.692 222.583V239.257H303.84H303.856Z" fill="white"/>
<path d="M326.103 195.301H331.954V220.371L345.783 207.423H353.354L340.167 219.242L354.686 239.271H347.485L336.086 222.984L331.954 226.643V239.271H326.103V195.301Z" fill="white"/>
<path d="M382.906 228.989L388.943 229.681C387.997 232.934 386.229 235.463 383.647 237.268C381.068 239.072 377.779 239.965 373.783 239.965C368.741 239.965 364.744 238.532 361.794 235.666C358.842 232.8 357.358 228.771 357.358 223.595C357.358 218.419 358.858 214.086 361.844 211.118C364.828 208.168 368.708 206.685 373.463 206.685C378.217 206.685 381.843 208.135 384.76 211.034C387.676 213.934 389.146 218.014 389.146 223.274C389.146 223.595 389.146 224.066 389.112 224.707H363.395C363.615 228.214 364.677 230.879 366.615 232.75C368.539 234.604 370.951 235.531 373.817 235.531C375.957 235.531 377.795 235.008 379.297 233.98C380.815 232.934 382.012 231.283 382.906 229.006V228.989ZM363.715 220.256H382.973C382.719 217.576 381.978 215.569 380.763 214.22C378.91 212.147 376.479 211.101 373.53 211.101C370.848 211.101 368.59 211.928 366.768 213.596C364.946 215.249 363.918 217.474 363.732 220.256H363.715Z" fill="white"/>
<path d="M409.053 234.415L409.897 239.187C408.247 239.508 406.777 239.659 405.481 239.659C403.355 239.659 401.72 239.355 400.538 238.732C399.375 238.108 398.549 237.299 398.078 236.288C397.607 235.276 397.37 233.152 397.37 229.915V211.587H393.087V207.391H397.37V199.5L403.186 196.263V207.391H409.053V211.587H403.186V230.217C403.186 231.752 403.289 232.747 403.492 233.185C403.691 233.623 404.03 233.977 404.502 234.231C404.973 234.484 405.632 234.618 406.491 234.618C407.15 234.618 407.992 234.551 409.053 234.415Z" fill="white"/>
<path d="M412.432 229.748L418.218 228.905C418.538 231.047 419.448 232.682 420.932 233.828C422.417 234.975 424.49 235.531 427.154 235.531C429.82 235.531 431.827 235.025 433.123 234.013C434.423 233.003 435.08 231.822 435.08 230.456C435.08 229.243 434.509 228.281 433.36 227.573C432.553 227.102 430.56 226.478 427.393 225.753C423.11 224.758 420.141 223.88 418.473 223.157C416.818 222.431 415.552 221.42 414.712 220.122C413.85 218.84 413.43 217.407 413.43 215.856C413.43 214.44 413.784 213.125 414.491 211.91C415.198 210.697 416.145 209.702 417.356 208.893C418.27 208.269 419.5 207.747 421.069 207.326C422.634 206.903 424.321 206.685 426.111 206.685C428.807 206.685 431.186 207.039 433.242 207.764C435.301 208.489 436.8 209.45 437.78 210.68C438.755 211.91 439.429 213.546 439.787 215.62L434.071 216.345C433.816 214.71 433.057 213.428 431.809 212.501C430.56 211.574 428.807 211.118 426.531 211.118C423.849 211.118 421.927 211.522 420.782 212.349C419.632 213.175 419.062 214.136 419.062 215.232C419.062 215.94 419.297 216.564 419.769 217.12C420.241 217.694 420.999 218.182 422.011 218.553C422.6 218.756 424.321 219.211 427.172 219.936C431.305 220.947 434.188 221.791 435.823 222.449C437.459 223.105 438.74 224.05 439.669 225.28C440.593 226.528 441.069 228.062 441.069 229.9C441.069 231.738 440.494 233.39 439.363 234.975C438.232 236.56 436.582 237.79 434.439 238.667C432.299 239.544 429.872 239.965 427.172 239.965C422.686 239.965 419.279 239.106 416.936 237.386C414.594 235.666 413.091 233.12 412.432 229.731V229.748Z" fill="white"/>
</svg>
