<svg width="757" height="111" viewBox="0 0 757 111" fill="none" xmlns="http://www.w3.org/2000/svg">
<foreignObject x="-139.315" y="-139.315" width="1034.88" height="389.57"><div xmlns="http://www.w3.org/1999/xhtml" style="backdrop-filter:blur(69.66px);clip-path:url(#bgblur_0_1485_102_clip_path);height:100%;width:100%"></div></foreignObject><g data-figma-bg-blur-radius="139.315">
<path d="M0.238196 109.316V33.3636H8.8314L11.049 45.4218H11.6034C13.1742 41.2638 16.0386 37.9836 20.1966 35.5812C24.3546 33.1788 29.3904 31.9776 35.304 31.9776C40.848 31.9776 45.5604 32.9478 49.4412 34.8882C53.4144 36.7362 56.4636 39.6006 58.5888 43.4814C60.714 47.3622 61.7766 52.398 61.7766 58.5888V109.316H49.4412V59.2818C49.4412 53.7378 48.0552 49.5336 45.2832 46.6692C42.5112 43.8048 38.3994 42.3726 32.9478 42.3726C28.605 42.3726 24.909 43.389 21.8598 45.4218C18.8106 47.4546 16.5006 50.2266 14.9298 53.7378C13.359 57.1566 12.5736 61.0374 12.5736 65.3802V109.316H0.238196ZM1.40872 21.3054V15.9L11.5265 11.4648H60.3137V21.3054H1.40872ZM48.8099 15.9V0.238193H60.4523V15.9H48.8099ZM120.872 110.702C114.959 110.702 109.83 109.547 105.488 107.237C101.237 104.835 98.3266 101.509 96.7558 97.2582H96.2014L95.5084 109.316H85.3906V33.3636H97.726V77.2998C97.726 81.9198 98.5114 85.9854 100.082 89.4966C101.745 92.9154 104.102 95.595 107.151 97.5354C110.292 99.3834 114.035 100.307 118.377 100.307C123.829 100.307 127.895 98.8752 130.574 96.0108C133.254 93.1464 134.594 88.9422 134.594 83.3982V33.3636H146.929V84.2298C146.929 90.3282 145.866 95.3178 143.741 99.1986C141.708 103.079 138.752 105.99 134.871 107.93C130.99 109.778 126.324 110.702 120.872 110.702ZM181.892 109.316L158.191 33.3636H170.665L191.178 98.6442H192.841C195.059 98.6442 197.23 98.136 199.356 97.1196C201.481 96.0108 203.283 94.6248 204.761 92.9616C207.533 89.9124 209.566 86.0778 210.859 81.4578C212.153 76.7454 212.8 72.1254 212.8 67.5978C212.8 59.9286 211.044 53.9226 207.533 49.5798C204.114 45.1446 199.356 42.927 193.257 42.927C192.056 42.927 190.855 43.0194 189.654 43.2042C188.545 43.389 187.621 43.62 186.882 43.8972L183.832 34.0566C185.773 33.5022 187.575 33.1326 189.238 32.9478C190.993 32.763 192.564 32.6706 193.95 32.6706C198.57 32.6706 202.682 33.3636 206.286 34.7496C209.982 36.0432 213.123 37.9836 215.71 40.5708C218.944 43.7124 221.301 47.6394 222.779 52.3518C224.35 57.0642 225.135 62.2848 225.135 68.0136C225.135 75.2208 224.026 81.6426 221.809 87.279C219.591 92.823 216.819 97.2582 213.493 100.585C210.813 103.264 207.533 105.389 203.652 106.96C199.771 108.531 194.828 109.316 188.822 109.316H181.892ZM265.344 109.316V55.401C265.344 50.8734 264.282 47.547 262.156 45.4218C260.124 43.2966 256.659 42.234 251.761 42.234C248.435 42.234 245.293 42.696 242.337 43.62C239.472 44.4516 236.7 45.6528 234.021 47.2236V36.1356C235.869 35.2116 238.502 34.2876 241.921 33.3636C245.34 32.4396 249.405 31.9776 254.118 31.9776C258.922 31.9776 263.08 32.6706 266.592 34.0566C270.103 35.4426 272.829 37.7526 274.769 40.9866C276.709 44.1282 277.68 48.3324 277.68 53.5992V109.316H265.344ZM326.363 110.702C320.911 110.702 316.199 109.778 312.226 107.93C308.345 105.99 305.342 103.079 303.217 99.1986C301.184 95.3178 300.168 90.282 300.168 84.0912V33.3636H312.503V83.3982C312.503 88.9422 313.889 93.1464 316.661 96.0108C319.525 98.8752 323.637 100.307 328.996 100.307C335.464 100.307 340.454 98.2284 343.965 94.0704C347.569 89.9124 349.371 84.3222 349.371 77.2998V33.3636H361.706V109.316H351.45L350.895 98.0898H350.202C348.539 101.786 345.628 104.835 341.47 107.237C337.405 109.547 332.369 110.702 326.363 110.702ZM411.918 110.702C403.233 110.702 396.487 108.623 391.683 104.465C386.97 100.215 384.614 93.8856 384.614 85.4772V77.0226C384.614 72.4026 385.261 68.7528 386.554 66.0732C387.848 63.3936 389.234 61.0836 390.712 59.1432C392.283 57.018 393.623 55.17 394.732 53.5992C395.933 52.0284 396.534 50.1342 396.534 47.9166C396.534 45.9762 396.025 44.5902 395.009 43.7586C394.085 42.927 392.884 42.5112 391.405 42.5112C390.297 42.5112 389.095 42.696 387.802 43.0656C386.601 43.4352 385.399 43.8972 384.198 44.4516L381.426 35.5812C383.089 34.4724 385.122 33.687 387.525 33.225C390.019 32.763 392.191 32.532 394.039 32.532C397.458 32.532 400.183 33.1326 402.216 34.3338C404.341 35.535 405.866 37.1982 406.79 39.3234C407.714 41.3562 408.176 43.7586 408.176 46.5306C408.176 49.9494 407.575 52.7676 406.374 54.9852C405.265 57.2028 403.926 59.3742 402.355 61.4994C400.784 63.8094 399.49 66.027 398.474 68.1522C397.458 70.2774 396.949 73.0494 396.949 76.4682V84.6456C396.949 88.896 397.642 92.1762 399.028 94.4862C400.414 96.7962 402.262 98.4132 404.572 99.3372C406.882 100.169 409.331 100.585 411.918 100.585C416.538 100.585 420.049 99.522 422.452 97.3968C424.947 95.1792 426.194 91.8066 426.194 87.279V33.3636H438.529V87.972C438.529 95.0868 436.266 100.677 431.738 104.743C427.303 108.716 420.696 110.702 411.918 110.702ZM487.854 110.702C477.874 110.702 470.39 108.115 465.4 102.941C460.503 97.674 458.055 89.4504 458.055 78.27C458.055 76.422 458.101 74.4354 458.193 72.3102C458.378 70.0926 458.563 67.9212 458.748 65.796H487.854V75.498H470.39V78.27C470.39 84.0912 471.037 88.665 472.33 91.9914C473.624 95.2254 475.518 97.4892 478.013 98.7828C480.6 100.076 483.788 100.723 487.576 100.723C491.734 100.723 495.338 99.9378 498.387 98.367C501.436 96.7962 503.793 93.9318 505.456 89.7738C507.119 85.6158 507.951 79.656 507.951 71.8944C507.951 65.0568 507.211 59.4666 505.733 55.1238C504.255 50.781 501.806 47.547 498.387 45.4218C495.061 43.2966 490.533 42.234 484.804 42.234C481.848 42.234 478.983 42.5112 476.211 43.0656C473.439 43.5276 470.76 44.2668 468.172 45.2832C465.585 46.2072 463.044 47.4084 460.549 48.8868V37.383C462.397 36.3666 464.661 35.4888 467.341 34.7496C470.02 33.918 472.977 33.2712 476.211 32.8092C479.445 32.2548 482.818 31.9776 486.329 31.9776C494.46 31.9776 501.021 33.6408 506.01 36.9672C511.092 40.2012 514.788 44.8212 517.098 50.8272C519.408 56.7408 520.563 63.7632 520.563 71.8944C520.563 80.0256 519.501 87.0018 517.375 92.823C515.25 98.6442 511.785 103.079 506.98 106.129C502.268 109.178 495.892 110.702 487.854 110.702ZM553.026 109.316L529.325 33.3636H541.799L562.312 98.6442H563.975C566.193 98.6442 568.364 98.136 570.49 97.1196C572.615 96.0108 574.417 94.6248 575.895 92.9616C578.667 89.9124 580.7 86.0778 581.993 81.4578C583.287 76.7454 583.934 72.1254 583.934 67.5978C583.934 59.9286 582.178 53.9226 578.667 49.5798C575.248 45.1446 570.49 42.927 564.391 42.927C563.19 42.927 561.989 43.0194 560.788 43.2042C559.679 43.389 558.755 43.62 558.016 43.8972L554.966 34.0566C556.907 33.5022 558.709 33.1326 560.372 32.9478C562.127 32.763 563.698 32.6706 565.084 32.6706C569.704 32.6706 573.816 33.3636 577.42 34.7496C581.116 36.0432 584.257 37.9836 586.844 40.5708C590.078 43.7124 592.435 47.6394 593.913 52.3518C595.484 57.0642 596.269 62.2848 596.269 68.0136C596.269 75.2208 595.16 81.6426 592.943 87.279C590.725 92.823 587.953 97.2582 584.627 100.585C581.947 103.264 578.667 105.389 574.786 106.96C570.905 108.531 565.962 109.316 559.956 109.316H553.026ZM632.182 110.702C629.687 110.702 627.284 110.287 624.974 109.455C622.664 108.623 620.77 107.145 619.292 105.02C617.813 102.895 617.074 99.9378 617.074 96.1494V33.3636H629.41V94.6248C629.41 96.75 629.872 98.2746 630.796 99.1986C631.72 100.123 633.198 100.585 635.231 100.585C636.062 100.585 636.94 100.492 637.864 100.307C638.788 100.123 639.666 99.8916 640.498 99.6144L642.161 108.623C640.405 109.455 638.696 110.009 637.033 110.287C635.369 110.564 633.752 110.702 632.182 110.702ZM675.862 110.702C670.411 110.702 665.329 110.194 660.616 109.178C655.996 108.069 652.069 106.775 648.835 105.297L652.439 95.3178C654.379 96.057 656.597 96.8424 659.092 97.674C661.587 98.5056 664.266 99.1986 667.131 99.753C670.087 100.215 673.09 100.446 676.14 100.446C681.037 100.446 685.102 99.522 688.336 97.674C691.57 95.826 693.187 93.1464 693.187 89.6352C693.187 87.51 692.587 85.7082 691.386 84.2298C690.277 82.659 688.521 81.2268 686.119 79.9332C683.716 78.6396 680.621 77.3922 676.833 76.191C671.011 74.343 666.068 72.4026 662.002 70.3698C658.029 68.2446 654.98 65.7498 652.855 62.8854C650.822 59.9286 649.806 56.2788 649.806 51.936C649.806 48.0552 650.822 44.6364 652.855 41.6796C654.98 38.6304 658.214 36.2742 662.557 34.611C666.992 32.8554 672.628 31.9776 679.466 31.9776C683.901 31.9776 688.059 32.3934 691.94 33.225C695.913 33.9642 699.009 35.0268 701.226 36.4128V46.8078C699.655 46.0686 697.669 45.3294 695.266 44.5902C692.956 43.851 690.415 43.2504 687.643 42.7884C684.871 42.3264 682.007 42.0954 679.05 42.0954C672.859 42.0954 668.47 43.0656 665.883 45.006C663.388 46.854 662.141 48.9792 662.141 51.3816C662.141 53.4144 662.695 55.1238 663.804 56.5098C665.005 57.8958 666.992 59.2356 669.764 60.5292C672.628 61.8228 676.463 63.3012 681.268 64.9644C685.703 66.4428 689.769 68.1522 693.465 70.0926C697.161 72.033 700.071 74.4816 702.196 77.4384C704.414 80.3028 705.523 83.9988 705.523 88.5264C705.523 92.4072 704.553 96.057 702.612 99.4758C700.764 102.802 697.669 105.528 693.326 107.653C688.983 109.686 683.162 110.702 675.862 110.702ZM743.677 109.316V55.401C743.677 50.8734 742.614 47.547 740.489 45.4218C738.456 43.2966 734.991 42.234 730.094 42.234C726.768 42.234 723.626 42.696 720.669 43.62C717.805 44.4516 715.033 45.6528 712.353 47.2236V36.1356C714.201 35.2116 716.835 34.2876 720.253 33.3636C723.672 32.4396 727.738 31.9776 732.45 31.9776C737.255 31.9776 741.413 32.6706 744.924 34.0566C748.435 35.4426 751.161 37.7526 753.102 40.9866C755.042 44.1282 756.012 48.3324 756.012 53.5992V109.316H743.677Z" fill="url(#paint0_radial_1485_102)" fill-opacity="0.43"/>
<path d="M0.238196 109.316H0.000196061V109.554H0.238196V109.316ZM0.238196 33.3636V33.1256H0.000196061V33.3636H0.238196ZM8.8314 33.3636L9.06547 33.3205L9.02962 33.1256H8.8314V33.3636ZM11.049 45.4218L10.8149 45.4648L10.8508 45.6598H11.049V45.4218ZM11.6034 45.4218V45.6598H11.7679L11.826 45.5059L11.6034 45.4218ZM20.1966 35.5812L20.3157 35.7873L20.3157 35.7873L20.1966 35.5812ZM49.4412 34.8882L49.3347 35.1012L49.3408 35.104L49.4412 34.8882ZM58.5888 43.4814L58.38 43.5957L58.38 43.5957L58.5888 43.4814ZM61.7766 109.316V109.554H62.0146V109.316H61.7766ZM49.4412 109.316H49.2032V109.554H49.4412V109.316ZM21.8598 45.4218L21.7278 45.2238L21.7278 45.2238L21.8598 45.4218ZM14.9298 53.7378L15.1461 53.8372L15.147 53.835L14.9298 53.7378ZM12.5736 109.316V109.554H12.8116V109.316H12.5736ZM0.238196 109.316H0.476196V33.3636H0.238196H0.000196061V109.316H0.238196ZM0.238196 33.3636V33.6016H8.8314V33.3636V33.1256H0.238196V33.3636ZM8.8314 33.3636L8.59732 33.4066L10.8149 45.4648L11.049 45.4218L11.2831 45.3788L9.06547 33.3205L8.8314 33.3636ZM11.049 45.4218V45.6598H11.6034V45.4218V45.1838H11.049V45.4218ZM11.6034 45.4218L11.826 45.5059C13.3758 41.4036 16.2011 38.1646 20.3157 35.7873L20.1966 35.5812L20.0775 35.3751C15.8761 37.8026 12.9726 41.124 11.3808 45.3377L11.6034 45.4218ZM20.1966 35.5812L20.3157 35.7873C24.43 33.4101 29.4226 32.2156 35.304 32.2156V31.9776V31.7396C29.3582 31.7396 24.2792 32.9475 20.0775 35.3751L20.1966 35.5812ZM35.304 31.9776V32.2156C40.821 32.2156 45.4949 33.1811 49.3348 35.1011L49.4412 34.8882L49.5476 34.6753C45.6259 32.7145 40.875 31.7396 35.304 31.7396V31.9776ZM49.4412 34.8882L49.3408 35.104C53.2675 36.9304 56.279 39.759 58.38 43.5957L58.5888 43.4814L58.7975 43.3671C56.6482 39.4422 53.5613 36.542 49.5416 34.6724L49.4412 34.8882ZM58.5888 43.4814L58.38 43.5957C60.4799 47.4303 61.5386 52.4229 61.5386 58.5888H61.7766H62.0146C62.0146 52.3731 60.9481 47.2941 58.7975 43.3671L58.5888 43.4814ZM61.7766 58.5888H61.5386V109.316H61.7766H62.0146V58.5888H61.7766ZM61.7766 109.316V109.078H49.4412V109.316V109.554H61.7766V109.316ZM49.4412 109.316H49.6792V59.2818H49.4412H49.2032V109.316H49.4412ZM49.4412 59.2818H49.6792C49.6792 53.7005 48.2836 49.4274 45.4542 46.5037L45.2832 46.6692L45.1122 46.8347C47.8268 49.6398 49.2032 53.7751 49.2032 59.2818H49.4412ZM45.2832 46.6692L45.4542 46.5037C42.6229 43.578 38.4395 42.1346 32.9478 42.1346V42.3726V42.6106C38.3593 42.6106 42.3995 44.0316 45.1122 46.8347L45.2832 46.6692ZM32.9478 42.3726V42.1346C28.5669 42.1346 24.8228 43.1604 21.7278 45.2238L21.8598 45.4218L21.9918 45.6198C24.9951 43.6176 28.6431 42.6106 32.9478 42.6106V42.3726ZM21.8598 45.4218L21.7278 45.2238C18.6393 47.2827 16.3007 50.0906 14.7125 53.6406L14.9298 53.7378L15.147 53.835C16.7005 50.3626 18.9819 47.6265 21.9918 45.6198L21.8598 45.4218ZM14.9298 53.7378L14.7135 53.6384C13.1264 57.0929 12.3356 61.0084 12.3356 65.3802H12.5736H12.8116C12.8116 61.0664 13.5916 57.2203 15.1461 53.8372L14.9298 53.7378ZM12.5736 65.3802H12.3356V109.316H12.5736H12.8116V65.3802H12.5736ZM12.5736 109.316V109.078H0.238196V109.316V109.554H12.5736V109.316ZM1.40872 21.3054H1.17072V21.5434H1.40872V21.3054ZM1.40872 15.9L1.31317 15.682L1.17072 15.7445V15.9H1.40872ZM11.5265 11.4648V11.2268H11.4766L11.431 11.2468L11.5265 11.4648ZM60.3137 11.4648H60.5517V11.2268H60.3137V11.4648ZM60.3137 21.3054V21.5434H60.5517V21.3054H60.3137ZM48.8099 15.9H48.5719V16.138H48.8099V15.9ZM48.8099 0.238193V0.000193114H48.5719V0.238193H48.8099ZM60.4523 0.238193H60.6903V0.000193114H60.4523V0.238193ZM60.4523 15.9V16.138H60.6903V15.9H60.4523ZM1.40872 21.3054H1.64672V15.9H1.40872H1.17072V21.3054H1.40872ZM1.40872 15.9L1.50427 16.118L11.6221 11.6828L11.5265 11.4648L11.431 11.2468L1.31317 15.682L1.40872 15.9ZM11.5265 11.4648V11.7028H60.3137V11.4648V11.2268H11.5265V11.4648ZM60.3137 11.4648H60.0757V21.3054H60.3137H60.5517V11.4648H60.3137ZM60.3137 21.3054V21.0674H1.40872V21.3054V21.5434H60.3137V21.3054ZM48.8099 15.9H49.0479V0.238193H48.8099H48.5719V15.9H48.8099ZM48.8099 0.238193V0.476193H60.4523V0.238193V0.000193114H48.8099V0.238193ZM60.4523 0.238193H60.2143V15.9H60.4523H60.6903V0.238193H60.4523ZM60.4523 15.9V15.662H48.8099V15.9V16.138H60.4523V15.9ZM105.488 107.237L105.37 107.445L105.376 107.448L105.488 107.237ZM96.7558 97.2582L96.979 97.1757L96.9216 97.0202H96.7558V97.2582ZM96.2014 97.2582V97.0202H95.9767L95.9638 97.2445L96.2014 97.2582ZM95.5084 109.316V109.554H95.7331L95.746 109.33L95.5084 109.316ZM85.3906 109.316H85.1526V109.554H85.3906V109.316ZM85.3906 33.3636V33.1256H85.1526V33.3636H85.3906ZM97.726 33.3636H97.964V33.1256H97.726V33.3636ZM100.082 89.4966L99.8648 89.5938L99.8682 89.6007L100.082 89.4966ZM107.151 97.5354L107.023 97.7363L107.03 97.7405L107.151 97.5354ZM130.574 96.0108L130.748 96.1734L130.748 96.1734L130.574 96.0108ZM134.594 33.3636V33.1256H134.356V33.3636H134.594ZM146.929 33.3636H147.167V33.1256H146.929V33.3636ZM143.741 99.1986L143.532 99.0843L143.53 99.0882L143.741 99.1986ZM134.871 107.93L134.973 108.145L134.977 108.143L134.871 107.93ZM120.872 110.702V110.464C114.99 110.464 109.901 109.316 105.599 107.027L105.488 107.237L105.376 107.448C109.759 109.779 114.927 110.94 120.872 110.94V110.702ZM105.488 107.237L105.605 107.03C101.399 104.653 98.5287 101.369 96.979 97.1757L96.7558 97.2582L96.5325 97.3407C98.1244 101.648 101.075 105.017 105.37 107.445L105.488 107.237ZM96.7558 97.2582V97.0202H96.2014V97.2582V97.4962H96.7558V97.2582ZM96.2014 97.2582L95.9638 97.2445L95.2708 109.303L95.5084 109.316L95.746 109.33L96.439 97.2719L96.2014 97.2582ZM95.5084 109.316V109.078H85.3906V109.316V109.554H95.5084V109.316ZM85.3906 109.316H85.6286V33.3636H85.3906H85.1526V109.316H85.3906ZM85.3906 33.3636V33.6016H97.726V33.3636V33.1256H85.3906V33.3636ZM97.726 33.3636H97.488V77.2998H97.726H97.964V33.3636H97.726ZM97.726 77.2998H97.488C97.488 81.9467 98.278 86.0465 99.8649 89.5938L100.082 89.4966L100.299 89.3994C98.7448 85.9243 97.964 81.8929 97.964 77.2998H97.726ZM100.082 89.4966L99.8682 89.6007C101.55 93.057 103.935 95.7709 107.023 97.7362L107.151 97.5354L107.279 97.3346C104.268 95.4191 101.941 92.7739 100.296 89.3925L100.082 89.4966ZM107.151 97.5354L107.03 97.7405C110.215 99.6139 114 100.545 118.377 100.545V100.307V100.069C114.069 100.069 110.37 99.153 107.271 97.3303L107.151 97.5354ZM118.377 100.307V100.545C123.868 100.545 128.008 99.1023 130.748 96.1734L130.574 96.0108L130.4 95.8482C127.781 98.6481 123.79 100.069 118.377 100.069V100.307ZM130.574 96.0108L130.748 96.1734C133.483 93.2495 134.832 88.9776 134.832 83.3982H134.594H134.356C134.356 88.9068 133.024 93.0433 130.4 95.8482L130.574 96.0108ZM134.594 83.3982H134.832V33.3636H134.594H134.356V83.3982H134.594ZM134.594 33.3636V33.6016H146.929V33.3636V33.1256H134.594V33.3636ZM146.929 33.3636H146.691V84.2298H146.929H147.167V33.3636H146.929ZM146.929 84.2298H146.691C146.691 90.3026 145.633 95.2493 143.532 99.0843L143.741 99.1986L143.95 99.3129C146.1 95.3863 147.167 90.3538 147.167 84.2298H146.929ZM143.741 99.1986L143.53 99.0882C141.52 102.925 138.6 105.8 134.764 107.718L134.871 107.93L134.977 108.143C138.903 106.18 141.896 103.234 143.952 99.309L143.741 99.1986ZM134.871 107.93L134.768 107.716C130.927 109.545 126.298 110.464 120.872 110.464V110.702V110.94C126.35 110.94 131.053 110.012 134.973 108.145L134.871 107.93ZM181.892 109.316L181.665 109.387L181.717 109.554H181.892V109.316ZM158.191 33.3636V33.1256H157.868L157.964 33.4345L158.191 33.3636ZM170.665 33.3636L170.892 33.2923L170.84 33.1256H170.665V33.3636ZM191.178 98.6442L190.951 98.7156L191.003 98.8822H191.178V98.6442ZM199.356 97.1196L199.458 97.3344L199.466 97.3306L199.356 97.1196ZM204.761 92.9616L204.585 92.8015L204.583 92.8035L204.761 92.9616ZM210.859 81.4578L211.089 81.522L211.089 81.5208L210.859 81.4578ZM207.533 49.5798L207.344 49.7251L207.348 49.7294L207.533 49.5798ZM189.654 43.2042L189.617 42.9689L189.614 42.9694L189.654 43.2042ZM186.882 43.8972L186.654 43.9676L186.729 44.2086L186.965 44.12L186.882 43.8972ZM183.832 34.0566L183.767 33.8278L183.533 33.8946L183.605 34.127L183.832 34.0566ZM189.238 32.9478L189.213 32.7111L189.211 32.7113L189.238 32.9478ZM206.286 34.7496L206.2 34.9718L206.207 34.9742L206.286 34.7496ZM215.71 40.5708L215.542 40.7391L215.544 40.7415L215.71 40.5708ZM222.779 52.3518L222.552 52.4231L222.553 52.4271L222.779 52.3518ZM221.809 87.279L222.03 87.3674L222.03 87.3661L221.809 87.279ZM213.493 100.585L213.661 100.753L213.661 100.753L213.493 100.585ZM203.652 106.96L203.563 106.74L203.652 106.96ZM181.892 109.316L182.119 109.246L158.419 33.2927L158.191 33.3636L157.964 33.4345L181.665 109.387L181.892 109.316ZM158.191 33.3636V33.6016H170.665V33.3636V33.1256H158.191V33.3636ZM170.665 33.3636L170.438 33.4349L190.951 98.7156L191.178 98.6442L191.405 98.5729L170.892 33.2923L170.665 33.3636ZM191.178 98.6442V98.8822H192.841V98.6442V98.4062H191.178V98.6442ZM192.841 98.6442V98.8822C195.097 98.8822 197.303 98.3651 199.458 97.3343L199.356 97.1196L199.253 96.9049C197.158 97.9069 195.021 98.4062 192.841 98.4062V98.6442ZM199.356 97.1196L199.466 97.3306C201.614 96.2095 203.44 94.8061 204.939 93.1197L204.761 92.9616L204.583 92.8035C203.125 94.4435 201.347 95.8121 199.245 96.9086L199.356 97.1196ZM204.761 92.9616L204.937 93.1217C207.738 90.0409 209.787 86.1718 211.089 81.522L210.859 81.4578L210.63 81.3936C209.345 85.9838 207.328 89.7839 204.585 92.8015L204.761 92.9616ZM210.859 81.4578L211.089 81.5208C212.388 76.7895 213.038 72.1483 213.038 67.5978H212.8H212.562C212.562 72.1025 211.918 76.7013 210.63 81.3948L210.859 81.4578ZM212.8 67.5978H213.038C213.038 59.8943 211.274 53.8287 207.718 49.4302L207.533 49.5798L207.348 49.7294C210.814 54.0165 212.562 59.9629 212.562 67.5978H212.8ZM207.533 49.5798L207.721 49.4345C204.253 44.9351 199.422 42.689 193.257 42.689V42.927V43.165C199.289 43.165 203.975 45.3541 207.344 49.7251L207.533 49.5798ZM193.257 42.927V42.689C192.044 42.689 190.83 42.7823 189.617 42.969L189.654 43.2042L189.69 43.4394C190.879 43.2565 192.068 43.165 193.257 43.165V42.927ZM189.654 43.2042L189.614 42.9694C188.496 43.1558 187.556 43.39 186.798 43.6744L186.882 43.8972L186.965 44.12C187.685 43.85 188.593 43.6222 189.693 43.439L189.654 43.2042ZM186.882 43.8972L187.109 43.8268L184.06 33.9862L183.832 34.0566L183.605 34.127L186.654 43.9676L186.882 43.8972ZM183.832 34.0566L183.898 34.2854C185.828 33.734 187.616 33.3674 189.264 33.1843L189.238 32.9478L189.211 32.7113C187.533 32.8978 185.718 33.2704 183.767 33.8278L183.832 34.0566ZM189.238 32.9478L189.263 33.1845C191.012 33.0003 192.574 32.9086 193.95 32.9086V32.6706V32.4326C192.554 32.4326 190.975 32.5257 189.213 32.7111L189.238 32.9478ZM193.95 32.6706V32.9086C198.547 32.9086 202.629 33.5981 206.2 34.9717L206.286 34.7496L206.371 34.5275C202.735 33.1291 198.594 32.4326 193.95 32.4326V32.6706ZM206.286 34.7496L206.207 34.9742C209.872 36.2569 212.982 38.1789 215.542 40.7391L215.71 40.5708L215.879 40.4025C213.264 37.7883 210.091 35.8295 206.364 34.525L206.286 34.7496ZM215.71 40.5708L215.544 40.7415C218.747 43.853 221.084 47.7447 222.552 52.423L222.779 52.3518L223.006 52.2806C221.517 47.5341 219.141 43.5718 215.876 40.4001L215.71 40.5708ZM222.779 52.3518L222.553 52.4271C224.115 57.1118 224.897 62.3065 224.897 68.0136H225.135H225.373C225.373 62.2631 224.585 57.0166 223.005 52.2765L222.779 52.3518ZM225.135 68.0136H224.897C224.897 75.1965 223.792 81.5879 221.587 87.1919L221.809 87.279L222.03 87.3661C224.261 81.6973 225.373 75.2451 225.373 68.0136H225.135ZM221.809 87.279L221.588 87.1906C219.379 92.7124 216.623 97.118 213.324 100.416L213.493 100.585L213.661 100.753C217.015 97.3985 219.803 92.9336 222.03 87.3674L221.809 87.279ZM213.493 100.585L213.324 100.416C210.67 103.071 207.417 105.18 203.563 106.74L203.652 106.96L203.741 107.181C207.649 105.599 210.957 103.457 213.661 100.753L213.493 100.585ZM203.652 106.96L203.563 106.74C199.72 108.295 194.81 109.078 188.822 109.078V109.316V109.554C194.846 109.554 199.823 108.767 203.741 107.181L203.652 106.96ZM188.822 109.316V109.078H181.892V109.316V109.554H188.822V109.316ZM265.344 109.316H265.106V109.554H265.344V109.316ZM262.156 45.4218L261.984 45.5864L261.988 45.5901L262.156 45.4218ZM242.337 43.62L242.403 43.8486L242.408 43.8472L242.337 43.62ZM234.021 47.2236H233.783V47.639L234.141 47.4289L234.021 47.2236ZM234.021 36.1356L233.914 35.9227L233.783 35.9885V36.1356H234.021ZM266.592 34.0566L266.679 33.8352L266.679 33.8352L266.592 34.0566ZM274.769 40.9866L274.565 41.1091L274.567 41.1117L274.769 40.9866ZM277.68 109.316V109.554H277.918V109.316H277.68ZM265.344 109.316H265.582V55.401H265.344H265.106V109.316H265.344ZM265.344 55.401H265.582C265.582 50.8418 264.513 47.4416 262.325 45.2535L262.156 45.4218L261.988 45.5901C264.051 47.6524 265.106 50.905 265.106 55.401H265.344ZM262.156 45.4218L262.328 45.2573C260.229 43.062 256.682 41.996 251.761 41.996V42.234V42.472C256.635 42.472 260.019 43.5312 261.984 45.5863L262.156 45.4218ZM251.761 42.234V41.996C248.413 41.996 245.247 42.4611 242.266 43.3928L242.337 43.62L242.408 43.8472C245.34 42.9309 248.457 42.472 251.761 42.472V42.234ZM242.337 43.62L242.27 43.3914C239.386 44.2287 236.596 45.4379 233.9 47.0183L234.021 47.2236L234.141 47.4289C236.804 45.8677 239.558 44.6745 242.403 43.8486L242.337 43.62ZM234.021 47.2236H234.259V36.1356H234.021H233.783V47.2236H234.021ZM234.021 36.1356L234.127 36.3485C235.954 35.4348 238.57 34.5157 241.983 33.5934L241.921 33.3636L241.859 33.1338C238.434 34.0595 235.783 34.9884 233.914 35.9227L234.021 36.1356ZM241.921 33.3636L241.983 33.5934C245.376 32.6763 249.42 32.2156 254.118 32.2156V31.9776V31.7396C249.391 31.7396 245.303 32.2029 241.859 33.1338L241.921 33.3636ZM254.118 31.9776V32.2156C258.9 32.2156 263.027 32.9055 266.504 34.278L266.592 34.0566L266.679 33.8352C263.134 32.4357 258.945 31.7396 254.118 31.7396V31.9776ZM266.592 34.0566L266.504 34.278C269.967 35.6448 272.652 37.92 274.565 41.109L274.769 40.9866L274.973 40.8641C273.006 37.5852 270.239 35.2404 266.679 33.8352L266.592 34.0566ZM274.769 40.9866L274.567 41.1117C276.476 44.2029 277.442 48.3587 277.442 53.5992H277.68H277.918C277.918 48.3061 276.943 44.0535 274.972 40.8615L274.769 40.9866ZM277.68 53.5992H277.442V109.316H277.68H277.918V53.5992H277.68ZM277.68 109.316V109.078H265.344V109.316V109.554H277.68V109.316ZM312.226 107.93L312.119 108.143L312.125 108.146L312.226 107.93ZM303.217 99.1986L303.006 99.3091L303.008 99.3129L303.217 99.1986ZM300.168 33.3636V33.1256H299.93V33.3636H300.168ZM312.503 33.3636H312.741V33.1256H312.503V33.3636ZM316.661 96.0108L316.49 96.1763L316.493 96.1791L316.661 96.0108ZM343.965 94.0704L343.785 93.9145L343.783 93.9169L343.965 94.0704ZM349.371 33.3636V33.1256H349.133V33.3636H349.371ZM361.706 33.3636H361.944V33.1256H361.706V33.3636ZM361.706 109.316V109.554H361.944V109.316H361.706ZM351.45 109.316L351.212 109.328L351.223 109.554H351.45V109.316ZM350.895 98.0898L351.133 98.0781L351.122 97.8518H350.895V98.0898ZM350.202 98.0898V97.8518H350.048L349.985 97.9921L350.202 98.0898ZM341.47 107.237L341.588 107.444L341.589 107.443L341.47 107.237ZM326.363 110.702V110.464C320.938 110.464 316.261 109.545 312.326 107.715L312.226 107.93L312.125 108.146C316.137 110.012 320.885 110.94 326.363 110.94V110.702ZM312.226 107.93L312.332 107.718C308.496 105.799 305.528 102.923 303.425 99.0843L303.217 99.1986L303.008 99.3129C305.156 103.235 308.194 106.181 312.119 108.143L312.226 107.93ZM303.217 99.1986L303.428 99.0882C301.418 95.2526 300.406 90.2585 300.406 84.0912H300.168H299.93C299.93 90.3055 300.949 95.383 303.006 99.309L303.217 99.1986ZM300.168 84.0912H300.406V33.3636H300.168H299.93V84.0912H300.168ZM300.168 33.3636V33.6016H312.503V33.3636V33.1256H300.168V33.3636ZM312.503 33.3636H312.265V83.3982H312.503H312.741V33.3636H312.503ZM312.503 83.3982H312.265C312.265 88.9795 313.661 93.2526 316.49 96.1763L316.661 96.0108L316.832 95.8453C314.117 93.0402 312.741 88.9049 312.741 83.3982H312.503ZM316.661 96.0108L316.493 96.1791C319.415 99.1011 323.595 100.545 328.996 100.545V100.307V100.069C323.679 100.069 319.636 98.6493 316.829 95.8425L316.661 96.0108ZM328.996 100.307V100.545C335.52 100.545 340.582 98.4457 344.147 94.224L343.965 94.0704L343.783 93.9169C340.326 98.0111 335.409 100.069 328.996 100.069V100.307ZM343.965 94.0704L344.145 94.2263C347.796 90.0141 349.609 84.3632 349.609 77.2998H349.371H349.133C349.133 84.2812 347.342 89.8107 343.785 93.9145L343.965 94.0704ZM349.371 77.2998H349.609V33.3636H349.371H349.133V77.2998H349.371ZM349.371 33.3636V33.6016H361.706V33.3636V33.1256H349.371V33.3636ZM361.706 33.3636H361.468V109.316H361.706H361.944V33.3636H361.706ZM361.706 109.316V109.078H351.45V109.316V109.554H361.706V109.316ZM351.45 109.316L351.687 109.305L351.133 98.0781L350.895 98.0898L350.657 98.1015L351.212 109.328L351.45 109.316ZM350.895 98.0898V97.8518H350.202V98.0898V98.3278H350.895V98.0898ZM350.202 98.0898L349.985 97.9921C348.346 101.635 345.474 104.649 341.351 107.031L341.47 107.237L341.589 107.443C345.782 105.021 348.732 101.937 350.419 98.1875L350.202 98.0898ZM341.47 107.237L341.353 107.03C337.332 109.315 332.339 110.464 326.363 110.464V110.702V110.94C332.399 110.94 337.478 109.78 341.588 107.444L341.47 107.237ZM391.683 104.465L391.523 104.642L391.527 104.645L391.683 104.465ZM386.554 66.0732L386.769 66.1767L386.769 66.1767L386.554 66.0732ZM390.712 59.1432L390.902 59.2875L390.904 59.2847L390.712 59.1432ZM394.732 53.5992L394.543 53.4545L394.537 53.462L394.732 53.5992ZM395.009 43.7586L394.85 43.9357L394.858 43.9428L395.009 43.7586ZM387.802 43.0656L387.736 42.8367L387.732 42.8381L387.802 43.0656ZM384.198 44.4516L383.971 44.5226L384.052 44.7813L384.298 44.6677L384.198 44.4516ZM381.426 35.5812L381.294 35.3832L381.146 35.4821L381.199 35.6522L381.426 35.5812ZM387.525 33.225L387.481 32.991L387.48 32.9913L387.525 33.225ZM402.216 34.3338L402.095 34.5387L402.099 34.541L402.216 34.3338ZM406.79 39.3234L406.572 39.4183L406.573 39.4219L406.79 39.3234ZM406.374 54.9852L406.165 54.8718L406.161 54.8788L406.374 54.9852ZM402.355 61.4994L402.163 61.3578L402.158 61.3656L402.355 61.4994ZM398.474 68.1522L398.259 68.0495L398.259 68.0495L398.474 68.1522ZM399.028 94.4862L399.232 94.3638L399.232 94.3638L399.028 94.4862ZM404.572 99.3372L404.484 99.5583L404.492 99.5611L404.572 99.3372ZM422.452 97.3968L422.609 97.5751L422.61 97.5747L422.452 97.3968ZM426.194 33.3636V33.1256H425.956V33.3636H426.194ZM438.529 33.3636H438.767V33.1256H438.529V33.3636ZM431.738 104.743L431.897 104.92L431.897 104.92L431.738 104.743ZM411.918 110.702V110.464C403.269 110.464 396.586 108.394 391.838 104.285L391.683 104.465L391.527 104.645C396.388 108.853 403.196 110.94 411.918 110.94V110.702ZM391.683 104.465L391.842 104.289C387.194 100.097 384.852 93.8413 384.852 85.4772H384.614H384.376C384.376 93.9299 386.746 100.333 391.523 104.642L391.683 104.465ZM384.614 85.4772H384.852V77.0226H384.614H384.376V85.4772H384.614ZM384.614 77.0226H384.852C384.852 72.4206 385.497 68.8111 386.769 66.1767L386.554 66.0732L386.34 65.9697C385.025 68.6945 384.376 72.3846 384.376 77.0226H384.614ZM386.554 66.0732L386.769 66.1767C388.057 63.5085 389.435 61.2127 390.902 59.2874L390.712 59.1432L390.523 58.999C389.033 60.9545 387.639 63.2788 386.34 65.9697L386.554 66.0732ZM390.712 59.1432L390.904 59.2847C392.475 57.1585 393.816 55.3091 394.926 53.7365L394.732 53.5992L394.537 53.462C393.43 55.0309 392.091 56.8775 390.521 59.0017L390.712 59.1432ZM394.732 53.5992L394.921 53.7438C396.158 52.1265 396.772 50.1798 396.772 47.9166H396.534H396.296C396.296 50.0886 395.708 51.9303 394.543 53.4546L394.732 53.5992ZM396.534 47.9166H396.772C396.772 45.9398 396.254 44.4695 395.16 43.5744L395.009 43.7586L394.858 43.9428C395.797 44.7109 396.296 46.0126 396.296 47.9166H396.534ZM395.009 43.7586L395.168 43.5817C394.192 42.7036 392.931 42.2732 391.405 42.2732V42.5112V42.7492C392.837 42.7492 393.977 43.1505 394.85 43.9355L395.009 43.7586ZM391.405 42.5112V42.2732C390.27 42.2732 389.047 42.4623 387.736 42.8368L387.802 43.0656L387.867 43.2944C389.144 42.9297 390.323 42.7492 391.405 42.7492V42.5112ZM387.802 43.0656L387.732 42.8381C386.52 43.211 385.309 43.6769 384.098 44.2355L384.198 44.4516L384.298 44.6677C385.49 44.1175 386.681 43.6594 387.872 43.2931L387.802 43.0656ZM384.198 44.4516L384.425 44.3806L381.653 35.5102L381.426 35.5812L381.199 35.6522L383.971 44.5226L384.198 44.4516ZM381.426 35.5812L381.558 35.7792C383.19 34.6915 385.191 33.916 387.569 33.4587L387.525 33.225L387.48 32.9913C385.053 33.458 382.989 34.2533 381.294 35.3832L381.426 35.5812ZM387.525 33.225L387.568 33.459C390.053 32.9988 392.209 32.77 394.039 32.77V32.532V32.294C392.172 32.294 389.985 32.5272 387.481 32.991L387.525 33.225ZM394.039 32.532V32.77C397.433 32.77 400.112 33.3668 402.095 34.5387L402.216 34.3338L402.337 34.1289C400.255 32.8984 397.482 32.294 394.039 32.294V32.532ZM402.216 34.3338L402.099 34.541C404.182 35.7182 405.669 37.3432 406.572 39.4183L406.79 39.3234L407.008 39.2285C406.062 37.0532 404.501 35.3518 402.333 34.1266L402.216 34.3338ZM406.79 39.3234L406.573 39.4219C407.48 41.4172 407.938 43.7846 407.938 46.5306H408.176H408.414C408.414 43.7326 407.948 41.2952 407.007 39.2249L406.79 39.3234ZM408.176 46.5306H407.938C407.938 49.9233 407.342 52.6992 406.165 54.8718L406.374 54.9852L406.583 55.0986C407.809 52.836 408.414 49.9755 408.414 46.5306H408.176ZM406.374 54.9852L406.161 54.8788C405.059 57.0833 403.726 59.2431 402.163 61.3579L402.355 61.4994L402.546 61.6409C404.125 59.5053 405.472 57.3223 406.587 55.0916L406.374 54.9852ZM402.355 61.4994L402.158 61.3656C400.582 63.6837 399.282 65.9117 398.259 68.0495L398.474 68.1522L398.689 68.2549C399.699 66.1423 400.986 63.9351 402.552 61.6332L402.355 61.4994ZM398.474 68.1522L398.259 68.0495C397.222 70.2179 396.711 73.0287 396.711 76.4682H396.949H397.187C397.187 73.0701 397.693 70.3369 398.689 68.2549L398.474 68.1522ZM396.949 76.4682H396.711V84.6456H396.949H397.187V76.4682H396.949ZM396.949 84.6456H396.711C396.711 88.9165 397.407 92.2461 398.824 94.6087L399.028 94.4862L399.232 94.3638C397.878 92.1063 397.187 88.8756 397.187 84.6456H396.949ZM399.028 94.4862L398.824 94.6087C400.235 96.9593 402.122 98.6132 404.484 99.5582L404.572 99.3372L404.661 99.1162C402.403 98.2132 400.594 96.6331 399.232 94.3638L399.028 94.4862ZM404.572 99.3372L404.492 99.5611C406.829 100.403 409.305 100.823 411.918 100.823V100.585V100.347C409.357 100.347 406.936 99.9351 404.653 99.1133L404.572 99.3372ZM411.918 100.585V100.823C416.571 100.823 420.148 99.7527 422.609 97.5751L422.452 97.3968L422.294 97.2185C419.951 99.2913 416.505 100.347 411.918 100.347V100.585ZM422.452 97.3968L422.61 97.5747C425.172 95.2974 426.432 91.8492 426.432 87.279H426.194H425.956C425.956 91.764 424.721 95.061 422.294 97.2189L422.452 97.3968ZM426.194 87.279H426.432V33.3636H426.194H425.956V87.279H426.194ZM426.194 33.3636V33.6016H438.529V33.3636V33.1256H426.194V33.3636ZM438.529 33.3636H438.291V87.972H438.529H438.767V33.3636H438.529ZM438.529 87.972H438.291C438.291 95.0318 436.048 100.553 431.579 104.566L431.738 104.743L431.897 104.92C436.483 100.801 438.767 95.1418 438.767 87.972H438.529ZM431.738 104.743L431.579 104.565C427.204 108.484 420.665 110.464 411.918 110.464V110.702V110.94C420.728 110.94 427.401 108.947 431.897 104.92L431.738 104.743ZM465.4 102.941L465.226 103.103L465.229 103.106L465.4 102.941ZM458.193 72.3102L457.956 72.2904L457.955 72.2999L458.193 72.3102ZM458.748 65.796V65.558H458.529L458.51 65.7754L458.748 65.796ZM487.854 65.796H488.092V65.558H487.854V65.796ZM487.854 75.498V75.736H488.092V75.498H487.854ZM470.39 75.498V75.26H470.152V75.498H470.39ZM472.33 91.9914L472.109 92.0777L472.109 92.0798L472.33 91.9914ZM478.013 98.7828L477.903 98.9941L477.907 98.9957L478.013 98.7828ZM498.387 98.367L498.278 98.1554L498.278 98.1554L498.387 98.367ZM505.733 55.1238L505.958 55.0471L505.958 55.0471L505.733 55.1238ZM498.387 45.4218L498.259 45.6224L498.262 45.6239L498.387 45.4218ZM476.211 43.0656L476.25 43.3005L476.258 43.299L476.211 43.0656ZM468.172 45.2832L468.252 45.5074L468.259 45.5047L468.172 45.2832ZM460.549 48.8868H460.311V49.3045L460.671 49.0916L460.549 48.8868ZM460.549 37.383L460.435 37.1745L460.311 37.2423V37.383H460.549ZM467.341 34.7496L467.404 34.9791L467.411 34.9769L467.341 34.7496ZM476.211 32.8092L476.245 33.0449L476.251 33.0438L476.211 32.8092ZM506.01 36.9672L505.878 37.1653L505.882 37.168L506.01 36.9672ZM517.098 50.8272L516.876 50.9126L516.877 50.9138L517.098 50.8272ZM517.375 92.823L517.599 92.9046L517.599 92.9046L517.375 92.823ZM506.98 106.129L506.853 105.928L506.851 105.929L506.98 106.129ZM487.854 110.702V110.464C477.913 110.464 470.501 107.888 465.572 102.776L465.4 102.941L465.229 103.106C470.279 108.343 477.835 110.94 487.854 110.94V110.702ZM465.4 102.941L465.575 102.779C460.736 97.5749 458.293 89.4224 458.293 78.27H458.055H457.817C457.817 89.4784 460.27 97.7731 465.226 103.103L465.4 102.941ZM458.055 78.27H458.293C458.293 76.4259 458.339 74.4428 458.431 72.3205L458.193 72.3102L457.955 72.2999C457.863 74.428 457.817 76.4181 457.817 78.27H458.055ZM458.193 72.3102L458.43 72.33C458.615 70.1126 458.8 67.9415 458.985 65.8166L458.748 65.796L458.51 65.7754C458.326 67.9009 458.141 70.0726 457.956 72.2904L458.193 72.3102ZM458.748 65.796V66.034H487.854V65.796V65.558H458.748V65.796ZM487.854 65.796H487.616V75.498H487.854H488.092V65.796H487.854ZM487.854 75.498V75.26H470.39V75.498V75.736H487.854V75.498ZM470.39 75.498H470.152V78.27H470.39H470.628V75.498H470.39ZM470.39 78.27H470.152C470.152 84.1045 470.8 88.7119 472.109 92.0777L472.33 91.9914L472.552 91.9051C471.274 88.6181 470.628 84.0779 470.628 78.27H470.39ZM472.33 91.9914L472.109 92.0798C473.419 95.3536 475.347 97.6684 477.903 98.9941L478.013 98.7828L478.123 98.5715C475.69 97.3101 473.829 95.0972 472.551 91.903L472.33 91.9914ZM478.013 98.7828L477.907 98.9957C480.535 100.31 483.762 100.961 487.576 100.961V100.723V100.485C483.814 100.485 480.665 99.8427 478.119 98.5699L478.013 98.7828ZM487.576 100.723V100.961C491.764 100.961 495.407 100.17 498.496 98.5786L498.387 98.367L498.278 98.1554C495.269 99.7056 491.704 100.485 487.576 100.485V100.723ZM498.387 98.367L498.496 98.5786C501.61 96.9744 503.999 94.0568 505.677 89.8622L505.456 89.7738L505.235 89.6854C503.586 93.8068 501.263 96.618 498.278 98.1554L498.387 98.367ZM505.456 89.7738L505.677 89.8622C507.357 85.6627 508.189 79.6674 508.189 71.8944H507.951H507.713C507.713 79.6446 506.881 85.5689 505.235 89.6854L505.456 89.7738ZM507.951 71.8944H508.189C508.189 65.0422 507.448 59.4235 505.958 55.0471L505.733 55.1238L505.508 55.2005C506.975 59.5097 507.713 65.0714 507.713 71.8944H507.951ZM505.733 55.1238L505.958 55.0471C504.465 50.6599 501.985 47.3779 498.513 45.2197L498.387 45.4218L498.262 45.6239C501.627 47.7161 504.044 50.9021 505.508 55.2005L505.733 55.1238ZM498.387 45.4218L498.515 45.2212C495.137 43.0629 490.559 41.996 484.804 41.996V42.234V42.472C490.507 42.472 494.985 43.5303 498.259 45.6224L498.387 45.4218ZM484.804 42.234V41.996C481.833 41.996 478.953 42.2746 476.165 42.8322L476.211 43.0656L476.258 43.299C479.014 42.7478 481.863 42.472 484.804 42.472V42.234ZM476.211 43.0656L476.172 42.8308C473.384 43.2955 470.688 44.0391 468.085 45.0617L468.172 45.2832L468.259 45.5047C470.831 44.4945 473.495 43.7597 476.25 43.3004L476.211 43.0656ZM468.172 45.2832L468.092 45.0591C465.49 45.9885 462.935 47.1963 460.428 48.6821L460.549 48.8868L460.671 49.0916C463.153 47.6205 465.68 46.4259 468.252 45.5073L468.172 45.2832ZM460.549 48.8868H460.787V37.383H460.549H460.311V48.8868H460.549ZM460.549 37.383L460.664 37.5915C462.492 36.5864 464.737 35.7148 467.404 34.979L467.341 34.7496L467.277 34.5202C464.585 35.2628 462.303 36.1468 460.435 37.1745L460.549 37.383ZM467.341 34.7496L467.411 34.9769C470.077 34.1496 473.021 33.5053 476.245 33.0448L476.211 32.8092L476.178 32.5736C472.933 33.0371 469.964 33.6864 467.27 34.5223L467.341 34.7496ZM476.211 32.8092L476.251 33.0438C479.471 32.4918 482.83 32.2156 486.329 32.2156V31.9776V31.7396C482.805 31.7396 479.419 32.0178 476.171 32.5746L476.211 32.8092ZM486.329 31.9776V32.2156C494.429 32.2156 500.939 33.8727 505.878 37.1652L506.01 36.9672L506.142 36.7692C501.102 33.4089 494.491 31.7396 486.329 31.7396V31.9776ZM506.01 36.9672L505.882 37.168C510.918 40.3727 514.583 44.9508 516.876 50.9126L517.098 50.8272L517.32 50.7418C514.993 44.6917 511.266 40.0297 506.138 36.7664L506.01 36.9672ZM517.098 50.8272L516.877 50.9138C519.173 56.7933 520.325 63.7849 520.325 71.8944H520.563H520.801C520.801 63.7415 519.643 56.6883 517.32 50.7406L517.098 50.8272ZM520.563 71.8944H520.325C520.325 80.006 519.265 86.9531 517.152 92.7414L517.375 92.823L517.599 92.9046C519.736 87.0505 520.801 80.0452 520.801 71.8944H520.563ZM517.375 92.823L517.152 92.7414C515.043 98.518 511.609 102.909 506.853 105.928L506.98 106.129L507.108 106.33C511.961 103.25 515.457 98.7704 517.599 92.9046L517.375 92.823ZM506.98 106.129L506.851 105.929C502.19 108.944 495.865 110.464 487.854 110.464V110.702V110.94C495.919 110.94 502.346 109.411 507.11 106.328L506.98 106.129ZM553.026 109.316L552.799 109.387L552.851 109.554H553.026V109.316ZM529.325 33.3636V33.1256H529.002L529.098 33.4345L529.325 33.3636ZM541.799 33.3636L542.026 33.2923L541.974 33.1256H541.799V33.3636ZM562.312 98.6442L562.085 98.7156L562.137 98.8822H562.312V98.6442ZM570.49 97.1196L570.592 97.3344L570.6 97.3306L570.49 97.1196ZM575.895 92.9616L575.719 92.8015L575.717 92.8035L575.895 92.9616ZM581.993 81.4578L582.223 81.522L582.223 81.5208L581.993 81.4578ZM578.667 49.5798L578.478 49.7251L578.482 49.7294L578.667 49.5798ZM560.788 43.2042L560.751 42.9689L560.748 42.9694L560.788 43.2042ZM558.016 43.8972L557.788 43.9676L557.863 44.2086L558.099 44.12L558.016 43.8972ZM554.966 34.0566L554.901 33.8278L554.667 33.8946L554.739 34.127L554.966 34.0566ZM560.372 32.9478L560.347 32.7111L560.345 32.7113L560.372 32.9478ZM577.42 34.7496L577.334 34.9718L577.341 34.9742L577.42 34.7496ZM586.844 40.5708L586.676 40.7391L586.678 40.7415L586.844 40.5708ZM593.913 52.3518L593.686 52.4231L593.687 52.4271L593.913 52.3518ZM592.943 87.279L593.164 87.3674L593.164 87.3661L592.943 87.279ZM584.627 100.585L584.795 100.753L584.795 100.753L584.627 100.585ZM574.786 106.96L574.697 106.74L574.786 106.96ZM553.026 109.316L553.253 109.246L529.553 33.2927L529.325 33.3636L529.098 33.4345L552.799 109.387L553.026 109.316ZM529.325 33.3636V33.6016H541.799V33.3636V33.1256H529.325V33.3636ZM541.799 33.3636L541.572 33.4349L562.085 98.7156L562.312 98.6442L562.539 98.5729L542.026 33.2923L541.799 33.3636ZM562.312 98.6442V98.8822H563.975V98.6442V98.4062H562.312V98.6442ZM563.975 98.6442V98.8822C566.231 98.8822 568.437 98.3651 570.592 97.3343L570.49 97.1196L570.387 96.9049C568.292 97.9069 566.155 98.4062 563.975 98.4062V98.6442ZM570.49 97.1196L570.6 97.3306C572.748 96.2095 574.574 94.8061 576.073 93.1197L575.895 92.9616L575.717 92.8035C574.259 94.4435 572.481 95.8121 570.379 96.9086L570.49 97.1196ZM575.895 92.9616L576.071 93.1217C578.872 90.0409 580.921 86.1718 582.223 81.522L581.993 81.4578L581.764 81.3936C580.479 85.9838 578.462 89.7839 575.719 92.8015L575.895 92.9616ZM581.993 81.4578L582.223 81.5208C583.522 76.7895 584.172 72.1483 584.172 67.5978H583.934H583.696C583.696 72.1025 583.052 76.7013 581.764 81.3948L581.993 81.4578ZM583.934 67.5978H584.172C584.172 59.8943 582.408 53.8287 578.852 49.4302L578.667 49.5798L578.482 49.7294C581.948 54.0165 583.696 59.9629 583.696 67.5978H583.934ZM578.667 49.5798L578.855 49.4345C575.387 44.9351 570.556 42.689 564.391 42.689V42.927V43.165C570.423 43.165 575.109 45.3541 578.478 49.7251L578.667 49.5798ZM564.391 42.927V42.689C563.178 42.689 561.964 42.7823 560.751 42.969L560.788 43.2042L560.824 43.4394C562.013 43.2565 563.202 43.165 564.391 43.165V42.927ZM560.788 43.2042L560.748 42.9694C559.63 43.1558 558.69 43.39 557.932 43.6744L558.016 43.8972L558.099 44.12C558.819 43.85 559.727 43.6222 560.827 43.439L560.788 43.2042ZM558.016 43.8972L558.243 43.8268L555.194 33.9862L554.966 34.0566L554.739 34.127L557.788 43.9676L558.016 43.8972ZM554.966 34.0566L555.032 34.2854C556.962 33.734 558.75 33.3674 560.398 33.1843L560.372 32.9478L560.345 32.7113C558.667 32.8978 556.852 33.2704 554.901 33.8278L554.966 34.0566ZM560.372 32.9478L560.397 33.1845C562.146 33.0003 563.708 32.9086 565.084 32.9086V32.6706V32.4326C563.688 32.4326 562.109 32.5257 560.347 32.7111L560.372 32.9478ZM565.084 32.6706V32.9086C569.681 32.9086 573.763 33.5981 577.334 34.9717L577.42 34.7496L577.505 34.5275C573.869 33.1291 569.728 32.4326 565.084 32.4326V32.6706ZM577.42 34.7496L577.341 34.9742C581.006 36.2569 584.116 38.1789 586.676 40.7391L586.844 40.5708L587.013 40.4025C584.398 37.7883 581.225 35.8295 577.498 34.525L577.42 34.7496ZM586.844 40.5708L586.678 40.7415C589.881 43.853 592.218 47.7447 593.686 52.423L593.913 52.3518L594.14 52.2806C592.651 47.5341 590.275 43.5718 587.01 40.4001L586.844 40.5708ZM593.913 52.3518L593.687 52.4271C595.249 57.1118 596.031 62.3065 596.031 68.0136H596.269H596.507C596.507 62.2631 595.719 57.0166 594.139 52.2765L593.913 52.3518ZM596.269 68.0136H596.031C596.031 75.1965 594.926 81.5879 592.721 87.1919L592.943 87.279L593.164 87.3661C595.395 81.6973 596.507 75.2451 596.507 68.0136H596.269ZM592.943 87.279L592.722 87.1906C590.513 92.7124 587.757 97.118 584.458 100.416L584.627 100.585L584.795 100.753C588.149 97.3985 590.937 92.9336 593.164 87.3674L592.943 87.279ZM584.627 100.585L584.458 100.416C581.804 103.071 578.551 105.18 574.697 106.74L574.786 106.96L574.875 107.181C578.783 105.599 582.091 103.457 584.795 100.753L584.627 100.585ZM574.786 106.96L574.697 106.74C570.854 108.295 565.944 109.078 559.956 109.078V109.316V109.554C565.98 109.554 570.957 108.767 574.875 107.181L574.786 106.96ZM559.956 109.316V109.078H553.026V109.316V109.554H559.956V109.316ZM624.974 109.455L625.055 109.231L625.055 109.231L624.974 109.455ZM619.292 105.02L619.487 104.884L619.292 105.02ZM617.074 33.3636V33.1256H616.836V33.3636H617.074ZM629.41 33.3636H629.648V33.1256H629.41V33.3636ZM630.796 99.1986L630.964 99.0303L630.964 99.0303L630.796 99.1986ZM637.864 100.307L637.818 100.074L637.818 100.074L637.864 100.307ZM640.498 99.6144L640.732 99.5712L640.682 99.3021L640.422 99.3886L640.498 99.6144ZM642.161 108.623L642.263 108.838L642.428 108.76L642.395 108.58L642.161 108.623ZM637.033 110.287L636.994 110.052L636.994 110.052L637.033 110.287ZM632.182 110.702V110.464C629.714 110.464 627.339 110.053 625.055 109.231L624.974 109.455L624.894 109.679C627.23 110.52 629.66 110.94 632.182 110.94V110.702ZM624.974 109.455L625.055 109.231C622.794 108.417 620.939 106.971 619.487 104.884L619.292 105.02L619.097 105.156C620.601 107.319 622.535 108.83 624.894 109.679L624.974 109.455ZM619.292 105.02L619.487 104.884C618.047 102.813 617.312 99.9106 617.312 96.1494H617.074H616.836C616.836 99.965 617.58 102.976 619.097 105.156L619.292 105.02ZM617.074 96.1494H617.312V33.3636H617.074H616.836V96.1494H617.074ZM617.074 33.3636V33.6016H629.41V33.3636V33.1256H617.074V33.3636ZM629.41 33.3636H629.172V94.6248H629.41H629.648V33.3636H629.41ZM629.41 94.6248H629.172C629.172 96.7753 629.638 98.3772 630.627 99.3669L630.796 99.1986L630.964 99.0303C630.106 98.172 629.648 96.7247 629.648 94.6248H629.41ZM630.796 99.1986L630.627 99.3669C631.615 100.355 633.169 100.823 635.231 100.823V100.585V100.347C633.227 100.347 631.824 99.8903 630.964 99.0303L630.796 99.1986ZM635.231 100.585V100.823C636.08 100.823 636.974 100.728 637.911 100.541L637.864 100.307L637.818 100.074C636.907 100.256 636.045 100.347 635.231 100.347V100.585ZM637.864 100.307L637.911 100.541C638.844 100.354 639.731 100.121 640.573 99.8402L640.498 99.6144L640.422 99.3886C639.601 99.6625 638.733 99.891 637.818 100.074L637.864 100.307ZM640.498 99.6144L640.264 99.6576L641.927 108.667L642.161 108.623L642.395 108.58L640.732 99.5712L640.498 99.6144ZM642.161 108.623L642.059 108.408C640.32 109.232 638.632 109.779 636.994 110.052L637.033 110.287L637.072 110.521C638.76 110.24 640.49 109.678 642.263 108.838L642.161 108.623ZM637.033 110.287L636.994 110.052C635.342 110.327 633.738 110.464 632.182 110.464V110.702V110.94C633.767 110.94 635.397 110.801 637.072 110.521L637.033 110.287ZM660.616 109.178L660.561 109.409L660.566 109.41L660.616 109.178ZM648.835 105.297L648.612 105.216L648.537 105.422L648.736 105.513L648.835 105.297ZM652.439 95.3178L652.524 95.0954L652.297 95.0092L652.215 95.237L652.439 95.3178ZM659.092 97.674L659.167 97.4482L659.167 97.4482L659.092 97.674ZM667.131 99.753L667.085 99.9868L667.094 99.9882L667.131 99.753ZM688.336 97.674L688.218 97.4674L688.218 97.4674L688.336 97.674ZM691.386 84.2298L691.191 84.3671L691.196 84.3736L691.201 84.3799L691.386 84.2298ZM676.833 76.191L676.761 76.4178L676.761 76.4179L676.833 76.191ZM662.002 70.3698L661.89 70.5797L661.896 70.5827L662.002 70.3698ZM652.855 62.8854L652.659 63.0203L652.664 63.0272L652.855 62.8854ZM652.855 41.6796L652.66 41.5435L652.659 41.5448L652.855 41.6796ZM662.557 34.611L662.642 34.8333L662.644 34.8323L662.557 34.611ZM691.94 33.225L691.89 33.4578L691.896 33.459L691.94 33.225ZM701.226 36.4128H701.464V36.2809L701.352 36.211L701.226 36.4128ZM701.226 46.8078L701.125 47.0231L701.464 47.1828V46.8078H701.226ZM695.266 44.5902L695.194 44.8169L695.196 44.8177L695.266 44.5902ZM665.883 45.006L666.025 45.1973L666.026 45.1964L665.883 45.006ZM663.804 56.5098L663.618 56.6586L663.624 56.6657L663.804 56.5098ZM669.764 60.5292L669.663 60.7449L669.666 60.7461L669.764 60.5292ZM681.268 64.9644L681.19 65.1893L681.193 65.1902L681.268 64.9644ZM702.196 77.4384L702.003 77.5774L702.008 77.5841L702.196 77.4384ZM702.612 99.4758L702.405 99.3583L702.404 99.3602L702.612 99.4758ZM693.326 107.653L693.427 107.869L693.431 107.867L693.326 107.653ZM675.862 110.702V110.464C670.426 110.464 665.36 109.958 660.667 108.945L660.616 109.178L660.566 109.41C665.297 110.431 670.396 110.94 675.862 110.94V110.702ZM660.616 109.178L660.672 108.946C656.062 107.84 652.151 106.551 648.934 105.081L648.835 105.297L648.736 105.513C651.988 107 655.931 108.298 660.561 109.409L660.616 109.178ZM648.835 105.297L649.059 105.378L652.663 95.3986L652.439 95.3178L652.215 95.237L648.612 105.216L648.835 105.297ZM652.439 95.3178L652.354 95.5402C654.298 96.2809 656.519 97.0674 659.017 97.8998L659.092 97.674L659.167 97.4482C656.675 96.6174 654.46 95.8331 652.524 95.0954L652.439 95.3178ZM659.092 97.674L659.017 97.8998C661.522 98.735 664.212 99.4305 667.085 99.9867L667.131 99.753L667.176 99.5193C664.32 98.9667 661.651 98.2762 659.167 97.4482L659.092 97.674ZM667.131 99.753L667.094 99.9882C670.063 100.452 673.078 100.684 676.14 100.684V100.446V100.208C673.102 100.208 670.112 99.9779 667.167 99.5179L667.131 99.753ZM676.14 100.446V100.684C681.066 100.684 685.175 99.7547 688.454 97.8806L688.336 97.674L688.218 97.4674C685.03 99.2893 681.008 100.208 676.14 100.208V100.446ZM688.336 97.674L688.454 97.8806C691.757 95.9934 693.425 93.238 693.425 89.6352H693.187H692.949C692.949 93.0548 691.384 95.6586 688.218 97.4674L688.336 97.674ZM693.187 89.6352H693.425C693.425 87.4621 692.81 85.6055 691.57 84.0797L691.386 84.2298L691.201 84.3799C692.364 85.8109 692.949 87.558 692.949 89.6352H693.187ZM691.386 84.2298L691.58 84.0926C690.443 82.4818 688.654 81.0279 686.232 79.7237L686.119 79.9332L686.006 80.1428C688.389 81.4257 690.111 82.8363 691.191 84.3671L691.386 84.2298ZM686.119 79.9332L686.232 79.7237C683.812 78.4206 680.701 77.168 676.905 75.9641L676.833 76.191L676.761 76.4179C680.541 77.6164 683.621 78.8586 686.006 80.1428L686.119 79.9332ZM676.833 76.191L676.905 75.9642C671.091 74.1187 666.16 72.1827 662.109 70.1569L662.002 70.3698L661.896 70.5827C665.976 72.6225 670.931 74.5673 676.761 76.4178L676.833 76.191ZM662.002 70.3698L662.115 70.1599C658.165 68.0471 655.145 65.5733 653.046 62.7436L652.855 62.8854L652.664 63.0272C654.815 65.9263 657.894 68.4421 661.89 70.5797L662.002 70.3698ZM652.855 62.8854L653.051 62.7506C651.051 59.8411 650.044 56.2409 650.044 51.936H649.806H649.568C649.568 56.3167 650.593 60.0161 652.659 63.0202L652.855 62.8854ZM649.806 51.936H650.044C650.044 48.0992 651.048 44.7283 653.051 41.8144L652.855 41.6796L652.659 41.5448C650.596 44.5445 649.568 48.0112 649.568 51.936H649.806ZM652.855 41.6796L653.05 41.8157C655.142 38.8144 658.332 36.4837 662.642 34.8333L662.557 34.611L662.472 34.3887C658.096 36.0647 654.818 38.4464 652.66 41.5435L652.855 41.6796ZM662.557 34.611L662.644 34.8323C667.042 33.0914 672.646 32.2156 679.466 32.2156V31.9776V31.7396C672.61 31.7396 666.942 32.6194 662.469 34.3897L662.557 34.611ZM679.466 31.9776V32.2156C683.886 32.2156 688.027 32.63 691.89 33.4577L691.94 33.225L691.99 32.9923C688.091 32.1568 683.916 31.7396 679.466 31.7396V31.9776ZM691.94 33.225L691.896 33.459C695.855 34.1954 698.918 35.2506 701.1 36.6146L701.226 36.4128L701.352 36.211C699.1 34.803 695.972 33.733 691.984 32.991L691.94 33.225ZM701.226 36.4128H700.988V46.8078H701.226H701.464V36.4128H701.226ZM701.226 46.8078L701.328 46.5925C699.743 45.8469 697.745 45.1039 695.336 44.3627L695.266 44.5902L695.196 44.8177C697.592 45.5549 699.568 46.2903 701.125 47.0231L701.226 46.8078ZM695.266 44.5902L695.339 44.3635C693.016 43.6203 690.464 43.0172 687.683 42.5536L687.643 42.7884L687.604 43.0232C690.367 43.4836 692.896 44.0817 695.194 44.8169L695.266 44.5902ZM687.643 42.7884L687.683 42.5536C684.897 42.0894 682.019 41.8574 679.05 41.8574V42.0954V42.3334C681.995 42.3334 684.846 42.5634 687.604 43.0232L687.643 42.7884ZM679.05 42.0954V41.8574C672.848 41.8574 668.392 42.8267 665.74 44.8156L665.883 45.006L666.026 45.1964C668.549 43.3045 672.871 42.3334 679.05 42.3334V42.0954ZM665.883 45.006L665.742 44.8148C663.206 46.6932 661.903 48.8825 661.903 51.3816H662.141H662.379C662.379 49.0759 663.571 47.0148 666.025 45.1972L665.883 45.006ZM662.141 51.3816H661.903C661.903 53.4602 662.471 55.2243 663.618 56.6585L663.804 56.5098L663.99 56.3611C662.92 55.0233 662.379 53.3686 662.379 51.3816H662.141ZM663.804 56.5098L663.624 56.6657C664.857 58.0884 666.879 59.4454 669.663 60.7449L669.764 60.5292L669.865 60.3135C667.105 59.0258 665.153 57.7032 663.984 56.3539L663.804 56.5098ZM669.764 60.5292L669.666 60.7461C672.54 62.0439 676.382 63.525 681.19 65.1893L681.268 64.9644L681.346 64.7395C676.544 63.0774 672.717 61.6017 669.862 60.3123L669.764 60.5292ZM681.268 64.9644L681.193 65.1902C685.617 66.665 689.671 68.3696 693.354 70.3033L693.465 70.0926L693.575 69.8819C689.867 67.9349 685.789 66.2206 681.343 64.7386L681.268 64.9644ZM693.465 70.0926L693.354 70.3033C697.022 72.2291 699.902 74.6547 702.003 77.5773L702.196 77.4384L702.39 77.2995C700.24 74.3085 697.299 71.8369 693.575 69.8819L693.465 70.0926ZM702.196 77.4384L702.008 77.5841C704.186 80.3973 705.285 84.0381 705.285 88.5264H705.523H705.761C705.761 83.9595 704.642 80.2083 702.385 77.2927L702.196 77.4384ZM705.523 88.5264H705.285C705.285 92.3655 704.326 95.9749 702.405 99.3583L702.612 99.4758L702.819 99.5933C704.78 96.1392 705.761 92.4489 705.761 88.5264H705.523ZM702.612 99.4758L702.404 99.3602C700.585 102.634 697.532 105.33 693.221 107.439L693.326 107.653L693.431 107.867C697.805 105.726 700.943 102.971 702.82 99.5914L702.612 99.4758ZM693.326 107.653L693.225 107.438C688.926 109.45 683.144 110.464 675.862 110.464V110.702V110.94C683.18 110.94 689.04 109.922 693.427 107.869L693.326 107.653ZM743.677 109.316H743.439V109.554H743.677V109.316ZM740.489 45.4218L740.317 45.5864L740.321 45.5901L740.489 45.4218ZM720.669 43.62L720.736 43.8486L720.74 43.8472L720.669 43.62ZM712.353 47.2236H712.115V47.639L712.474 47.4289L712.353 47.2236ZM712.353 36.1356L712.247 35.9227L712.115 35.9885V36.1356H712.353ZM744.924 34.0566L745.012 33.8352L745.012 33.8352L744.924 34.0566ZM753.102 40.9866L752.897 41.1091L752.899 41.1117L753.102 40.9866ZM756.012 109.316V109.554H756.25V109.316H756.012ZM743.677 109.316H743.915V55.401H743.677H743.439V109.316H743.677ZM743.677 55.401H743.915C743.915 50.8418 742.845 47.4416 740.657 45.2535L740.489 45.4218L740.321 45.5901C742.383 47.6524 743.439 50.905 743.439 55.401H743.677ZM740.489 45.4218L740.661 45.2573C738.561 43.062 735.015 41.996 730.094 41.996V42.234V42.472C734.967 42.472 738.351 43.5312 740.317 45.5863L740.489 45.4218ZM730.094 42.234V41.996C726.745 41.996 723.58 42.4611 720.598 43.3928L720.669 43.62L720.74 43.8472C723.672 42.9309 726.79 42.472 730.094 42.472V42.234ZM720.669 43.62L720.603 43.3914C717.719 44.2287 714.929 45.4379 712.233 47.0183L712.353 47.2236L712.474 47.4289C715.137 45.8677 717.891 44.6745 720.736 43.8486L720.669 43.62ZM712.353 47.2236H712.591V36.1356H712.353H712.115V47.2236H712.353ZM712.353 36.1356L712.46 36.3485C714.287 35.4348 716.903 34.5157 720.315 33.5934L720.253 33.3636L720.191 33.1338C716.766 34.0595 714.115 34.9884 712.247 35.9227L712.353 36.1356ZM720.253 33.3636L720.315 33.5934C723.709 32.6763 727.752 32.2156 732.45 32.2156V31.9776V31.7396C727.723 31.7396 723.636 32.2029 720.191 33.1338L720.253 33.3636ZM732.45 31.9776V32.2156C737.233 32.2156 741.36 32.9055 744.837 34.278L744.924 34.0566L745.012 33.8352C741.466 32.4357 737.277 31.7396 732.45 31.7396V31.9776ZM744.924 34.0566L744.837 34.278C748.299 35.6448 750.984 37.92 752.897 41.109L753.102 40.9866L753.306 40.8641C751.338 37.5852 748.571 35.2404 745.012 33.8352L744.924 34.0566ZM753.102 40.9866L752.899 41.1117C754.808 44.2029 755.774 48.3587 755.774 53.5992H756.012H756.25C756.25 48.3061 755.276 44.0535 753.304 40.8615L753.102 40.9866ZM756.012 53.5992H755.774V109.316H756.012H756.25V53.5992H756.012ZM756.012 109.316V109.078H743.677V109.316V109.554H756.012V109.316Z" fill="#FF8212"/>
</g>
<defs>
<clipPath id="bgblur_0_1485_102_clip_path" transform="translate(139.315 139.315)"><path d="M0.238196 109.316V33.3636H8.8314L11.049 45.4218H11.6034C13.1742 41.2638 16.0386 37.9836 20.1966 35.5812C24.3546 33.1788 29.3904 31.9776 35.304 31.9776C40.848 31.9776 45.5604 32.9478 49.4412 34.8882C53.4144 36.7362 56.4636 39.6006 58.5888 43.4814C60.714 47.3622 61.7766 52.398 61.7766 58.5888V109.316H49.4412V59.2818C49.4412 53.7378 48.0552 49.5336 45.2832 46.6692C42.5112 43.8048 38.3994 42.3726 32.9478 42.3726C28.605 42.3726 24.909 43.389 21.8598 45.4218C18.8106 47.4546 16.5006 50.2266 14.9298 53.7378C13.359 57.1566 12.5736 61.0374 12.5736 65.3802V109.316H0.238196ZM1.40872 21.3054V15.9L11.5265 11.4648H60.3137V21.3054H1.40872ZM48.8099 15.9V0.238193H60.4523V15.9H48.8099ZM120.872 110.702C114.959 110.702 109.83 109.547 105.488 107.237C101.237 104.835 98.3266 101.509 96.7558 97.2582H96.2014L95.5084 109.316H85.3906V33.3636H97.726V77.2998C97.726 81.9198 98.5114 85.9854 100.082 89.4966C101.745 92.9154 104.102 95.595 107.151 97.5354C110.292 99.3834 114.035 100.307 118.377 100.307C123.829 100.307 127.895 98.8752 130.574 96.0108C133.254 93.1464 134.594 88.9422 134.594 83.3982V33.3636H146.929V84.2298C146.929 90.3282 145.866 95.3178 143.741 99.1986C141.708 103.079 138.752 105.99 134.871 107.93C130.99 109.778 126.324 110.702 120.872 110.702ZM181.892 109.316L158.191 33.3636H170.665L191.178 98.6442H192.841C195.059 98.6442 197.23 98.136 199.356 97.1196C201.481 96.0108 203.283 94.6248 204.761 92.9616C207.533 89.9124 209.566 86.0778 210.859 81.4578C212.153 76.7454 212.8 72.1254 212.8 67.5978C212.8 59.9286 211.044 53.9226 207.533 49.5798C204.114 45.1446 199.356 42.927 193.257 42.927C192.056 42.927 190.855 43.0194 189.654 43.2042C188.545 43.389 187.621 43.62 186.882 43.8972L183.832 34.0566C185.773 33.5022 187.575 33.1326 189.238 32.9478C190.993 32.763 192.564 32.6706 193.95 32.6706C198.57 32.6706 202.682 33.3636 206.286 34.7496C209.982 36.0432 213.123 37.9836 215.71 40.5708C218.944 43.7124 221.301 47.6394 222.779 52.3518C224.35 57.0642 225.135 62.2848 225.135 68.0136C225.135 75.2208 224.026 81.6426 221.809 87.279C219.591 92.823 216.819 97.2582 213.493 100.585C210.813 103.264 207.533 105.389 203.652 106.96C199.771 108.531 194.828 109.316 188.822 109.316H181.892ZM265.344 109.316V55.401C265.344 50.8734 264.282 47.547 262.156 45.4218C260.124 43.2966 256.659 42.234 251.761 42.234C248.435 42.234 245.293 42.696 242.337 43.62C239.472 44.4516 236.7 45.6528 234.021 47.2236V36.1356C235.869 35.2116 238.502 34.2876 241.921 33.3636C245.34 32.4396 249.405 31.9776 254.118 31.9776C258.922 31.9776 263.08 32.6706 266.592 34.0566C270.103 35.4426 272.829 37.7526 274.769 40.9866C276.709 44.1282 277.68 48.3324 277.68 53.5992V109.316H265.344ZM326.363 110.702C320.911 110.702 316.199 109.778 312.226 107.93C308.345 105.99 305.342 103.079 303.217 99.1986C301.184 95.3178 300.168 90.282 300.168 84.0912V33.3636H312.503V83.3982C312.503 88.9422 313.889 93.1464 316.661 96.0108C319.525 98.8752 323.637 100.307 328.996 100.307C335.464 100.307 340.454 98.2284 343.965 94.0704C347.569 89.9124 349.371 84.3222 349.371 77.2998V33.3636H361.706V109.316H351.45L350.895 98.0898H350.202C348.539 101.786 345.628 104.835 341.47 107.237C337.405 109.547 332.369 110.702 326.363 110.702ZM411.918 110.702C403.233 110.702 396.487 108.623 391.683 104.465C386.97 100.215 384.614 93.8856 384.614 85.4772V77.0226C384.614 72.4026 385.261 68.7528 386.554 66.0732C387.848 63.3936 389.234 61.0836 390.712 59.1432C392.283 57.018 393.623 55.17 394.732 53.5992C395.933 52.0284 396.534 50.1342 396.534 47.9166C396.534 45.9762 396.025 44.5902 395.009 43.7586C394.085 42.927 392.884 42.5112 391.405 42.5112C390.297 42.5112 389.095 42.696 387.802 43.0656C386.601 43.4352 385.399 43.8972 384.198 44.4516L381.426 35.5812C383.089 34.4724 385.122 33.687 387.525 33.225C390.019 32.763 392.191 32.532 394.039 32.532C397.458 32.532 400.183 33.1326 402.216 34.3338C404.341 35.535 405.866 37.1982 406.79 39.3234C407.714 41.3562 408.176 43.7586 408.176 46.5306C408.176 49.9494 407.575 52.7676 406.374 54.9852C405.265 57.2028 403.926 59.3742 402.355 61.4994C400.784 63.8094 399.49 66.027 398.474 68.1522C397.458 70.2774 396.949 73.0494 396.949 76.4682V84.6456C396.949 88.896 397.642 92.1762 399.028 94.4862C400.414 96.7962 402.262 98.4132 404.572 99.3372C406.882 100.169 409.331 100.585 411.918 100.585C416.538 100.585 420.049 99.522 422.452 97.3968C424.947 95.1792 426.194 91.8066 426.194 87.279V33.3636H438.529V87.972C438.529 95.0868 436.266 100.677 431.738 104.743C427.303 108.716 420.696 110.702 411.918 110.702ZM487.854 110.702C477.874 110.702 470.39 108.115 465.4 102.941C460.503 97.674 458.055 89.4504 458.055 78.27C458.055 76.422 458.101 74.4354 458.193 72.3102C458.378 70.0926 458.563 67.9212 458.748 65.796H487.854V75.498H470.39V78.27C470.39 84.0912 471.037 88.665 472.33 91.9914C473.624 95.2254 475.518 97.4892 478.013 98.7828C480.6 100.076 483.788 100.723 487.576 100.723C491.734 100.723 495.338 99.9378 498.387 98.367C501.436 96.7962 503.793 93.9318 505.456 89.7738C507.119 85.6158 507.951 79.656 507.951 71.8944C507.951 65.0568 507.211 59.4666 505.733 55.1238C504.255 50.781 501.806 47.547 498.387 45.4218C495.061 43.2966 490.533 42.234 484.804 42.234C481.848 42.234 478.983 42.5112 476.211 43.0656C473.439 43.5276 470.76 44.2668 468.172 45.2832C465.585 46.2072 463.044 47.4084 460.549 48.8868V37.383C462.397 36.3666 464.661 35.4888 467.341 34.7496C470.02 33.918 472.977 33.2712 476.211 32.8092C479.445 32.2548 482.818 31.9776 486.329 31.9776C494.46 31.9776 501.021 33.6408 506.01 36.9672C511.092 40.2012 514.788 44.8212 517.098 50.8272C519.408 56.7408 520.563 63.7632 520.563 71.8944C520.563 80.0256 519.501 87.0018 517.375 92.823C515.25 98.6442 511.785 103.079 506.98 106.129C502.268 109.178 495.892 110.702 487.854 110.702ZM553.026 109.316L529.325 33.3636H541.799L562.312 98.6442H563.975C566.193 98.6442 568.364 98.136 570.49 97.1196C572.615 96.0108 574.417 94.6248 575.895 92.9616C578.667 89.9124 580.7 86.0778 581.993 81.4578C583.287 76.7454 583.934 72.1254 583.934 67.5978C583.934 59.9286 582.178 53.9226 578.667 49.5798C575.248 45.1446 570.49 42.927 564.391 42.927C563.19 42.927 561.989 43.0194 560.788 43.2042C559.679 43.389 558.755 43.62 558.016 43.8972L554.966 34.0566C556.907 33.5022 558.709 33.1326 560.372 32.9478C562.127 32.763 563.698 32.6706 565.084 32.6706C569.704 32.6706 573.816 33.3636 577.42 34.7496C581.116 36.0432 584.257 37.9836 586.844 40.5708C590.078 43.7124 592.435 47.6394 593.913 52.3518C595.484 57.0642 596.269 62.2848 596.269 68.0136C596.269 75.2208 595.16 81.6426 592.943 87.279C590.725 92.823 587.953 97.2582 584.627 100.585C581.947 103.264 578.667 105.389 574.786 106.96C570.905 108.531 565.962 109.316 559.956 109.316H553.026ZM632.182 110.702C629.687 110.702 627.284 110.287 624.974 109.455C622.664 108.623 620.77 107.145 619.292 105.02C617.813 102.895 617.074 99.9378 617.074 96.1494V33.3636H629.41V94.6248C629.41 96.75 629.872 98.2746 630.796 99.1986C631.72 100.123 633.198 100.585 635.231 100.585C636.062 100.585 636.94 100.492 637.864 100.307C638.788 100.123 639.666 99.8916 640.498 99.6144L642.161 108.623C640.405 109.455 638.696 110.009 637.033 110.287C635.369 110.564 633.752 110.702 632.182 110.702ZM675.862 110.702C670.411 110.702 665.329 110.194 660.616 109.178C655.996 108.069 652.069 106.775 648.835 105.297L652.439 95.3178C654.379 96.057 656.597 96.8424 659.092 97.674C661.587 98.5056 664.266 99.1986 667.131 99.753C670.087 100.215 673.09 100.446 676.14 100.446C681.037 100.446 685.102 99.522 688.336 97.674C691.57 95.826 693.187 93.1464 693.187 89.6352C693.187 87.51 692.587 85.7082 691.386 84.2298C690.277 82.659 688.521 81.2268 686.119 79.9332C683.716 78.6396 680.621 77.3922 676.833 76.191C671.011 74.343 666.068 72.4026 662.002 70.3698C658.029 68.2446 654.98 65.7498 652.855 62.8854C650.822 59.9286 649.806 56.2788 649.806 51.936C649.806 48.0552 650.822 44.6364 652.855 41.6796C654.98 38.6304 658.214 36.2742 662.557 34.611C666.992 32.8554 672.628 31.9776 679.466 31.9776C683.901 31.9776 688.059 32.3934 691.94 33.225C695.913 33.9642 699.009 35.0268 701.226 36.4128V46.8078C699.655 46.0686 697.669 45.3294 695.266 44.5902C692.956 43.851 690.415 43.2504 687.643 42.7884C684.871 42.3264 682.007 42.0954 679.05 42.0954C672.859 42.0954 668.47 43.0656 665.883 45.006C663.388 46.854 662.141 48.9792 662.141 51.3816C662.141 53.4144 662.695 55.1238 663.804 56.5098C665.005 57.8958 666.992 59.2356 669.764 60.5292C672.628 61.8228 676.463 63.3012 681.268 64.9644C685.703 66.4428 689.769 68.1522 693.465 70.0926C697.161 72.033 700.071 74.4816 702.196 77.4384C704.414 80.3028 705.523 83.9988 705.523 88.5264C705.523 92.4072 704.553 96.057 702.612 99.4758C700.764 102.802 697.669 105.528 693.326 107.653C688.983 109.686 683.162 110.702 675.862 110.702ZM743.677 109.316V55.401C743.677 50.8734 742.614 47.547 740.489 45.4218C738.456 43.2966 734.991 42.234 730.094 42.234C726.768 42.234 723.626 42.696 720.669 43.62C717.805 44.4516 715.033 45.6528 712.353 47.2236V36.1356C714.201 35.2116 716.835 34.2876 720.253 33.3636C723.672 32.4396 727.738 31.9776 732.45 31.9776C737.255 31.9776 741.413 32.6706 744.924 34.0566C748.435 35.4426 751.161 37.7526 753.102 40.9866C755.042 44.1282 756.012 48.3324 756.012 53.5992V109.316H743.677Z"/>
</clipPath><radialGradient id="paint0_radial_1485_102" cx="0" cy="0" r="1" gradientUnits="userSpaceOnUse" gradientTransform="translate(377.935 60.8164) rotate(90) scale(48.5 389.5)">
<stop stop-color="#FF7900" stop-opacity="0.5"/>
<stop offset="1" stop-color="#FF7900"/>
</radialGradient>
</defs>
</svg>
