<svg width="344" height="336" viewBox="0 0 344 336" fill="none" xmlns="http://www.w3.org/2000/svg">
<path d="M22.0002 14.0002H344V336H22.0002V14.0002Z" fill="#005E6A"/>
<path d="M80.0002 145H137.3V202H80.0002V145Z" fill="white"/>
<path d="M0 0V57.6L28.8 28.8V0H0Z" fill="white"/>
<path d="M46.0001 0V57.6L74.8001 28.8V0H46.0001Z" fill="white"/>
<path fill-rule="evenodd" clip-rule="evenodd" d="M80.0002 165.848L97.2946 187.664L80.0002 201.995V165.848Z" fill="#EC6722"/>
<path fill-rule="evenodd" clip-rule="evenodd" d="M86.9612 201.996L99.9743 191.11L108.969 201.996H86.9612Z" fill="#EC6722"/>
<path fill-rule="evenodd" clip-rule="evenodd" d="M80.0002 154.174L84.5134 159.883L103.07 183.071L109.083 178.283C109.083 178.283 104.091 172.406 100.739 165.848C94.186 153.026 98.8255 145.043 98.8255 145.043H80.0002V154.174Z" fill="#EC6722"/>
<path fill-rule="evenodd" clip-rule="evenodd" d="M105.719 186.652L111.843 181.594C111.843 181.594 117.691 189.293 124.473 191.11C133.36 193.491 137.295 187.665 137.295 187.665V201.996H117.775L122.177 198.191C122.177 198.191 119.88 199.722 114.264 195.832C110.949 193.535 105.719 186.652 105.719 186.652Z" fill="#EC6722"/>
<path fill-rule="evenodd" clip-rule="evenodd" d="M106.282 145C106.282 145 104.328 147.661 105.719 154.173C107.205 161.133 113.116 168.5 113.102 168.335C113.102 168.335 113.483 161.02 117.775 156.728C126.924 147.578 137.295 153.025 137.295 153.025V145.042L106.282 145Z" fill="#EC6722"/>
<path fill-rule="evenodd" clip-rule="evenodd" d="M137.287 162.671C137.287 162.671 131.501 157.715 126.471 157.715C120.036 157.715 116.524 163.271 116.524 167.301C116.524 173.17 119.341 176.432 122.169 179.26C126.233 183.324 131.177 187.707 137.287 184.179C137.287 177.503 137.287 162.671 137.287 162.671Z" fill="#EC6722"/>
<path fill-rule="evenodd" clip-rule="evenodd" d="M203.18 145.598H216.833C216.833 145.598 228.929 163.912 234.873 171.479C240.817 179.045 247.215 187.664 247.215 187.664C247.215 187.664 247.215 162.671 247.215 149.699C247.215 148.06 242.91 145.598 242.91 145.598H258.655C258.655 145.598 253.489 147.72 253.489 149.699C253.489 165.847 253.489 204.929 253.489 204.929C253.489 204.929 248.531 202.18 242.91 195.648C236.594 188.309 214.127 158.679 214.127 158.679C214.127 158.679 214.127 186.65 214.127 197.056C214.127 199.022 218.432 201.995 218.432 201.995H203.18C203.18 201.995 207.362 198.998 207.362 197.056C207.362 183.071 207.362 162.671 207.362 149.699C207.362 147.956 203.18 145.598 203.18 145.598Z" fill="white"/>
<path fill-rule="evenodd" clip-rule="evenodd" d="M267.477 145.598H285C285 145.598 280.295 147.827 280.295 149.699C280.295 162.671 280.295 184.179 280.295 197.056C280.295 199.103 285 201.995 285 201.995H267.477C267.477 201.995 271.858 199.037 271.858 197.056C271.858 181.592 271.858 162.671 271.858 149.699C271.858 147.899 267.477 145.598 267.477 145.598Z" fill="white"/>
<path fill-rule="evenodd" clip-rule="evenodd" d="M151.625 145.598C151.625 145.598 156.168 147.863 156.168 149.699C156.168 162.671 156.168 181.592 156.168 197.056C156.168 199.069 151.625 201.995 151.625 201.995C151.625 201.995 174.321 201.995 177.586 201.995C179.208 201.995 197.38 199.023 197.38 185.013C197.38 171.003 183.264 169.691 183.264 169.691C183.264 169.691 191.864 167.3 191.864 157.715C191.864 147.383 179.208 145.598 177.586 145.598C174.214 145.598 151.625 145.598 151.625 145.598ZM165.417 168.762V151.131C165.417 151.131 172.942 151.131 175.963 151.131C177.586 151.131 183.264 153.025 183.264 160.054C183.264 165.847 177.586 168.762 175.963 168.762C172.285 168.762 165.417 168.762 165.417 168.762ZM165.417 173.387C165.417 173.387 175.963 173.387 177.586 173.387C179.208 173.387 188.781 175.873 188.781 184.179C188.781 192.647 179.208 195.648 177.586 195.648C175.963 195.648 165.417 195.648 165.417 195.648V173.387Z" fill="white"/>
</svg>
