<svg width="344" height="336" viewBox="0 0 344 336" fill="none" xmlns="http://www.w3.org/2000/svg">
<path d="M22.008 14.0002H344.008V336H22.008V14.0002Z" fill="#EA1C2C"/>
<path d="M0 0V57.6L28.8 28.8V0H0Z" fill="white"/>
<path d="M46.0001 0V57.6L74.8001 28.8V0H46.0001Z" fill="white"/>
<path d="M191.69 231.29H192.403V145.242H191.69V231.29Z" fill="white"/>
<path d="M241.032 142.53C243.055 139.185 252.322 139.185 262.418 139.185H290.201L306 117C241.321 133.552 224.963 149.009 224.963 162.139C224.963 169.483 230.184 175.558 236.408 180.614C256.195 197.07 262.707 201.28 262.707 208.912C262.707 220.023 239.568 229.674 231.186 230.712C239.991 228.674 245.348 224.33 247.698 218.889C250.55 211.622 244.192 205.721 233.479 205.721C222.767 205.721 211.765 211.622 208.894 218.889C205.985 226.098 212.382 232 223.672 232C246.831 232 280.356 210.334 280.356 192.725C280.356 184.516 275.77 178.749 263.42 168.637C248.7 156.506 237.699 148.297 241.032 142.53Z" fill="white"/>
<path d="M75.6434 147.722H74.025V165.908H75.6434V147.722Z" fill="white"/>
<path d="M88.6496 165.908H91.0966V147.722H89.5167V163.582L84.1604 147.722H81.7135V165.908H83.2934V150.009L88.6496 165.908Z" fill="white"/>
<path d="M129.033 149.452H130.459C132.52 149.452 133.368 150.586 133.368 153.508C133.368 156.507 132.52 157.795 130.459 157.795H129.033V149.452ZM129.033 159.564H130.593C133.657 159.564 135.102 157.507 135.102 153.508C135.102 149.452 133.811 147.722 130.593 147.722H127.453V165.908H129.033V159.564Z" fill="white"/>
<path d="M108.801 180.903H110.227C112.231 180.903 113.098 182.191 113.098 185.094C113.098 187.958 112.231 189.304 110.227 189.304H108.801V180.903ZM108.801 191.15H110.227C113.233 191.15 114.87 189.016 114.87 184.959C114.87 180.903 113.387 179.327 110.227 179.327H107.164V197.359H108.801V191.15Z" fill="white"/>
<path d="M157.531 157.661V149.452H158.977C161.019 149.452 161.886 150.586 161.886 153.354C161.886 155.93 161.019 157.661 158.977 157.661H157.531ZM164.757 165.908L161.173 158.853C162.888 157.949 163.601 155.796 163.601 153.22C163.601 149.586 162.175 147.722 158.977 147.722H155.952V165.908H157.531V159.275H159.535L162.753 165.908H164.757Z" fill="white"/>
<path d="M76.5128 220.735V212.353H77.9385C80.0001 212.353 80.8671 213.68 80.8671 216.256C80.8671 219.024 80.0001 220.735 77.9385 220.735H76.5128ZM83.7379 228.944L80.1543 221.889C81.7149 221.023 82.5819 218.89 82.5819 216.256C82.5819 212.68 81.1561 210.777 77.9385 210.777H74.9329V228.944H76.5128V222.312H78.5166L81.7149 228.944H83.7379Z" fill="white"/>
<path d="M156.815 220.735V212.353H158.24C160.264 212.353 161.169 213.68 161.169 216.256C161.169 219.024 160.264 220.735 158.24 220.735H156.815ZM164.04 228.944L160.456 221.889C162.017 221.023 162.884 218.89 162.884 216.256C162.884 212.68 161.458 210.777 158.24 210.777H155.235V228.944H156.815V222.312H158.818L162.017 228.944H164.04Z" fill="white"/>
<path d="M177.818 164.139H172.173V157.218H176.913V155.642H172.173V149.452H177.818V147.722H170.535V165.908H177.818V164.139Z" fill="white"/>
<path d="M124.525 227.233H118.745V220.312H123.677V218.601H118.745V212.353H124.525V210.777H117.165V228.944H124.525V227.233Z" fill="white"/>
<path d="M145.104 164.426C142.619 164.426 142.041 162.427 142.041 156.794C142.041 151.161 142.619 149.162 145.104 149.162C147.397 149.162 147.975 151.161 147.975 156.794C147.975 162.427 147.397 164.426 145.104 164.426ZM145.104 166.06C149.016 166.06 149.729 162.561 149.729 156.794C149.729 151.027 149.016 147.586 145.104 147.586C141.039 147.586 140.307 151.027 140.307 156.794C140.307 162.561 141.039 166.06 145.104 166.06Z" fill="white"/>
<path d="M64.6436 227.52C62.3123 227.52 61.7343 225.521 61.7343 219.888C61.7343 214.255 62.3123 212.198 64.6436 212.198C67.0905 212.198 67.6685 214.255 67.6685 219.888C67.6685 225.521 67.0905 227.52 64.6436 227.52ZM64.6436 229.096C68.7089 229.096 69.4218 225.521 69.4218 219.888C69.4218 214.101 68.7089 210.487 64.6436 210.487C60.7324 210.487 60.0002 214.101 60.0002 219.888C60.0002 225.521 60.7324 229.096 64.6436 229.096Z" fill="white"/>
<path d="M141.037 195.936C138.744 195.936 138.166 193.879 138.166 188.247C138.166 182.652 138.744 180.615 141.037 180.615C143.522 180.615 144.1 182.652 144.1 188.247C144.1 193.879 143.522 195.936 141.037 195.936ZM141.037 197.647C145.102 197.647 145.815 194.014 145.815 188.247C145.815 182.652 145.102 179.038 141.037 179.038C137.106 179.038 136.393 182.652 136.393 188.247C136.393 194.014 137.106 197.647 141.037 197.647Z" fill="white"/>
<path d="M114.719 159.852L116.742 150.451L118.88 159.852H114.719ZM120.229 165.908H121.809L117.744 147.875V147.722H115.875L111.655 165.908H113.389L114.256 161.429H119.169L120.229 165.908Z" fill="white"/>
<path d="M170.689 222.752L172.75 213.39L174.754 222.752H170.689ZM176.18 228.808H177.817L173.598 210.91V210.776H171.883L167.664 228.808H169.243L170.245 224.463H175.178L176.18 228.808Z" fill="white"/>
<path d="M65.9345 187.824L63.7958 186.536C62.0233 185.517 61.8691 184.959 61.8691 183.229C61.8691 182.037 62.4471 180.615 64.3546 180.615C66.0886 180.615 66.9363 182.191 66.9363 184.671L68.574 184.383C68.574 181.903 67.8034 179.038 64.3546 179.038C61.4452 179.038 60.1544 181.038 60.1544 183.383C60.1544 185.805 61.0214 186.959 62.582 187.958L64.7977 189.15C66.3776 190.15 66.9363 190.861 66.9363 192.726C66.9363 194.014 66.5125 195.936 64.5087 195.936C62.3123 195.936 61.5801 194.014 61.5801 192.015L60.0002 192.303C60.0002 195.36 61.2911 197.647 64.5087 197.647C67.0905 197.647 68.7089 195.648 68.7089 192.726C68.7089 190.727 68.2272 189.15 65.9345 187.824Z" fill="white"/>
<path d="M135.237 219.311L133.099 218.119C131.326 217.12 131.172 216.408 131.172 214.832C131.172 213.544 131.654 212.198 133.658 212.198C135.237 212.198 136.239 213.678 136.104 216.12L137.877 215.832C137.877 213.39 136.971 210.622 133.658 210.622C130.748 210.622 129.457 212.487 129.457 214.832C129.457 217.408 130.324 218.408 131.943 219.446L134.101 220.734C135.681 221.599 136.239 222.464 136.239 224.329C136.239 225.521 135.815 227.52 133.658 227.52C131.654 227.52 130.883 225.655 130.883 223.598H130.748L129.168 223.752C129.303 226.809 130.459 229.096 133.658 229.096C136.393 229.096 138.012 227.232 138.012 224.175C138.012 222.176 137.434 220.599 135.237 219.311Z" fill="white"/>
<path d="M128.015 179.173V187.093H122.658V179.173H121.078V197.359H122.658V188.727H128.015V197.359H129.594V179.173H128.015Z" fill="white"/>
<path d="M109.073 210.776V218.6H103.871V210.776H102.098V228.808H103.871V220.311H109.073V228.808H110.807V210.776H109.073Z" fill="white"/>
<path d="M81.2918 179.173L78.0935 188.727L74.9337 179.173H73.0263L77.2265 190.861V197.359H78.9413V190.861L83.1607 179.173H81.2918Z" fill="white"/>
<path d="M176.045 179.173L172.75 188.727L169.398 179.173H167.664L171.883 190.861V197.359H173.598V190.861L177.817 179.173H176.045Z" fill="white"/>
<path d="M97.9385 179.173L94.2971 191.438L90.8097 179.173H88.6518V197.359H90.2317V182.653L93.7383 194.649H94.8751L98.5165 182.653V197.359H100.096V179.173H97.9385Z" fill="white"/>
<path d="M150.596 210.777H141.463V212.488H145.24V228.944H146.82V212.488H150.596V210.777Z" fill="white"/>
<path d="M102.387 158.659H104.872V161.139C104.872 163.292 104.159 164.426 102.233 164.426C99.8051 164.426 99.0922 162.561 99.0922 156.794C99.0922 151.027 99.651 149.162 102.098 149.162C104.294 149.162 104.718 150.873 104.872 153.065L106.587 152.93C106.298 150.45 105.739 147.586 102.098 147.586C98.2252 147.586 97.3582 150.739 97.3582 156.66C97.3582 162.427 98.0711 166.06 102.098 166.06C105.161 166.06 106.587 164.58 106.587 160.428V156.929H102.387V158.659Z" fill="white"/>
<path d="M65.9345 156.217L63.7958 155.083C62.0233 154.064 61.8691 153.353 61.8691 151.738C61.8691 150.585 62.4471 149.162 64.3546 149.162C66.0886 149.162 66.9363 150.739 66.9363 153.065L68.574 152.93C68.574 150.45 67.8034 147.586 64.3546 147.586C61.4452 147.586 60.1544 149.585 60.1544 151.738C60.1544 154.353 61.0214 155.372 62.582 156.371L64.7977 157.659C66.3776 158.659 66.9363 159.428 66.9363 161.273C66.9363 162.427 66.5125 164.426 64.5087 164.426C62.3123 164.426 61.5801 162.561 61.5801 160.562L60.0002 160.716C60.0002 163.715 61.2911 166.06 64.5087 166.06C67.0905 166.06 68.7089 164.138 68.7089 161.273C68.7089 159.14 68.2272 157.505 65.9345 156.217Z" fill="white"/>
<path d="M95.1613 223.598C95.0264 226.367 94.2943 227.385 92.5795 227.385C90.094 227.385 89.516 225.521 89.516 219.888C89.516 214.255 90.094 212.198 92.5795 212.198C94.2943 212.198 95.0264 213.39 95.1613 216.12L96.876 215.832C96.587 212.487 95.4503 210.487 92.5795 210.487C88.5142 210.487 87.8013 214.101 87.8013 219.888C87.8013 225.521 88.5142 229.096 92.5795 229.096C95.4503 229.096 96.587 227.097 96.876 223.752L95.1613 223.598Z" fill="white"/>
<path d="M159.399 197.359H162.02V179.327H160.266V195.071L154.949 179.327H152.463V197.359H154.178V181.614L159.399 197.359Z" fill="white"/>
</svg>
