<svg width="344" height="336" viewBox="0 0 344 336" fill="none" xmlns="http://www.w3.org/2000/svg">
<path d="M21.6173 13.7969H343.617V335.797H21.6173V13.7969Z" fill="#D2051E"/>
<path d="M0 0V57.6L28.8 28.8V0H0Z" fill="white"/>
<path d="M46.0001 0V57.6L74.8001 28.8V0H46.0001Z" fill="white"/>
<path fill-rule="evenodd" clip-rule="evenodd" d="M286.103 150.797V199.703H78.6173V150.797H286.103ZM92.5001 187.973H106.387V181.288H130.668V187.973H144.555V162.527H130.668V169.212H106.387V162.527H92.5001V187.973ZM147.746 162.527V187.973H161.633V162.527H147.746ZM164.867 187.973H207.865V176.242H178.755V162.527H164.867V187.973ZM196.825 174.258H219.035V187.973H232.922V174.258H255.133V162.527H196.825V174.258ZM258.324 187.973H272.211V162.527H258.324V187.973Z" fill="white"/>
</svg>
