<svg width="344" height="336" viewBox="0 0 344 336" fill="none" xmlns="http://www.w3.org/2000/svg">
<path d="M22.008 13.7971H344.008V335.797H22.008V13.7971Z" fill="#FEF100"/>
<path d="M0 0V57.6L28.8 28.8V0H0Z" fill="white"/>
<path d="M46.0001 0V57.6L74.8001 28.8V0H46.0001Z" fill="white"/>
<path d="M121.786 117L128.15 128.209C129.346 127.35 130.467 126.522 131.6 125.718C135.422 122.977 140.132 121.768 144.802 122.331C146.984 122.587 149.098 123.257 151.03 124.305C154.866 126.291 157.88 129.237 160.632 132.5C166.814 139.873 172.975 147.269 179.115 154.688C179.482 155.13 179.831 155.585 180.261 156.114C178.168 157.864 176.095 159.583 174.033 161.32C173.411 161.856 172.645 162.273 172.284 163.076C168.547 163.892 165.876 165.96 164.425 169.515C164.095 170.331 163.895 171.197 163.634 172.006C162.627 171.824 161.594 171.863 160.604 172.121C159.615 172.379 158.693 172.85 157.905 173.501C157.095 174.166 156.351 174.906 155.682 175.712C154.419 177.379 153.31 179.157 152.369 181.023C150.603 180.954 148.924 180.241 147.647 179.019C146.371 177.798 145.584 176.152 145.438 174.391C145.294 172.578 145.801 170.772 146.867 169.297C147.932 167.822 149.487 166.774 151.254 166.339C153.745 165.779 156.018 166.302 158.297 167.186C159.006 167.584 159.76 167.894 160.545 168.108C160.489 166.863 160.67 165.686 160.445 164.558C157.61 163.233 154.478 162.671 151.36 162.927C154.935 160.593 159.24 159.645 163.466 160.262C164.711 160.417 165.957 160.735 167.376 161.015C167.102 160.66 166.953 160.448 166.791 160.249C161.244 153.573 155.685 146.9 150.114 140.228C148.681 138.417 146.926 136.884 144.939 135.707C143.04 134.636 141.004 134.163 138.936 135.016C135.53 136.423 133.244 138.808 132.871 142.619C134.801 145.559 136.377 148.629 138.12 151.606C139.026 153.31 140.114 154.911 141.365 156.382C143.625 158.873 145.761 161.42 147.953 163.948C147.387 164.322 146.808 164.671 146.26 165.063C144.865 166.067 143.731 167.393 142.957 168.927C142.181 170.461 141.786 172.159 141.805 173.878C141.824 175.597 142.256 177.286 143.065 178.803C143.874 180.319 145.036 181.619 146.453 182.593C147.708 183.336 149.051 183.922 150.451 184.336C148.582 187.705 146.745 191.074 144.846 194.518C148.055 196.621 150.533 199.666 151.939 203.236C153.279 206.789 153.745 210.613 153.296 214.383C153.863 214.084 153.957 213.586 154.181 213.188C157.743 206.798 161.336 200.422 164.842 194.001C166.71 190.614 168.821 187.369 170.141 183.707C172.03 184.323 174.023 184.548 176.001 184.368C179.009 184.218 181.469 182.873 183.599 180.818C183.49 184.422 182.624 187.963 181.058 191.211C179.57 194.549 177.633 197.663 175.877 200.864C172.309 207.359 168.697 213.829 165.097 220.306C164.923 220.623 164.724 220.928 164.475 221.327L153.446 215.442C153.099 215.842 152.907 216.352 152.904 216.881C152.188 220.928 150.625 224.59 147.735 227.56C145.019 230.274 141.545 232.102 137.772 232.804C136.937 232.984 136.016 232.841 135.281 233.389H127.764C127.683 233.159 127.502 233.115 127.278 233.078C123.322 232.443 119.363 231.799 115.403 231.147C109.748 230.22 104.088 229.317 98.4395 228.326C97.1158 228.201 95.809 227.936 94.5411 227.536C95.002 223.307 95.4503 219.166 95.8987 215.019C95.3074 214.769 94.6487 214.727 94.0305 214.9C91.7462 215.154 89.4344 214.973 87.2178 214.365C81.3828 212.932 77.4346 209.221 74.8939 203.878C72.9572 199.811 72.3407 195.421 71.7802 191.031C71.3256 187.618 70.9458 184.181 70.4351 180.793C69.7688 176.303 69.1585 171.807 68.5669 167.311C68.4673 166.582 68.5109 165.767 68.0002 165.119V163.251C71.1948 163.195 74.3085 162.497 77.4658 162.105C78.5493 161.974 79.7263 162.105 80.7413 161.445C80.5109 160.959 80.2867 160.486 80.075 160.012C78.9317 157.598 78.2596 154.988 78.0947 152.322C77.8684 147.94 79.2627 143.629 82.0117 140.21C84.9261 136.442 88.7186 133.789 92.9096 131.659C101.341 127.362 109.786 123.103 118.211 118.8C119.365 118.326 120.461 117.725 121.481 117.006L121.786 117ZM134.92 169.092L128.2 161.096L123.841 163.587C123.792 163.464 123.706 163.359 123.594 163.289C123.482 163.218 123.35 163.185 123.218 163.195H120.16V165.773L112.457 170.095C113.31 176.322 114.139 182.325 114.948 188.353L132.591 190.284C133.836 188.521 140.063 176.77 140.325 175.637C139.702 175.014 139.26 174.142 138.457 173.576V163.257H134.92V169.092ZM127.814 128.689C127.263 128.726 126.734 128.914 126.282 129.231L114.979 134.991C109.25 137.897 103.525 140.816 97.8043 143.747C95.735 144.775 93.8812 146.189 92.3429 147.913C91.575 148.704 90.995 149.657 90.6457 150.703C90.2964 151.749 90.1869 152.86 90.3252 153.953C90.5745 155.4 91.1612 156.767 92.0378 157.945C94.0616 160.903 96.839 161.918 100.351 161.127C102.433 160.613 104.427 159.792 106.267 158.692C108.995 157.148 111.71 155.579 114.425 154.022L121.568 149.912C119.164 141.58 121.593 134.661 127.814 128.689ZM96.8017 214.682C97.1063 214.967 97.5056 215.129 97.9226 215.137C100.905 215.623 103.882 216.127 106.865 216.625L116.735 218.251C120.441 218.873 124.14 219.496 127.845 220.063C130.386 220.461 132.939 220.685 135.48 220.131C137.628 219.645 139.534 218.755 140.755 216.787C141.857 215.012 142 213.051 141.913 211.046C141.894 210.077 141.66 209.124 141.23 208.257C140.799 207.389 140.182 206.627 139.422 206.026C137.174 204.227 134.502 203.591 131.737 203.218C129.663 202.944 127.59 202.732 125.51 202.47C122.614 202.103 119.725 201.648 116.823 201.362C115.92 201.275 115.01 200.858 114.095 201.094C111.199 209.383 105.009 213.312 96.8017 214.682ZM80.9468 161.893C80.9468 162.385 80.9468 162.597 80.9468 162.796C81.3579 165.791 81.7564 168.793 82.1923 171.782C82.6594 174.927 83.0953 178.078 83.4814 181.235C83.936 184.853 84.484 188.459 85.0009 192.065C85.2231 194.244 85.7601 196.379 86.595 198.404C87.7409 200.895 89.4036 202.763 92.2433 203.386C93.4343 203.565 94.6488 203.507 95.8177 203.218C98.975 202.632 101.117 200.889 101.952 197.707C102.612 195.178 102.406 192.625 102.151 190.072C101.914 187.737 101.603 185.414 101.341 183.079C100.993 180.083 100.663 177.088 100.314 173.999C96.2225 173.949 92.4114 173.133 88.9677 170.885C85.5239 168.637 83.1326 165.549 80.9468 161.893Z" fill="white"/>
<path d="M227.757 169.018L221.287 176.042C220.378 176.404 219.986 175.862 219.556 175.42C217.895 173.614 216.224 171.81 214.543 170.008C214.232 169.666 213.92 169.385 213.379 168.862V184.232H209.381V169.192L209.082 169.049L202.611 176.067C201.839 176.385 201.41 175.962 200.967 175.476C199.236 173.608 197.486 171.702 195.749 169.821C195.51 169.486 195.188 169.218 194.815 169.043V184.094C193.513 184.231 192.202 184.25 190.898 184.151V163.283H194.466L202.095 171.434L209.792 163.121C210.844 163.039 211.901 163.022 212.955 163.071L220.727 171.434L228.399 163.208H231.83V184.132H228.094V169.105L227.757 169.018Z" fill="black"/>
<path d="M279.963 184.113C279.758 184.154 279.55 184.181 279.34 184.194C278.612 184.194 277.883 184.194 277.08 184.194C272.777 179.212 268.48 174.23 264.002 169.068C263.835 170.771 263.789 172.484 263.865 174.193C263.834 175.812 263.865 177.437 263.865 179.063V184.119H260.571V163.258C261.501 163.15 262.44 163.133 263.373 163.208L276.694 178.602V163.283C277.781 163.162 278.877 163.13 279.969 163.189L279.963 184.113Z" fill="black"/>
<path d="M183.634 180.83C181.504 182.885 179.045 184.23 176.037 184.379C174.059 184.56 172.065 184.335 170.177 183.719C169.866 183.538 169.554 183.345 169.243 183.177C167.003 182.019 165.259 180.087 164.336 177.741C163.669 175.929 163.431 173.987 163.638 172.068C163.9 171.227 164.099 170.361 164.429 169.577C165.88 166.021 168.576 163.972 172.288 163.138C174.862 162.62 177.533 162.911 179.935 163.972C186.673 167.086 187.557 174.777 184.5 179.54C184.22 179.97 183.927 180.4 183.634 180.83ZM170.812 180.02C176.037 183.233 182.277 179.902 182.538 173.793C182.401 170.15 180.558 167.565 177.482 166.687C177.071 166.276 176.504 166.382 176.012 166.314C171.254 165.691 167.2 168.804 167.231 173.587C167.194 176.396 168.296 178.6 170.812 180.02Z" fill="#000001"/>
<path d="M237.674 163.281C238.79 163.136 239.918 163.122 241.037 163.237C241.237 163.737 241.293 164.283 241.199 164.813C241.199 168.269 241.199 171.725 241.199 175.181C241.177 176.234 241.316 177.284 241.61 178.295C241.794 178.955 242.15 179.554 242.641 180.031C243.132 180.508 243.742 180.846 244.406 181.01C245.965 181.483 247.629 181.483 249.189 181.01C251.144 180.387 252.253 178.818 252.302 176.427C252.365 172.921 252.302 169.409 252.34 165.903V163.312H255.678C255.97 163.611 255.815 164.053 255.815 164.458C255.815 168.281 255.815 172.099 255.815 175.922C255.814 177.39 255.493 178.839 254.874 180.169C254.473 181.086 253.873 181.901 253.12 182.559C252.366 183.217 251.477 183.7 250.515 183.974C248.244 184.641 245.836 184.69 243.54 184.118C242.028 183.829 240.655 183.045 239.638 181.889C238.621 180.733 238.017 179.271 237.923 177.734C237.363 172.952 237.761 168.132 237.674 163.281Z" fill="black"/>
<path d="M288.624 181.012H297.342C297.451 182.032 297.47 183.059 297.398 184.082H285.086V163.246H297.024V166.359H288.624V172.02H296.719V175.196H288.624V181.012Z" fill="black"/>
<path d="M123.824 163.58C123.65 167.758 123.774 171.93 123.768 176.109C123.781 176.743 123.884 177.372 124.073 177.977C124.232 178.695 124.583 179.357 125.089 179.891C125.595 180.425 126.236 180.812 126.944 181.01C128.502 181.474 130.162 181.474 131.721 181.01C134.112 180.287 134.834 178.363 134.928 176.165C135.021 173.817 134.928 171.463 134.928 169.116V163.281H138.515V173.593C138.396 175.001 138.477 176.408 138.222 177.815C137.568 181.352 135.258 183.818 131.714 184.304C129.797 184.63 127.832 184.549 125.948 184.067C122.797 183.171 121.034 181.06 120.505 177.84C120.277 176.286 120.179 174.715 120.212 173.145C120.212 170.685 120.212 168.225 120.169 165.765V163.187H123.233C123.36 163.185 123.484 163.221 123.59 163.291C123.696 163.361 123.777 163.462 123.824 163.58Z" fill="black"/>
<path d="M152.369 181.085C155.433 181.496 158.098 180.413 160.738 178.781V182.623C158.603 183.806 156.198 184.417 153.758 184.398L150.469 184.336C149.07 183.921 147.728 183.335 146.472 182.592C145.055 181.619 143.893 180.319 143.084 178.802C142.276 177.285 141.843 175.596 141.824 173.877C141.805 172.159 142.2 170.46 142.976 168.926C143.751 167.392 144.884 166.067 146.278 165.062C146.826 164.67 147.406 164.321 147.972 163.948L151.372 162.926C154.492 162.692 157.62 163.276 160.446 164.62C160.67 165.747 160.489 166.93 160.545 168.17C159.761 167.955 159.006 167.646 158.297 167.248C156.018 166.364 153.726 165.841 151.254 166.401C149.487 166.836 147.932 167.884 146.867 169.359C145.801 170.834 145.295 172.639 145.438 174.453C145.585 176.214 146.371 177.86 147.648 179.081C148.924 180.302 150.603 181.015 152.369 181.085Z" fill="#010001"/>
<path d="M167.229 173.564C167.198 168.775 171.252 165.643 176.01 166.291C176.502 166.359 177.068 166.253 177.479 166.664C177.735 167.287 178.339 167.542 178.756 167.984C180.292 169.717 181.566 171.667 182.536 173.77C182.274 179.904 176.035 183.235 170.81 179.997C171.009 177.095 169.621 175.052 167.229 173.564Z" fill="white"/>
<path d="M242.084 196.185H244.015V202.175C244.015 202.461 244.042 202.642 244.097 202.72C244.152 202.796 244.273 202.835 244.46 202.835C244.504 202.835 244.576 202.835 244.675 202.835C244.774 202.835 244.878 202.835 244.988 202.835C245.098 202.835 245.203 202.835 245.302 202.835C245.401 202.835 245.478 202.835 245.533 202.835C245.665 202.835 245.764 202.774 245.83 202.654C245.907 202.532 245.956 202.291 245.978 201.927C246.011 201.553 246.039 201.008 246.061 200.293C246.193 200.404 246.364 200.513 246.572 200.623C246.781 200.722 246.996 200.816 247.216 200.904C247.447 200.981 247.64 201.041 247.793 201.086C247.739 201.998 247.64 202.714 247.496 203.231C247.364 203.748 247.156 204.111 246.869 204.32C246.583 204.54 246.199 204.65 245.714 204.65C245.638 204.65 245.527 204.65 245.384 204.65C245.241 204.65 245.087 204.65 244.922 204.65C244.768 204.65 244.62 204.65 244.477 204.65C244.334 204.65 244.224 204.65 244.147 204.65C243.597 204.65 243.173 204.573 242.876 204.419C242.579 204.265 242.37 204.007 242.249 203.644C242.139 203.291 242.084 202.802 242.084 202.175V196.185ZM236.638 193.329H247.546V195.194H236.638V193.329ZM240.004 189.765H241.968C241.957 191.03 241.935 192.268 241.902 193.478C241.869 194.688 241.776 195.855 241.622 196.977C241.479 198.088 241.248 199.138 240.928 200.128C240.621 201.119 240.186 202.031 239.625 202.868C239.064 203.693 238.343 204.425 237.463 205.063C237.309 204.799 237.095 204.512 236.82 204.205C236.544 203.908 236.28 203.671 236.027 203.495C236.841 202.945 237.501 202.301 238.008 201.564C238.514 200.827 238.905 200.018 239.179 199.138C239.454 198.258 239.647 197.323 239.757 196.333C239.878 195.331 239.944 194.281 239.955 193.181C239.977 192.07 239.994 190.931 240.004 189.765ZM243.289 190.854L244.658 189.881C244.911 190.112 245.175 190.376 245.45 190.673C245.725 190.959 245.984 191.244 246.226 191.531C246.479 191.806 246.682 192.059 246.836 192.29L245.368 193.395C245.236 193.164 245.054 192.906 244.823 192.62C244.592 192.323 244.339 192.02 244.064 191.712C243.8 191.393 243.541 191.107 243.289 190.854ZM235.796 189.6L237.661 190.178C237.32 191.112 236.913 192.053 236.44 192.999C235.967 193.935 235.455 194.82 234.905 195.657C234.355 196.492 233.789 197.224 233.205 197.851C233.15 197.697 233.057 197.494 232.925 197.241C232.804 196.977 232.672 196.713 232.529 196.449C232.386 196.185 232.259 195.97 232.149 195.805C232.634 195.298 233.101 194.716 233.552 194.055C234.003 193.384 234.421 192.669 234.806 191.91C235.202 191.151 235.532 190.381 235.796 189.6ZM234.129 194.171L235.994 192.306L236.011 192.323V205.03H234.129V194.171Z" fill="black"/>
<path d="M261.134 191.216L263.31 191.183C263.396 191.183 263.449 191.194 263.471 191.216C263.487 191.237 263.495 191.288 263.495 191.369L263.463 192.158V192.835L263.495 194.599C263.495 194.685 263.482 194.74 263.455 194.761C263.439 194.777 263.39 194.785 263.31 194.785H261.956C261.87 194.785 261.819 194.771 261.803 194.745C261.786 194.728 261.778 194.68 261.778 194.599V192.666H254.76C255.05 192.719 255.496 192.83 256.098 192.996C256.253 193.05 256.331 193.117 256.331 193.198C256.331 193.273 256.265 193.348 256.13 193.423C256.071 193.461 255.966 193.571 255.816 193.754L255.687 193.923H259.192C259.353 193.923 259.49 193.901 259.603 193.858C259.732 193.815 259.807 193.794 259.829 193.794C259.958 193.794 260.178 193.963 260.489 194.302C260.801 194.651 260.957 194.895 260.957 195.035C260.957 195.164 260.884 195.258 260.739 195.317C260.637 195.365 260.444 195.524 260.159 195.792C259.493 196.426 258.816 196.98 258.129 197.452C259.799 198.097 261.846 198.559 264.269 198.838C264 199.209 263.79 199.622 263.64 200.079C263.559 200.326 263.465 200.449 263.358 200.449C263.304 200.449 263.183 200.431 262.995 200.393C262.367 200.281 261.773 200.149 261.215 199.999C261.193 200.262 261.182 200.651 261.182 201.167V202.472L261.223 204.696C261.223 204.787 261.209 204.841 261.182 204.857C261.161 204.873 261.113 204.881 261.037 204.881H259.7C259.614 204.881 259.563 204.871 259.547 204.849C259.53 204.828 259.522 204.777 259.522 204.696V204.188H253.641V204.664C253.641 204.761 253.627 204.82 253.6 204.841C253.584 204.857 253.535 204.865 253.455 204.865H252.142C252.045 204.865 251.988 204.852 251.972 204.825C251.956 204.804 251.948 204.75 251.948 204.664L251.972 202.472V201.352L251.956 200.175C251.467 200.316 250.925 200.455 250.328 200.595C250.13 200.637 250.006 200.659 249.958 200.659C249.851 200.659 249.743 200.533 249.636 200.281C249.501 199.931 249.292 199.585 249.007 199.241C251.483 198.833 253.517 198.261 255.107 197.524C254.543 197.149 253.954 196.692 253.342 196.155C252.735 196.595 252.066 197.004 251.336 197.379C251.094 197.487 250.962 197.541 250.941 197.541C250.876 197.541 250.788 197.452 250.675 197.275C250.433 196.888 250.17 196.595 249.885 196.397C251.76 195.558 253.175 194.573 254.132 193.439C254.336 193.176 254.502 192.918 254.631 192.666H251.271V194.599C251.271 194.685 251.258 194.74 251.231 194.761C251.215 194.777 251.166 194.785 251.086 194.785H249.732C249.646 194.785 249.595 194.771 249.579 194.745C249.563 194.728 249.555 194.68 249.555 194.599L249.587 192.835V192.287L249.555 191.369C249.555 191.277 249.566 191.224 249.587 191.207C249.609 191.191 249.657 191.183 249.732 191.183L251.908 191.216H255.534V190.95C255.534 190.461 255.496 190.05 255.421 189.717C256.055 189.733 256.646 189.765 257.194 189.813C257.371 189.829 257.46 189.883 257.46 189.974C257.46 190.028 257.425 190.133 257.355 190.289C257.301 190.455 257.274 190.681 257.274 190.966V191.216H261.134ZM253.641 201.07V202.835H259.522V201.07H253.641ZM253.439 199.733H260.175C258.838 199.351 257.656 198.9 256.63 198.379C255.706 198.884 254.642 199.335 253.439 199.733ZM254.414 195.26C255.058 195.808 255.781 196.297 256.581 196.727C257.274 196.281 257.924 195.781 258.531 195.228H254.446L254.414 195.26Z" fill="black"/>
<path d="M268.004 203.342L265.924 203.374C265.839 203.374 265.787 203.363 265.771 203.342C265.755 203.32 265.748 203.272 265.748 203.197V201.811C265.748 201.72 265.758 201.666 265.779 201.65C265.801 201.634 265.849 201.626 265.924 201.626L268.004 201.658H271.984V193.117H269.083L266.851 193.149C266.765 193.149 266.714 193.138 266.698 193.117C266.682 193.095 266.674 193.046 266.674 192.972V191.577C266.674 191.491 266.685 191.44 266.706 191.424C266.728 191.408 266.776 191.4 266.851 191.4L269.083 191.432H276.996L279.212 191.4C279.298 191.4 279.349 191.411 279.365 191.432C279.381 191.454 279.389 191.502 279.389 191.577V192.972C279.389 193.058 279.379 193.109 279.357 193.124C279.336 193.14 279.287 193.149 279.212 193.149L276.996 193.117H273.846V201.658H278.052L280.13 201.626C280.216 201.626 280.27 201.636 280.292 201.658C280.308 201.679 280.316 201.73 280.316 201.811V203.197C280.316 203.277 280.305 203.328 280.283 203.35C280.267 203.366 280.216 203.374 280.13 203.374L278.052 203.342H268.004Z" fill="black"/>
<path d="M281.936 193.479H287.217V195.36H281.936V193.479ZM283.735 189.765H285.583V200.839H283.735V189.765ZM281.705 201.07C282.167 200.938 282.69 200.773 283.273 200.575C283.867 200.377 284.494 200.162 285.154 199.931C285.814 199.689 286.469 199.453 287.118 199.221L287.514 201.02C286.645 201.383 285.754 201.746 284.841 202.109C283.938 202.472 283.108 202.802 282.348 203.099L281.705 201.07ZM287.448 190.293H294.412V192.158H287.448V190.293ZM295.105 194.716H297.102C297.102 194.716 297.097 194.771 297.085 194.881C297.085 194.98 297.08 195.101 297.069 195.244C297.069 195.376 297.064 195.481 297.052 195.558C296.975 196.988 296.893 198.203 296.805 199.205C296.717 200.206 296.623 201.042 296.524 201.713C296.425 202.373 296.315 202.896 296.194 203.281C296.084 203.666 295.952 203.946 295.798 204.122C295.611 204.375 295.408 204.557 295.187 204.667C294.979 204.777 294.737 204.854 294.461 204.898C294.23 204.931 293.944 204.953 293.603 204.964C293.273 204.975 292.91 204.975 292.514 204.964C292.514 204.689 292.465 204.37 292.366 204.007C292.267 203.655 292.135 203.352 291.97 203.099C292.3 203.132 292.597 203.154 292.861 203.165C293.136 203.176 293.345 203.182 293.488 203.182C293.62 203.182 293.73 203.16 293.818 203.116C293.917 203.072 294.005 203 294.082 202.901C294.225 202.736 294.357 202.384 294.478 201.845C294.599 201.295 294.709 200.476 294.808 199.386C294.918 198.286 295.017 196.856 295.105 195.096V194.716ZM288.223 196.812C288.18 196.68 288.108 196.498 288.009 196.267C287.91 196.036 287.805 195.805 287.695 195.574C287.596 195.332 287.503 195.134 287.415 194.98C287.657 194.936 287.926 194.837 288.223 194.683C288.532 194.529 288.84 194.347 289.147 194.139C289.312 194.028 289.56 193.863 289.89 193.644C290.22 193.413 290.589 193.137 290.996 192.819C291.414 192.499 291.838 192.153 292.267 191.779C292.707 191.394 293.108 190.998 293.471 190.59V190.475L294.379 190.128L295.781 191.25C294.748 192.208 293.68 193.088 292.58 193.891C291.48 194.683 290.451 195.343 289.494 195.871V195.904C289.494 195.904 289.428 195.937 289.296 196.003C289.175 196.058 289.027 196.135 288.85 196.234C288.685 196.333 288.537 196.438 288.405 196.548C288.284 196.647 288.223 196.735 288.223 196.812ZM288.223 196.812V195.228L289.147 194.716H295.781L295.765 196.564H289.709C289.378 196.564 289.065 196.586 288.768 196.63C288.482 196.674 288.301 196.735 288.223 196.812ZM292.828 195.871L294.56 196.201C294.065 198.127 293.367 199.832 292.465 201.317C291.574 202.791 290.496 203.99 289.23 204.914C289.131 204.815 288.988 204.695 288.801 204.551C288.614 204.419 288.427 204.287 288.24 204.155C288.053 204.023 287.883 203.919 287.728 203.842C289.038 203.017 290.11 201.922 290.947 200.558C291.793 199.183 292.421 197.62 292.828 195.871ZM290.088 195.871L291.821 196.201C291.491 197.312 291.018 198.319 290.402 199.221C289.797 200.123 289.114 200.866 288.355 201.449C288.256 201.35 288.114 201.235 287.926 201.103C287.751 200.971 287.569 200.839 287.382 200.707C287.206 200.563 287.046 200.459 286.903 200.393C287.673 199.898 288.328 199.259 288.867 198.479C289.417 197.686 289.824 196.817 290.088 195.871Z" fill="black"/>
</svg>
